<svg width="44" height="44" viewBox="0 0 44 44" fill="none" xmlns="http://www.w3.org/2000/svg">
<g id="chicken">
<g id="Vector">
<path fill-rule="evenodd" clip-rule="evenodd" d="M43.7528 29.3077C43.7528 30.1007 43.7528 30.8939 43.7528 31.6869C43.4552 32.3758 42.9171 32.7298 42.1383 32.749C41.139 34.0109 40.1193 35.2572 39.0794 36.4878C38.7581 36.6769 38.4182 36.8184 38.0597 36.9127C27.3249 36.9693 16.5901 36.9693 5.85534 36.9127C5.2166 36.7704 4.69261 36.4446 4.28336 35.9355C3.4478 34.8733 2.61224 33.8112 1.77669 32.749C1.03252 32.7049 0.522686 32.3508 0.247191 31.6869C0.247191 30.8939 0.247191 30.1007 0.247191 29.3077C0.465382 28.8774 0.80527 28.58 1.26685 28.4155C2.31484 28.3872 3.36283 28.3588 4.41081 28.3305C3.04051 27.4729 2.48819 26.2408 2.75386 24.6342C2.8765 24.2188 3.04645 23.8223 3.26369 23.4446C3.83277 22.8471 4.42757 22.2807 5.0481 21.7452C5.16906 21.4777 5.29652 21.2228 5.43048 20.9804C5.59544 20.8261 5.65209 20.6562 5.60042 20.4706C6.09362 19.1297 6.77339 17.8977 7.63975 16.7743C8.65452 16.5778 8.95188 16.9602 8.53195 17.9214C8.20427 18.4085 7.87854 18.89 7.55478 19.366C7.39488 19.4272 7.36655 19.5122 7.4698 19.6209C7.06528 20.5153 6.6829 21.4216 6.32268 22.34C5.71142 23.0287 5.05997 23.6802 4.36833 24.2943C3.85184 25.3097 4.00761 26.2019 4.83567 26.971C5.50024 27.3956 6.15169 27.8345 6.79003 28.288C11.6473 28.4013 16.5332 28.458 21.4477 28.458C26.3336 28.4438 31.2195 28.4297 36.1053 28.4155C36.2082 28.3272 36.2931 28.228 36.3603 28.1181C37.9186 26.4979 38.1311 24.7135 36.9975 22.7648C36.0615 21.8712 35.1126 20.9931 34.151 20.1307C33.8722 21.7791 33.1357 23.1811 31.9417 24.3368C30.0287 25.7735 27.9611 26.0425 25.7388 25.1441C25.7115 25.0125 25.6265 24.9558 25.4838 24.9741C23.4911 23.8811 22.443 22.1817 22.3399 19.8758C22.3855 19.1803 22.513 18.5005 22.7223 17.8365C23.078 17.2384 23.5028 17.1818 23.9968 17.6665C24.0535 17.9214 24.0535 18.1764 23.9968 18.4313C23.3628 20.8596 24.1417 22.6865 26.3336 23.912C27.6851 24.4523 29.0164 24.4098 30.3272 23.7845C30.5212 23.7753 30.6912 23.7045 30.8371 23.5721C30.8177 23.5382 30.7893 23.5241 30.7521 23.5296C31.2346 23.146 31.6452 22.6929 31.9842 22.17C32.4232 20.9956 32.8196 19.806 33.1738 18.6012C33.5999 17.6212 34.1239 16.7007 34.7458 15.8396C33.981 15.0749 33.2163 14.3101 32.4515 13.5454C31.5422 14.014 30.6075 14.4673 29.6475 14.9049C28.6095 15.2281 27.5616 15.5114 26.5035 15.7547C26.0793 15.9383 25.6828 16.1649 25.3139 16.4344C24.5245 16.5723 24.2271 16.2466 24.4217 15.4573C25.2215 14.7813 26.142 14.3423 27.1833 14.1402C23.5563 11.9449 19.7043 11.4634 15.6271 12.6957C14.8784 12.9687 14.1421 13.2661 13.4178 13.5879C13.1978 13.5846 13.0279 13.6695 12.908 13.8428C11.9616 14.4732 11.0552 15.1672 10.1889 15.9246C9.33494 16.0338 9.03753 15.6798 9.2967 14.8625C13.7009 10.973 18.7567 9.79762 24.4642 11.3361C26.1193 11.8591 27.6346 12.638 29.0102 13.6728C30.0438 13.2056 31.0493 12.6816 32.0267 12.1009C32.399 12.062 32.7673 12.062 33.1313 12.1009C33.4995 11.7327 33.8678 11.3644 34.236 10.9962C33.5373 9.6835 33.7356 8.52222 34.8308 7.51239C35.8787 6.88926 36.9268 6.88926 37.9747 7.51239C38.5714 8.01167 38.9113 8.64896 38.9944 9.42425C40.4121 9.68095 41.1769 10.5307 41.2886 11.9734C41.0453 13.873 39.969 14.7086 38.0597 14.4801C37.757 14.4173 37.488 14.2898 37.2525 14.0977C36.8304 14.4347 36.4338 14.8029 36.0629 15.2023C36.0609 15.4191 36.1034 15.6315 36.1903 15.8396C36.1267 15.987 36.0842 16.1427 36.0629 16.307C35.5617 17.0637 35.0943 17.8425 34.6608 18.6437C35.7818 19.7082 36.9007 20.7704 38.0172 21.8302C39.1987 23.5593 39.397 25.4004 38.612 27.3533C38.4313 27.7008 38.2188 28.0266 37.9747 28.3305C39.5609 28.3588 41.147 28.3872 42.7331 28.4155C43.1947 28.58 43.5346 28.8774 43.7528 29.3077ZM36.0204 8.40459C37.2412 8.36491 37.7511 8.94552 37.5499 10.1465C37.5543 10.5892 37.7809 10.8299 38.2296 10.8688C39.1855 10.6386 39.752 11.0068 39.9291 11.9734C39.7784 12.9032 39.2402 13.2855 38.3146 13.1205C38.0366 12.9839 37.7817 12.814 37.5499 12.6107C37.3232 12.554 37.0967 12.554 36.8701 12.6107C36.2375 13.0873 35.6427 13.6112 35.0857 14.1827C34.7175 13.8711 34.3776 13.5312 34.066 13.163C34.6359 12.5507 35.2165 11.9559 35.8079 11.3786C35.8646 11.152 35.8646 10.9255 35.8079 10.6988C34.9135 9.8362 34.9843 9.07145 36.0204 8.40459ZM1.60674 29.7325C15.2022 29.7325 28.7978 29.7325 42.3933 29.7325C42.3933 30.2707 42.3933 30.8089 42.3933 31.347C39.8156 31.3328 37.2382 31.347 34.6608 31.3895C34.3399 31.6406 34.2408 31.9663 34.3634 32.3667C34.4666 32.4983 34.594 32.5974 34.7458 32.6641C36.6152 32.6924 38.4846 32.7207 40.3539 32.749C39.763 33.492 39.1823 34.2425 38.612 35.0008C38.4196 35.25 38.1788 35.4342 37.8897 35.5531C27.2683 35.6098 16.6468 35.6098 6.02528 35.5531C5.73617 35.4342 5.49542 35.25 5.30302 35.0008C4.73265 34.2425 4.15202 33.492 3.5611 32.749C13.1912 32.7207 22.8214 32.6924 32.4515 32.6641C33.096 32.2707 33.1244 31.8458 32.5365 31.3895C22.2266 31.347 11.9167 31.3328 1.60674 31.347C1.60674 30.8089 1.60674 30.2707 1.60674 29.7325Z" fill="#848D6F"/>
<path fill-rule="evenodd" clip-rule="evenodd" d="M13.4178 13.5879C13.275 13.716 13.1051 13.801 12.908 13.8428C13.0279 13.6695 13.1978 13.5846 13.4178 13.5879Z" fill="#848D6F"/>
<path fill-rule="evenodd" clip-rule="evenodd" d="M7.55478 19.366C7.54994 19.4602 7.52162 19.5452 7.4698 19.6209C7.36655 19.5122 7.39488 19.4272 7.55478 19.366Z" fill="#848D6F"/>
<path fill-rule="evenodd" clip-rule="evenodd" d="M5.43048 20.9804C5.59544 20.8261 5.65209 20.6562 5.60042 20.4706C5.49592 20.6233 5.43928 20.7932 5.43048 20.9804Z" fill="#848D6F"/>
<path fill-rule="evenodd" clip-rule="evenodd" d="M30.7521 23.5296C30.7893 23.5241 30.8177 23.5382 30.8371 23.5721C30.6912 23.7045 30.5212 23.7753 30.3272 23.7845C30.4461 23.6664 30.5878 23.5814 30.7521 23.5296Z" fill="#848D6F"/>
<path fill-rule="evenodd" clip-rule="evenodd" d="M25.7388 25.1441C25.7115 25.0125 25.6265 24.9558 25.4838 24.9741C25.551 25.0507 25.6359 25.1073 25.7388 25.1441Z" fill="#848D6F"/>
<path fill-rule="evenodd" clip-rule="evenodd" d="M36.3603 28.1181C36.2931 28.228 36.2082 28.3272 36.1053 28.4155C31.2195 28.4297 26.3336 28.4438 21.4477 28.458C16.5332 28.458 11.6473 28.4013 6.79003 28.288C16.5276 28.3869 26.271 28.4011 36.0204 28.3305C36.1029 28.2047 36.2161 28.1338 36.3603 28.1181Z" fill="#848D6F"/>
<path fill-rule="evenodd" clip-rule="evenodd" d="M34.9793 7.71173C34.4731 8.18414 34.191 8.67468 34.1043 9.18232C34.0166 9.69622 34.1237 10.2592 34.4542 10.8801L34.5401 11.0416L33.2226 12.3592L33.1051 12.3467C32.776 12.3116 32.4429 12.3098 32.1056 12.3414C31.1352 12.9157 30.1373 13.4346 29.112 13.8981L28.9786 13.9584L28.8616 13.8704C27.5099 12.8535 26.0214 12.088 24.3947 11.5734C18.7916 10.0645 13.8406 11.2055 9.51289 15.0015C9.4124 15.3516 9.45727 15.5137 9.51465 15.582C9.57219 15.6505 9.72431 15.7228 10.0845 15.6877C10.9301 14.9526 11.8134 14.2772 12.7346 13.6613C12.8911 13.4591 13.1079 13.3519 13.3638 13.3414C14.0782 13.0252 14.8044 12.7326 15.5424 12.4634L15.5555 12.4587C19.6994 11.2063 23.6241 11.6969 27.3113 13.9287L27.8597 14.2607L27.2304 14.3829C26.2572 14.5718 25.3963 14.9751 24.644 15.5937C24.5757 15.919 24.6262 16.0664 24.6814 16.1268C24.7361 16.1868 24.8782 16.2503 25.2165 16.1998C25.5865 15.9347 25.983 15.7106 26.4053 15.5278L26.4261 15.5188L26.4481 15.5138C27.495 15.273 28.532 14.9929 29.5591 14.6736C30.5106 14.2395 31.437 13.7901 32.3383 13.3257L32.4987 13.243L35.0694 15.8137L34.9462 15.9844C34.3377 16.8269 33.8245 17.7272 33.4066 18.6858C33.0519 19.8912 32.655 21.0814 32.2157 22.2566L32.2063 22.2819L32.1916 22.3045C31.8872 22.7741 31.5268 23.1904 31.1107 23.5527L31.1501 23.6217L31.0032 23.7551C30.8285 23.9137 30.6221 24.0061 30.391 24.0278C29.0313 24.6636 27.6426 24.7015 26.2418 24.1415L26.2269 24.1355L26.2129 24.1277C25.0821 23.4955 24.2941 22.6954 23.8781 21.7196C23.4626 20.745 23.4306 19.6245 23.7565 18.3734C23.7991 18.1793 23.8035 17.9861 23.7698 17.7922C23.5725 17.6144 23.4325 17.5782 23.3403 17.5905C23.2424 17.6035 23.1062 17.6836 22.9492 17.9388C22.7525 18.5707 22.6319 19.2171 22.5875 19.8784C22.6892 22.0691 23.6698 23.6743 25.542 24.7237C25.6248 24.7249 25.7122 24.7442 25.7917 24.7972C25.8556 24.8398 25.9008 24.895 25.932 24.9548C28.0308 25.7708 29.9698 25.5032 31.7809 24.1484C32.9303 23.0317 33.6381 21.6811 33.9073 20.0895L33.9821 19.6472L34.316 19.9467C35.2796 20.8108 36.2303 21.6906 37.1682 22.5861L37.1936 22.6103L37.2112 22.6405C37.798 23.6493 38.0478 24.6361 37.9338 25.5939C37.8206 26.5446 37.3524 27.4371 36.5564 28.2707C36.4776 28.3942 36.3805 28.505 36.2664 28.603L36.1972 28.6624L21.4484 28.7052C16.532 28.7052 11.6435 28.6485 6.78427 28.5351L6.70858 28.5334L6.64687 28.4895C6.01187 28.0384 5.36377 27.6017 4.70258 27.1793L4.68379 27.1672L4.66745 27.1521C4.22383 26.7401 3.94356 26.2788 3.85429 25.7675C3.76506 25.2564 3.87184 24.7251 4.14801 24.1823L4.16922 24.1406L4.2042 24.1095C4.87757 23.5115 5.51239 22.8779 6.10869 22.2086C6.44935 21.3421 6.80968 20.4862 7.18967 19.6408C7.16087 19.5721 7.14847 19.4894 7.1791 19.3975C7.21785 19.2812 7.3082 19.2117 7.38953 19.1694C7.69598 18.7187 8.00419 18.263 8.31417 17.8023C8.40791 17.5841 8.45463 17.4138 8.46624 17.2866C8.47811 17.1564 8.45168 17.095 8.42874 17.0655C8.40642 17.0368 8.35595 16.9978 8.23165 16.9802C8.12204 16.9647 7.97265 16.9688 7.77772 17.0007C6.96857 18.0649 6.32846 19.2275 5.85715 20.4892C5.87453 20.5982 5.86696 20.7081 5.83119 20.8154C5.79119 20.9354 5.71992 21.0404 5.62929 21.1319C5.50509 21.3586 5.38642 21.5969 5.27334 21.847L5.25087 21.8967L5.2096 21.9323C4.60271 22.456 4.02063 23.0097 3.46336 23.5934C3.26522 23.9423 3.10926 24.3075 2.99528 24.6896C2.87211 25.4485 2.94355 26.1025 3.19441 26.6621C3.44686 27.2253 3.89 27.7129 4.54195 28.121L5.23625 28.5555L1.31405 28.6615C0.94784 28.8003 0.677718 29.0342 0.494382 29.3688V31.6358C0.615173 31.9084 0.777567 32.1087 0.977185 32.2473C1.18792 32.3937 1.45542 32.4823 1.79134 32.5023L1.90226 32.5089L4.47602 35.7806L4.47683 35.7816C4.84532 36.2396 5.31169 36.5328 5.88372 36.6656C16.598 36.7221 27.3123 36.7221 38.0266 36.6656C38.3389 36.5809 38.6359 36.4577 38.9181 36.2956C39.9469 35.0776 40.9557 33.8442 41.9446 32.5956L42.0165 32.5048L42.1322 32.5019C42.4852 32.4932 42.7671 32.4094 42.9902 32.2626C43.2015 32.1235 43.3749 31.9183 43.5056 31.6343V29.3688C43.3224 29.0346 43.0527 28.8008 42.687 28.6619L37.4664 28.5687L37.782 28.1757C38.0134 27.8876 38.2151 27.579 38.3871 27.2499C39.133 25.3855 38.9471 23.6421 37.8278 21.9912C36.7176 20.9374 35.6052 19.8814 34.4906 18.823L34.3533 18.6926L34.4434 18.5261C34.8716 17.7348 35.3325 16.9651 35.8261 16.2168C35.8468 16.0864 35.8796 15.9601 35.9247 15.8382C35.8505 15.6308 35.8137 15.4177 35.8157 15.2001L35.8165 15.1043L35.8817 15.0341C36.261 14.6258 36.6665 14.2492 37.0982 13.9045L37.2541 13.7801L37.4087 13.9062C37.6103 14.0706 37.8395 14.1804 38.0998 14.2359C39.0112 14.3432 39.6804 14.192 40.1473 13.8295C40.6116 13.4691 40.9209 12.8649 41.0401 11.9672C40.9843 11.298 40.7805 10.7894 40.4475 10.4194C40.1104 10.0449 39.6196 9.78866 38.9503 9.66749L38.7683 9.63453L38.7486 9.4506C38.673 8.74538 38.3692 8.17079 37.8312 7.71471C37.3451 7.42902 36.87 7.29223 36.4027 7.29223C35.9372 7.29223 35.4637 7.42807 34.9793 7.71173ZM5.37854 20.3578C5.87952 19.0042 6.5681 17.7591 7.44401 16.6234L7.50105 16.5494L7.59274 16.5316C7.86003 16.4799 8.09902 16.4621 8.30098 16.4907C8.50472 16.5196 8.69261 16.5995 8.81898 16.7619C8.94474 16.9236 8.97734 17.1258 8.95858 17.3315C8.9399 17.5362 8.86886 17.7677 8.75847 18.0204L8.74953 18.0409L8.73705 18.0594C8.42096 18.5293 8.10668 18.994 7.79421 19.4535C7.77899 19.5559 7.74331 19.6524 7.68697 19.7406C7.28716 20.6254 6.90911 21.5219 6.5528 22.4302L6.53675 22.4712L6.50756 22.5041C5.9003 23.1883 5.25382 23.8361 4.56816 24.4474C4.34418 24.9033 4.27668 25.3124 4.3413 25.6825C4.40688 26.0581 4.61358 26.4225 4.98793 26.7749C5.62729 27.1838 6.25463 27.606 6.86991 28.0416C16.5411 28.1394 26.2182 28.1536 35.9011 28.0842C35.9927 27.9877 36.1058 27.9212 36.2367 27.8892C36.9534 27.1261 37.3469 26.3417 37.4429 25.5354C37.5403 24.7176 37.3351 23.8478 36.8013 22.9192C35.9806 22.1362 35.1501 21.3651 34.3098 20.6062C33.9724 22.1201 33.2395 23.4247 32.1136 24.5144L32.1025 24.5252L32.0902 24.5345C30.109 26.0224 27.9514 26.3038 25.6506 25.375C25.528 25.3305 25.4198 25.263 25.33 25.1715C23.2828 24.0354 22.1993 22.2638 22.0929 19.8868L22.0923 19.8732L22.0932 19.8596C22.1402 19.1444 22.2713 18.4451 22.4865 17.7622L22.4951 17.7348L22.5098 17.7101C22.7024 17.3864 22.9511 17.1436 23.275 17.1004C23.5995 17.0572 23.9019 17.2271 24.17 17.4901L24.2222 17.5414L24.2381 17.6129C24.3027 17.9031 24.3027 18.1947 24.2381 18.4849L24.2362 18.4938C23.9293 19.6691 23.97 20.6747 24.3329 21.5257C24.6942 22.3731 25.3871 23.0966 26.4402 23.6884C27.7104 24.1921 28.9533 24.1554 30.1852 23.5782C30.3144 23.4584 30.4641 23.3686 30.6318 23.3092C31.0718 22.9538 31.4484 22.537 31.7622 22.058C32.1953 20.8974 32.5867 19.7219 32.9366 18.5315L32.941 18.5168L32.9471 18.5027C33.352 17.5713 33.8441 16.6926 34.4232 15.8666L32.4042 13.8476C31.5418 14.2888 30.6571 14.7163 29.75 15.1299L29.7358 15.1363L29.721 15.141C28.6844 15.4637 27.6378 15.7469 26.5812 15.9904C26.1814 16.1652 25.8077 16.3798 25.4597 16.634L25.4132 16.668L25.3564 16.6779C24.9451 16.7498 24.556 16.7228 24.3163 16.4602C24.0783 16.1995 24.0807 15.8077 24.1817 15.3981L24.2009 15.3202L24.2621 15.2685C24.9351 14.6997 25.6911 14.2919 26.5277 14.0455C23.1184 12.1515 19.5162 11.7802 15.7053 12.9303C14.9757 13.1965 14.258 13.486 13.552 13.7988C13.3942 13.9318 13.2115 14.0231 13.0076 14.0735C12.0838 14.6912 11.1984 15.3703 10.3516 16.1107L10.2949 16.1603L10.2203 16.1698C9.77932 16.2262 9.37222 16.1811 9.13611 15.9C8.89949 15.6183 8.92712 15.2102 9.06107 14.7877L9.08176 14.7225L9.13307 14.6772C13.5999 10.7324 18.7415 9.53751 24.5285 11.0974L24.5387 11.1002C26.1731 11.6167 27.674 12.3792 29.0407 13.3874C30.0195 12.9392 30.9727 12.4396 31.9004 11.8884L31.9471 11.8606L32.001 11.855C32.3499 11.8186 32.696 11.8148 33.0389 11.8437L33.9339 10.9487C33.6279 10.3144 33.5152 9.69518 33.617 9.09912C33.7275 8.45179 34.0862 7.86266 34.6632 7.33066L34.6822 7.31313L34.7044 7.29992C35.2603 6.96939 35.8274 6.79785 36.4027 6.79785C36.978 6.79785 37.5452 6.96939 38.1011 7.29992L38.1181 7.31007L38.1334 7.32281C38.7322 7.82389 39.0947 8.45855 39.216 9.21684C39.8824 9.36544 40.4217 9.65172 40.815 10.0887C41.2426 10.5638 41.4761 11.1933 41.5351 11.9543L41.537 11.9796L41.5338 12.0048C41.4072 12.9928 41.0582 13.7483 40.4505 14.2201C39.843 14.6917 39.0227 14.8443 38.0303 14.7255L38.0198 14.7243L38.0095 14.7221C37.7363 14.6654 37.4859 14.5614 37.2598 14.4103C36.9274 14.6856 36.6116 14.9813 36.3124 15.2975C36.3216 15.4477 36.3566 15.5963 36.4184 15.7444L36.4589 15.8413L36.4172 15.9377C36.363 16.0632 36.3264 16.1966 36.308 16.3388L36.3006 16.3957L36.2689 16.4435C35.8065 17.1416 35.3731 17.8588 34.9688 18.5952C36.0437 19.616 37.1166 20.6345 38.1874 21.6509L38.2065 21.669L38.2213 21.6907C39.4496 23.4884 39.6569 25.4165 38.8414 27.4455L38.8369 27.4567L38.8313 27.4674C38.7189 27.6836 38.5946 27.8918 38.4585 28.0919L42.778 28.169L42.8161 28.1826C43.3363 28.368 43.7259 28.7081 43.9733 29.1959L44 29.2486V31.738L43.9797 31.7849C43.8151 32.1662 43.5775 32.4679 43.2619 32.6756C42.9762 32.8636 42.6399 32.9656 42.2621 32.9908C41.2835 34.2245 40.2856 35.4434 39.2682 36.6474L39.241 36.6795L39.2047 36.7008C38.864 36.9014 38.5031 37.0517 38.1225 37.1517L38.0923 37.1597L38.061 37.1599C27.3254 37.2165 16.5897 37.2165 5.85403 37.1599L5.8275 37.1597L5.8016 37.1539C5.10818 36.9995 4.53515 36.6433 4.09069 36.0904L4.08908 36.0883L1.64919 32.9868C1.2873 32.9501 0.966412 32.8417 0.695187 32.6534C0.395566 32.4453 0.171835 32.1502 0.0188777 31.7816L0 31.7361V29.2486L0.0267236 29.1959C0.274044 28.7081 0.663687 28.368 1.18387 28.1826L1.22089 28.1694L3.68379 28.1029C3.26809 27.7435 2.95253 27.3311 2.74328 26.8643C2.44348 26.1955 2.37088 25.4351 2.50998 24.5939L2.51247 24.5789L2.51679 24.5642C2.64495 24.1301 2.82257 23.7158 3.04942 23.3214L3.06422 23.2956L3.08469 23.2741C3.64672 22.684 4.23366 22.1239 4.8455 21.5936C4.9543 21.3559 5.06837 21.1277 5.18775 20.9089C5.20626 20.7102 5.27 20.5253 5.37854 20.3578ZM25.5116 25.1912L25.5005 25.1935L25.5033 25.1966C25.5063 25.1998 25.5097 25.2029 25.5135 25.2058L25.5116 25.1912ZM7.6037 19.4937L7.6367 19.5798C7.64078 19.5725 7.64476 19.5639 7.64811 19.5538C7.66204 19.512 7.65548 19.4751 7.64757 19.4546L7.64681 19.4527L7.6037 19.4937ZM36.0969 8.65011C35.6458 8.95343 35.4604 9.24138 35.4364 9.50108C35.4112 9.7725 35.5532 10.1097 35.9795 10.5209L36.0305 10.5701L36.0477 10.6389C36.1143 10.9049 36.1143 11.1726 36.0477 11.4386L36.0307 11.5066L35.9806 11.5555C35.4445 12.0789 34.9172 12.6167 34.3987 13.1691C34.6107 13.4068 34.8354 13.6318 35.0729 13.844C35.5909 13.3278 36.1404 12.8509 36.7213 12.4133L36.7614 12.3831L36.8101 12.3709C37.0761 12.3044 37.3438 12.3044 37.6098 12.3709L37.6679 12.3854L37.7128 12.4248C37.9195 12.606 38.1458 12.7587 38.3922 12.883C38.7991 12.9498 39.079 12.8912 39.2693 12.756C39.4584 12.6216 39.6057 12.3784 39.6779 11.9759C39.5936 11.5545 39.4347 11.3083 39.2367 11.1795C39.0321 11.0466 38.7297 11.0026 38.2875 11.1091L38.2484 11.1185L38.2083 11.115C37.9455 11.0923 37.7111 11.007 37.5431 10.8285C37.3745 10.6494 37.3053 10.411 37.3027 10.149L37.3025 10.1272L37.3061 10.1057C37.4015 9.5362 37.316 9.18219 37.1326 8.9734C36.9564 8.77273 36.6349 8.64349 36.0969 8.65011ZM37.7974 10.1643C37.8977 9.5428 37.8267 9.01452 37.5041 8.6472C37.1779 8.27561 36.6538 8.13668 36.0123 8.15753L35.944 8.15975L35.8866 8.19673C35.3433 8.54644 34.9898 8.96119 34.9441 9.45551C34.9002 9.92961 35.1477 10.3881 35.5825 10.8239C35.6101 10.9673 35.6102 11.1098 35.5826 11.2532C35.0065 11.8172 34.4407 12.3976 33.8851 12.9946L33.7356 13.1552L33.8773 13.3227C34.1978 13.7013 34.5474 14.0509 34.926 14.3714L35.1019 14.5202L35.2627 14.3552C35.7987 13.8053 36.3701 13.3003 36.977 12.8397C37.1301 12.8078 37.2821 12.8073 37.4351 12.8381C37.6703 13.0375 37.9273 13.2056 38.2056 13.3424L38.2369 13.3578L38.2712 13.3639C38.7713 13.453 39.213 13.4024 39.5556 13.159C39.8981 12.9157 40.0917 12.515 40.1731 12.0129L40.1799 11.9708L40.1722 11.9289C40.077 11.4094 39.868 11.0003 39.5061 10.765C39.1541 10.5362 38.7104 10.5063 38.2138 10.6187C38.051 10.5989 37.9577 10.5476 37.9031 10.4897C37.8473 10.4304 37.8024 10.3325 37.7974 10.1643ZM1.35955 29.4853H42.6404V31.5956L42.3919 31.5942C39.8455 31.5802 37.2993 31.5939 34.7531 31.6352C34.6621 31.7197 34.6089 31.8064 34.5823 31.8941C34.553 31.9901 34.5499 32.1061 34.587 32.2491C34.649 32.3196 34.7206 32.3754 34.8031 32.4177L40.8603 32.5095L40.5474 32.9029C39.9579 33.6441 39.3785 34.3929 38.8096 35.1494L38.8077 35.1518C38.589 35.4351 38.3133 35.6461 37.9838 35.7817L37.9393 35.8L37.8911 35.8003C27.2687 35.857 16.6463 35.857 6.02396 35.8003L5.97578 35.8L5.93122 35.7817C5.60171 35.6461 5.32603 35.4351 5.10735 35.1519L5.10546 35.1494C4.53643 34.3929 3.95718 33.6441 3.36764 32.9029L3.04982 32.5034L32.3797 32.4171C32.6376 32.2479 32.7041 32.1149 32.7095 32.0339C32.7147 31.9565 32.6702 31.8239 32.4486 31.6363C22.1681 31.5941 11.8877 31.58 1.60708 31.5942L1.35955 31.5945V29.4853ZM1.85393 29.9797V31.0995C12.0819 31.0859 22.3097 31.1002 32.5375 31.1423L32.6216 31.1426L32.6881 31.1942C32.999 31.4356 33.2255 31.7263 33.2028 32.0668C33.1802 32.405 32.9195 32.668 32.5803 32.8751L32.5214 32.9111L4.07081 32.9947C4.55401 33.6083 5.03027 34.227 5.4996 34.8509C5.65594 35.0531 5.84738 35.204 6.07658 35.3062C16.6639 35.3625 27.2512 35.3625 37.8384 35.3062C38.0676 35.204 38.2591 35.0531 38.4154 34.851C38.8863 34.2249 39.3642 33.6042 39.8491 32.9886L34.6921 32.9105L34.6463 32.8904C34.457 32.8071 34.297 32.6826 34.1689 32.5191L34.1405 32.483L34.1271 32.4391C34.0547 32.2027 34.0424 31.9699 34.1093 31.7501C34.1764 31.5298 34.3161 31.3454 34.5085 31.1948L34.5738 31.1437L34.6567 31.1423C37.1531 31.1012 39.6495 31.0866 42.1461 31.0985V29.9797H1.85393Z" fill="#848D6F"/>
</g>
</g>
</svg>
