<svg width="44" height="44" viewBox="0 0 44 44" fill="none" xmlns="http://www.w3.org/2000/svg">
<path fill-rule="evenodd" clip-rule="evenodd" d="M19.3636 0.247191C20.1566 0.247191 20.9497 0.247191 21.7428 0.247191C22.0281 0.4341 22.2406 0.689016 22.3801 1.01194C22.4368 1.74836 22.4368 2.48478 22.3801 3.22121C22.2893 3.62358 22.0486 3.89265 21.6578 4.02844C21.1763 4.08509 20.6948 4.08509 20.2133 4.02844C19.6365 3.56626 19.6648 3.1414 20.2983 2.75386C20.5517 2.71155 20.8066 2.69739 21.063 2.71138C21.063 2.31484 21.063 1.91831 21.063 1.52177C17.8306 1.54303 15.6921 3.07252 14.6476 6.11025C14.5485 6.20939 14.4494 6.30852 14.3502 6.40765C13.031 6.74055 11.9547 7.43449 11.1213 8.48947C11.258 8.60743 11.4138 8.6924 11.5886 8.74438C12.779 8.04181 14.0677 7.75857 15.4549 7.89466C16.842 7.75857 18.1307 8.04181 19.3211 8.74438C19.4826 8.65639 19.6385 8.55726 19.7884 8.44698C18.9431 7.46086 17.895 6.78109 16.6445 6.40765C16.1746 5.88234 16.1321 5.33002 16.517 4.7507C16.7577 4.39665 17.0551 4.09925 17.4092 3.8585C18.2148 3.72921 18.5122 4.05494 18.3014 4.83567C18.13 4.99288 17.9742 5.16282 17.8341 5.34551C18.0857 5.52088 18.3548 5.66249 18.6413 5.77037C21.4513 4.94151 23.7314 5.69211 25.4816 8.02212C27.7365 8.77729 28.9403 10.3492 29.0929 12.7381C30.9255 11.3342 32.9507 10.9093 35.1684 11.4635C35.284 11.5933 35.3832 11.735 35.4658 11.8883C35.5224 12.7098 35.5224 13.5311 35.4658 14.3525C35.3666 14.6782 35.1542 14.8907 34.8285 14.9898C33.2895 14.804 31.9866 15.2571 30.9198 16.3494C31.1837 16.4884 31.4528 16.6158 31.727 16.7317C34.5892 15.9014 36.8976 16.6802 38.6522 19.0685C41.0681 19.8423 42.2152 21.4993 42.0936 24.0393C41.302 28.4491 40.5655 32.8677 39.8843 37.2949C39.0357 40.8343 36.7981 42.7603 33.1715 43.073C32.6939 43.1036 32.2406 43.0187 31.812 42.8181C31.1081 43.2627 30.3576 43.5742 29.5602 43.7528C28.8804 43.7528 28.2007 43.7528 27.5209 43.7528C26.7454 43.5834 26.0232 43.2718 25.3541 42.8181C22.1948 43.3913 19.759 42.315 18.0465 39.5892C17.8015 39.1559 17.6032 38.7027 17.4517 38.2296C17.1424 36.3906 16.845 34.5495 16.5595 32.7065C14.9904 32.9761 13.5318 32.6929 12.1835 31.8567C10.0276 32.3268 8.11574 31.8454 6.44785 30.4122C6.48508 30.4177 6.51341 30.4036 6.53282 30.3697C6.42326 30.2166 6.28165 30.1175 6.10796 30.0723C5.139 29.1707 4.50171 28.0661 4.19609 26.7584C3.47735 22.1911 2.7126 17.6309 1.90185 13.0779C1.81807 10.5126 2.99352 8.81321 5.42818 7.97963C7.18743 5.65135 9.46749 4.91492 12.2684 5.77037C12.6933 5.5721 13.1181 5.37383 13.543 5.17556C14.5905 2.47066 16.5306 0.827872 19.3636 0.247191ZM10.6115 6.95997C10.4698 7.04494 10.3566 7.15824 10.2716 7.29986C10.0901 7.49634 9.92014 7.70877 9.76175 7.93715C8.97015 7.9278 8.17706 7.89948 7.38254 7.85218C8.39474 6.99525 9.47106 6.69785 10.6115 6.95997ZM20.1283 6.875C21.3762 6.67215 22.4809 6.99789 23.4422 7.85218C22.7612 7.87773 22.0814 7.92021 21.4029 7.97963C21.2896 7.95131 21.1763 7.92298 21.063 7.89466C20.8098 7.4999 20.4982 7.16001 20.1283 6.875ZM6.19293 9.25421C7.15636 9.24002 8.11938 9.25421 9.08198 9.2967C9.60744 9.34904 10.089 9.51899 10.5265 9.80653C10.0303 10.4739 9.73295 11.2245 9.63429 12.0583C9.57762 17.2416 9.57762 22.4249 9.63429 27.6081C9.77688 28.7735 10.2158 29.8073 10.9514 30.7096C8.55512 30.5788 6.84152 29.4317 5.81056 27.2683C4.88172 22.3404 4.01784 17.3979 3.21891 12.4407C3.46595 10.6784 4.45729 9.61628 6.19293 9.25421ZM19.8734 17.5815C19.7884 17.6098 19.7318 17.6664 19.7035 17.7514C19.2388 18.1454 18.8139 18.5844 18.4289 19.0685C16.17 19.8346 15.0229 21.4066 14.9875 23.7844C15.3992 26.2831 15.8383 28.7756 16.3046 31.2619C13.9323 31.6686 12.247 30.7622 11.2488 28.5428C11.1372 28.2097 11.0522 27.8699 10.9938 27.5232C10.9372 22.3966 10.9372 17.2699 10.9938 12.1433C11.3393 10.4948 12.3449 9.54601 14.0103 9.2967C14.9733 9.24002 15.9364 9.24002 16.8994 9.2967C18.4077 9.55875 19.3849 10.4227 19.8309 11.8883C19.8435 12.3768 19.9001 12.8583 20.0009 13.3329C20.3868 13.7795 20.7833 13.7795 21.1905 13.3329C21.3896 12.0909 21.1347 10.9579 20.4257 9.93399C20.3621 9.83755 20.3762 9.75257 20.4682 9.67907C20.8699 9.47438 21.2947 9.34692 21.7428 9.2967C22.7058 9.24002 23.6688 9.24002 24.6318 9.2967C26.4242 9.58798 27.4439 10.6359 27.6908 12.4407C27.5568 13.2804 27.4011 14.1161 27.2235 14.9473C26.9929 15.3548 26.7947 15.7796 26.6287 16.2219C26.1985 16.3749 25.7736 16.5448 25.3541 16.7317C23.9812 16.2578 22.6217 16.2861 21.2754 16.8167C21.2471 16.4201 21.2188 16.0237 21.1905 15.6271C20.6339 15.1107 20.209 15.1957 19.9159 15.882C19.8734 16.4478 19.8593 17.0143 19.8734 17.5815ZM32.7891 12.5681C33.2423 12.5681 33.6955 12.5681 34.1487 12.5681C34.1487 12.9363 34.1487 13.3046 34.1487 13.6728C32.089 13.5907 30.517 14.412 29.4327 16.1369C29.3259 16.5894 29.4251 16.986 29.7302 17.3265C30.9855 17.733 32.0336 18.4411 32.8741 19.4508C32.7303 19.5806 32.5744 19.6939 32.4068 19.7907C31.8668 19.3744 31.2579 19.1053 30.5799 18.9835C29.2486 18.9268 27.9174 18.9268 26.5862 18.9835C25.8834 19.1014 25.2461 19.3704 24.6743 19.7907C24.5401 19.6598 24.3843 19.5606 24.207 19.4933C25.0714 18.423 26.176 17.715 27.5209 17.369C27.5917 17.2983 27.6625 17.2274 27.7333 17.1566C28.5247 14.6225 30.21 13.093 32.7891 12.5681ZM22.8474 17.7514C23.1885 17.7373 23.5284 17.7515 23.8671 17.7939C23.4628 18.165 23.1087 18.5756 22.8049 19.026C22.0326 18.9564 21.2537 18.9139 20.4682 18.8985C21.1683 18.3076 21.9614 17.9253 22.8474 17.7514ZM33.214 17.8364C34.5273 17.6484 35.6885 18.0024 36.6978 18.8985C35.8841 18.9138 35.0768 18.9563 34.2761 19.026C33.9966 18.5623 33.6425 18.1658 33.214 17.8364ZM23.2723 21.4902C23.1957 21.5573 23.139 21.6423 23.1023 21.7451C22.9785 22.046 22.8794 22.3576 22.8049 22.6798C22.7483 28.0897 22.7483 33.4995 22.8049 38.9094C22.9741 39.9415 23.3849 40.862 24.037 41.671C22.6346 41.6776 21.4167 41.2103 20.3832 40.269C20.27 40.184 20.1566 40.099 20.0434 40.014C19.3402 39.2371 18.8729 38.3308 18.6413 37.2949C17.913 32.6559 17.1341 28.0249 16.3046 23.402C16.4994 21.9325 17.2926 20.9412 18.6838 20.428C19.9821 20.2919 21.285 20.2636 22.5925 20.343C22.9864 20.4177 23.3546 20.5593 23.6971 20.7679C23.4786 20.9644 23.3369 21.2052 23.2723 21.4902ZM26.7561 20.3006C27.9744 20.2864 29.1924 20.3006 30.4099 20.343C31.8472 20.7663 32.7111 21.7152 33.0016 23.1896C33.0299 25.3706 33.0582 27.5515 33.0865 29.7324C33.3426 30.1603 33.6966 30.2594 34.1487 30.0298C34.2507 29.9531 34.3216 29.854 34.3611 29.7324C34.4178 27.4949 34.4178 25.2572 34.3611 23.0197C34.2641 22.1885 33.9667 21.4379 33.4689 20.7679C33.7862 20.5771 34.1261 20.4354 34.4886 20.343C35.7065 20.2864 36.9245 20.2864 38.1424 20.343C39.9078 20.8581 40.7717 22.0335 40.734 23.8694C39.9224 28.5124 39.1293 33.1576 38.3548 37.8048C37.4177 40.2436 35.6475 41.5323 33.0441 41.671C33.7944 40.8071 34.2334 39.8015 34.3611 38.6545C34.4178 36.5019 34.4178 34.3492 34.3611 32.1966C34.172 31.8261 33.8746 31.6986 33.4689 31.8143C33.2848 31.885 33.1573 32.0125 33.0865 32.1966C33.082 34.4655 33.0253 36.7314 32.9166 38.9944C31.993 41.6449 30.1378 42.7354 27.3509 42.2658C25.6325 41.6805 24.5704 40.5051 24.1645 38.7395C24.1078 33.4712 24.1078 28.2029 24.1645 22.9347C24.534 21.5598 25.3979 20.6817 26.7561 20.3006Z" fill="#848D6F"/>
<path fill-rule="evenodd" clip-rule="evenodd" d="M10.6115 6.95997C10.5664 7.13366 10.4672 7.27528 10.3141 7.38483C10.2802 7.36542 10.2661 7.33709 10.2716 7.29986C10.3566 7.15824 10.4698 7.04494 10.6115 6.95997Z" fill="#848D6F"/>
<path fill-rule="evenodd" clip-rule="evenodd" d="M19.8734 17.5815C19.9106 17.5759 19.939 17.59 19.9584 17.6239C19.8876 17.6947 19.8167 17.7656 19.746 17.8364C19.712 17.817 19.6979 17.7886 19.7035 17.7514C19.7318 17.6664 19.7884 17.6098 19.8734 17.5815Z" fill="#848D6F"/>
<path fill-rule="evenodd" clip-rule="evenodd" d="M23.2723 21.4902C23.3095 21.4846 23.3379 21.4988 23.3573 21.5327C23.3081 21.6531 23.2232 21.7238 23.1023 21.7451C23.139 21.6423 23.1957 21.5573 23.2723 21.4902Z" fill="#848D6F"/>
<path fill-rule="evenodd" clip-rule="evenodd" d="M6.10796 30.0723C6.28165 30.1175 6.42326 30.2166 6.53282 30.3697C6.51341 30.4036 6.48508 30.4177 6.44785 30.4122C6.30622 30.3272 6.19293 30.214 6.10796 30.0723Z" fill="#848D6F"/>
<path fill-rule="evenodd" clip-rule="evenodd" d="M20.0434 40.014C20.1566 40.099 20.27 40.184 20.3832 40.269C20.3495 40.3561 20.2929 40.3702 20.2133 40.3114C20.1283 40.2265 20.0434 40.1415 19.9584 40.0565C19.9778 40.0226 20.0061 40.0085 20.0434 40.014Z" fill="#848D6F"/>
<path fill-rule="evenodd" clip-rule="evenodd" d="M19.3385 0H21.8165L21.8782 0.0404138C22.2054 0.2547 22.4489 0.548029 22.607 0.913895L22.6234 0.9518L22.6265 0.99297C22.6842 1.74202 22.6842 2.49112 22.6265 3.24018L22.6252 3.25808L22.6212 3.27559C22.5116 3.76159 22.2102 4.0982 21.739 4.26194L21.7135 4.27079L21.6867 4.27394C21.186 4.33285 20.6851 4.33285 20.1844 4.27394L20.114 4.26566L20.0587 4.22134C19.753 3.97635 19.5328 3.68444 19.5553 3.34672C19.5778 3.00972 19.834 2.7481 20.1693 2.543L20.2102 2.51795L20.2576 2.51005C20.4428 2.4791 20.629 2.46222 20.8158 2.4594V1.77371C19.3514 1.82044 18.1436 2.19576 17.1786 2.88589C16.1597 3.61464 15.3907 4.70941 14.8814 6.19063L14.8628 6.24467L14.4768 6.63066L14.4107 6.64733C13.2312 6.94498 12.2579 7.54089 11.4843 8.43795C11.5098 8.45093 11.5359 8.46285 11.5627 8.47372C12.764 7.7905 14.0637 7.51445 15.4549 7.64633C16.8364 7.51537 18.1277 7.78669 19.322 8.45958C19.3538 8.44076 19.3853 8.42145 19.4166 8.40167C18.6361 7.56276 17.6898 6.97778 16.5737 6.64451L16.5068 6.62452L16.4602 6.57246C16.1991 6.28048 16.0402 5.9619 16.0137 5.61839C15.9873 5.27446 16.0961 4.93754 16.3111 4.6139L16.3126 4.61172C16.5708 4.23193 16.8904 3.91233 17.2702 3.65408L17.3157 3.62315L17.3701 3.61443C17.7876 3.54742 18.18 3.57735 18.419 3.83915C18.6592 4.10218 18.6496 4.49447 18.5401 4.90011L18.5214 4.96939L18.4685 5.01788C18.3746 5.10391 18.2859 5.19394 18.2022 5.28799C18.3468 5.37284 18.497 5.44669 18.653 5.50961C20.0637 5.10702 21.3613 5.09014 22.5361 5.47687C23.7131 5.86433 24.7445 6.64954 25.6329 7.81252C26.7627 8.20329 27.6477 8.80217 28.2718 9.61719C28.8319 10.3486 29.1714 11.2403 29.2989 12.2825C31.0972 11.0415 33.0796 10.6867 35.2283 11.2237L35.3022 11.2421L35.3529 11.2991C35.4814 11.4433 35.5917 11.6008 35.6834 11.7711L35.7087 11.8181L35.7124 11.8713C35.7698 12.7041 35.7698 13.5368 35.7124 14.3695L35.7104 14.3976L35.7022 14.4245C35.5791 14.829 35.305 15.1031 34.9005 15.2263L34.8506 15.2415L34.7988 15.2352C33.4514 15.0725 32.3055 15.4216 31.3425 16.2861C31.4749 16.3503 31.6086 16.4116 31.7435 16.47C33.1789 16.0677 34.4957 16.058 35.684 16.4589C36.8746 16.8607 37.9136 17.6671 38.8038 18.8579C40.0123 19.2583 40.9284 19.8852 41.5277 20.7509C42.1395 21.6346 42.4032 22.7413 42.3405 24.0512L42.3397 24.0672L42.3369 24.083C41.5456 28.4908 40.8095 32.9073 40.1286 37.3325L40.1271 37.3426L40.1247 37.3526C39.6911 39.1608 38.8974 40.5772 37.7309 41.5813C36.5644 42.5854 35.0455 43.1596 33.1927 43.3193L33.1873 43.3198C32.7145 43.3501 32.2615 43.2757 31.8314 43.0969C31.1366 43.5193 30.3973 43.8186 29.6142 43.994L29.5876 44H27.4942L27.4681 43.9943C26.6938 43.8251 25.9705 43.5195 25.2994 43.0788C23.721 43.3496 22.3036 43.2174 21.0578 42.6669C19.7861 42.105 18.7141 41.1165 17.8372 39.7207L17.8311 39.711C17.5778 39.2631 17.373 38.7942 17.2163 38.305L17.2109 38.2881L17.2079 38.2706C16.9121 36.5117 16.6272 34.751 16.3531 32.9884C14.8511 33.1938 13.4431 32.9036 12.1385 32.1189C9.95325 32.5686 8.00016 32.0649 6.30196 30.6127C6.14448 30.5146 6.01492 30.3866 5.91519 30.2305C4.92338 29.2991 4.26944 28.1584 3.95539 26.8147L3.95332 26.8058L3.95191 26.7969C3.23342 22.2312 2.46895 17.6726 1.65849 13.1213L1.65537 13.1038L1.65479 13.086C1.6116 11.7634 1.89277 10.6417 2.5173 9.73878C3.12988 8.85312 4.05709 8.20068 5.27669 7.77059C6.16977 6.60805 7.20382 5.82631 8.3817 5.44587C9.55423 5.06717 10.8466 5.09346 12.2492 5.50654L13.349 4.99331C14.4352 2.26537 16.4309 0.595977 19.3139 0.00503463L19.3385 0ZM6.8066 30.389C8.36744 31.6432 10.1352 32.0504 12.1308 31.6152L12.2286 31.5939L12.3137 31.6467C13.6105 32.4508 15.0079 32.7223 16.5176 32.4628L16.7653 32.4203L16.8038 32.6686C17.0882 34.5047 17.3844 36.3388 17.6925 38.171C17.8376 38.62 18.0264 39.0506 18.2589 39.4626C19.0938 40.7899 20.0949 41.7009 21.2577 42.2147C22.4218 42.7291 23.7688 42.8545 25.31 42.5749L25.4093 42.5569L25.4928 42.6135C26.1289 43.0448 26.8135 43.3418 27.5478 43.5056H29.5323C30.2917 43.3324 31.0074 43.0339 31.68 42.6091L31.7942 42.5369L31.9167 42.5942C32.3065 42.7766 32.7173 42.854 33.153 42.8265C34.9255 42.6733 36.3378 42.1281 37.4084 41.2066C38.4774 40.2864 39.226 38.9734 39.6415 37.2472C40.3218 32.8266 41.0571 28.4147 41.8474 24.0116C41.9034 22.7888 41.6543 21.8022 41.1212 21.0323C40.586 20.2591 39.7465 19.6785 38.5768 19.3039L38.5005 19.2794L38.453 19.2148C37.5992 18.0527 36.6224 17.2973 35.5259 16.9274C34.4293 16.5574 33.1895 16.5649 31.7959 16.9691L31.7116 16.9936L31.6307 16.9594C31.3501 16.8408 31.0747 16.7103 30.8046 16.5681L30.5114 16.4137L30.7429 16.1766C31.8516 15.0415 33.2125 14.5606 34.8027 14.738C35.0142 14.6614 35.1487 14.5224 35.2212 14.3059C35.2738 13.5239 35.2744 12.742 35.2228 11.96C35.1671 11.8627 35.1037 11.7709 35.0325 11.6847C32.9186 11.1774 30.9958 11.5917 29.2432 12.9343L28.8757 13.2158L28.8462 12.7538C28.7723 11.5979 28.4457 10.6574 27.8793 9.91776C27.313 9.17823 26.4933 8.62164 25.4031 8.25652L25.3301 8.23209L25.2839 8.17058C24.4326 7.03719 23.4641 6.30284 22.3816 5.94647C21.2989 5.59005 20.0788 5.60407 18.7113 6.00746L18.6318 6.0309L18.5542 6.0017C18.2485 5.8866 17.9611 5.73539 17.6927 5.5483L17.4805 5.40035L17.6379 5.19506C17.7719 5.02048 17.9191 4.85692 18.0798 4.70444C18.1575 4.37672 18.1077 4.23134 18.0539 4.1725C17.9984 4.11164 17.8515 4.04682 17.5026 4.0945C17.1947 4.31171 16.9349 4.57607 16.7222 4.88859C16.5528 5.14383 16.4906 5.37238 16.5067 5.58047C16.5215 5.77403 16.6062 5.9774 16.7848 6.19194C18.05 6.58318 19.1154 7.28211 19.9761 8.28609L20.1495 8.48833L19.9349 8.64613C19.776 8.76295 19.6107 8.86809 19.4393 8.96146L19.3162 9.02853L19.1954 8.95726C18.0506 8.28157 16.8145 8.00965 15.479 8.14067L15.4549 8.14304L15.4307 8.14067C14.0953 8.00965 12.8591 8.28157 11.7143 8.95726L11.6215 9.01203L11.5182 8.98133C11.3102 8.91948 11.1233 8.81767 10.9598 8.67662L10.7806 8.52198L10.9273 8.33624C11.7809 7.2558 12.882 6.53762 14.2232 6.18512L14.4327 5.9756C14.9683 4.44571 15.7845 3.27519 16.891 2.48378C18.0105 1.68312 19.406 1.28547 21.0614 1.27458L21.3102 1.27295V2.97242L21.0496 2.9582C20.8274 2.94608 20.6066 2.95669 20.3869 2.99003C20.1222 3.16054 20.0542 3.29585 20.0486 3.3796C20.0432 3.46065 20.0896 3.59748 20.3142 3.79097C20.7432 3.83621 21.1721 3.8346 21.6012 3.78615C21.8912 3.67829 22.0627 3.48428 22.135 3.18358C22.1882 2.48015 22.1888 1.77677 22.1368 1.07333C22.0265 0.833539 21.8699 0.642003 21.666 0.494382H19.3888C16.6518 1.06248 14.7877 2.64582 13.7735 5.26483L13.7376 5.35752L12.287 6.03449L12.1962 6.00678C10.8332 5.59049 9.61577 5.56682 8.53365 5.91633C7.45161 6.2658 6.4812 6.99605 5.62541 8.12865L5.57981 8.189L5.50825 8.2135C4.32846 8.61743 3.47486 9.22344 2.9239 10.02C2.37559 10.8127 2.11083 11.8176 2.14835 13.0523C2.95769 17.598 3.72119 22.1509 4.43885 26.7109C4.7298 27.9487 5.32767 28.9937 6.23445 29.852C6.43794 29.9193 6.60569 30.0468 6.73385 30.2259L6.82614 30.3549L6.8066 30.389ZM20.716 7.06552C20.9008 7.25299 21.0677 7.45729 21.2165 7.67825L21.4227 7.72978C21.866 7.69141 22.3098 7.66023 22.7541 7.63623C22.1308 7.2328 21.4532 7.04347 20.716 7.06552ZM20.0887 6.63101C21.4114 6.416 22.5906 6.7647 23.6064 7.6674L24.0664 8.07613L23.4515 8.09919C22.7745 8.12459 22.0989 8.16682 21.4245 8.22588L21.3832 8.2295L20.9079 8.11068L20.8549 8.02812C20.617 7.65718 20.3247 7.33841 19.9774 7.07081L19.5255 6.72255L20.0887 6.63101ZM8.08499 7.64162C8.60236 7.66528 9.1191 7.68083 9.63519 7.68828C9.77296 7.49812 9.91905 7.31868 10.0735 7.15008C10.0784 7.14222 10.0835 7.13442 10.0885 7.1267C9.39939 7.06739 8.73335 7.23547 8.08499 7.64162ZM10.2881 7.6548C10.1755 7.78865 10.0677 7.9297 9.96487 8.07802L9.89008 8.18587L9.75883 8.18432C8.96329 8.17493 8.16627 8.14647 7.36785 8.09893L6.75183 8.06225L7.22282 7.66352C8.2854 6.76394 9.43962 6.43699 10.6668 6.71906L10.9147 6.77602L10.8507 7.02212C10.7903 7.25481 10.6556 7.44444 10.4579 7.58587L10.3289 7.67816L10.2881 7.6548ZM6.22048 9.50103C5.40269 9.67536 4.77803 10.0093 4.32841 10.491C3.88111 10.9703 3.5903 11.6138 3.46895 12.4385C4.26413 17.3705 5.12364 22.2878 6.04748 27.1907C6.5453 28.2246 7.19972 29.0057 8.00649 29.5458C8.69076 30.0039 9.49415 30.2949 10.4223 30.4137C9.85861 29.5856 9.51388 28.6594 9.38893 27.6382L9.38727 27.6246L9.38712 27.6108C9.33042 22.4258 9.33042 17.2407 9.38712 12.0556L9.38726 12.0424L9.38881 12.0292C9.48168 11.2444 9.74281 10.5275 10.1715 9.88181C9.82975 9.69644 9.46125 9.58374 9.06414 9.54334C8.11665 9.50166 7.16876 9.48753 6.22048 9.50103ZM6.18929 9.00705C7.15757 8.99279 8.12544 9.00705 9.09288 9.04975L9.10651 9.05035C9.67134 9.10661 10.1911 9.29029 10.6623 9.59996L10.8811 9.74381L10.7249 9.95401C10.2573 10.5829 9.97648 11.2883 9.88132 12.0744C9.82486 17.2468 9.82486 22.4192 9.88132 27.5916C10.02 28.7056 10.44 29.6911 11.143 30.5534L11.4963 30.9869L10.9379 30.9564C9.7028 30.889 8.63082 30.5587 7.73147 29.9566C6.8321 29.3546 6.11887 28.4899 5.58741 27.3746L5.57359 27.3456L5.56764 27.314C4.6384 22.384 3.77414 17.4394 2.97487 12.48L2.96895 12.4432L2.97412 12.4063C3.10308 11.4864 3.42952 10.7296 3.96699 10.1537C4.50452 9.57779 5.23587 9.20135 6.14245 9.01223L6.16562 9.0074L6.18929 9.00705ZM14.0361 9.54281C13.2474 9.66259 12.6333 9.94423 12.1768 10.3751C11.7227 10.8036 11.4068 11.3962 11.2407 12.1705C11.1844 17.2806 11.1845 22.3908 11.2408 27.501C11.2962 27.8244 11.3757 28.1416 11.4793 28.4527C11.9616 29.5203 12.5982 30.2498 13.3785 30.6695C14.104 31.0596 14.978 31.195 16.0146 31.0562C15.5654 28.6514 15.1417 26.2409 14.7436 23.8246L14.74 23.8028L14.7404 23.7807C14.7586 22.5522 15.0649 21.512 15.6747 20.6763C16.2725 19.8572 17.1475 19.2542 18.2807 18.8581C18.6511 18.3993 19.0571 17.9804 19.4987 17.6012C19.5297 17.539 19.5717 17.4854 19.6233 17.4421C19.6146 16.9153 19.6299 16.3891 19.6694 15.8635L19.6725 15.8226L19.6886 15.7849C19.8442 15.4205 20.0697 15.1284 20.4059 15.0612C20.7396 14.9944 21.0648 15.1733 21.3586 15.4459L21.4301 15.5122L21.4986 16.4719C22.7676 16.0432 24.0514 16.0416 25.342 16.4668C25.7035 16.308 26.0689 16.1616 26.4383 16.0276C26.5955 15.6239 26.7793 15.2343 26.9896 14.8589C27.1605 14.056 27.3109 13.2491 27.4409 12.4382C27.3195 11.5928 27.022 10.9445 26.5637 10.4735C26.1013 9.99822 25.4552 9.68297 24.6046 9.54272C23.6577 9.48749 22.7108 9.48761 21.7639 9.54307C21.3812 9.58666 21.0173 9.69046 20.6709 9.85479C21.3847 10.9158 21.6397 12.0926 21.4345 13.372L21.4229 13.4449L21.3731 13.4994C21.1472 13.7473 20.885 13.915 20.5877 13.915C20.2884 13.915 20.0305 13.7452 19.8138 13.4945L19.7723 13.4464L19.7591 13.3842C19.6575 12.9058 19.5994 12.4207 19.5848 11.9289C19.3723 11.2472 19.0418 10.7171 18.5998 10.3264C18.1539 9.93218 17.5814 9.66819 16.8707 9.54264C15.9259 9.48758 14.9809 9.48763 14.0361 9.54281ZM19.6911 18.0897C19.3056 18.4338 18.9493 18.8112 18.6223 19.2223L18.5771 19.2792L18.5083 19.3026C17.416 19.673 16.6114 20.2314 16.0741 20.9677C15.5402 21.6993 15.2554 22.6269 15.235 23.7662C15.6454 26.2557 16.0829 28.7391 16.5475 31.2164L16.5938 31.4632L16.3464 31.5056C15.1201 31.7158 14.0469 31.5903 13.1443 31.1049C12.242 30.6196 11.5386 29.7899 11.0233 28.6442L11.0183 28.633L11.0144 28.6213C10.8987 28.276 10.8106 27.9236 10.7501 27.5642L10.7469 27.5452L10.7467 27.5259C10.69 22.3975 10.69 17.269 10.7467 12.1405L10.7469 12.1163L10.7519 12.0926C10.9327 11.2299 11.2906 10.5315 11.8375 10.0155C12.3843 9.49951 13.1022 9.1827 13.9738 9.05223L13.9847 9.05059L13.9958 9.04994C14.9685 8.99269 15.9413 8.99269 16.9139 9.04994L16.9279 9.05076L16.9417 9.05316C17.733 9.19064 18.3988 9.48878 18.9273 9.95597C19.4557 10.4231 19.8334 11.0475 20.0674 11.8164L20.0772 11.8485L20.078 11.882C20.0897 12.3334 20.14 12.7783 20.2293 13.2171C20.3791 13.3756 20.4986 13.4206 20.5877 13.4206C20.6776 13.4206 20.8007 13.375 20.9579 13.2186C21.1251 12.0686 20.8805 11.0249 20.2225 10.0747L20.2194 10.0702C20.1652 9.98804 20.1243 9.8799 20.1448 9.75733C20.165 9.63566 20.2379 9.54668 20.3139 9.48593L20.3336 9.47024L20.356 9.45883C20.7841 9.24064 21.2377 9.10457 21.7153 9.05105L21.7282 9.04959C22.7009 8.99234 23.6737 8.99269 24.6464 9.04994L24.659 9.05068L24.6715 9.05271C25.6072 9.20477 26.3631 9.55839 26.918 10.1288C27.4729 10.6991 27.8069 11.4655 27.9357 12.4072L27.9407 12.4434L27.9349 12.4796C27.8003 13.3236 27.6437 14.1635 27.4652 14.999L27.4573 15.0361L27.4386 15.0691C27.2145 15.4652 27.0217 15.8784 26.8601 16.3088L26.8197 16.4163L26.7115 16.4548C26.2873 16.6056 25.8684 16.7732 25.4547 16.9575L25.3656 16.9972L25.2734 16.9654C23.956 16.5106 22.6572 16.5378 21.3661 17.0467L21.0528 17.1701L20.9511 15.7452C20.7292 15.5581 20.5855 15.5294 20.5029 15.5459C20.4177 15.563 20.2911 15.65 20.1593 15.9425C20.1234 16.437 20.1095 16.9322 20.1175 17.428C20.1406 17.4512 20.1588 17.4765 20.173 17.5013L20.2667 17.6652L20.1315 17.8004L20.1307 17.8012L20.1299 17.8021L20.1265 17.8054L20.1257 17.8062L20.1199 17.812L20.1191 17.8128L20.1182 17.8137L20.1174 17.8145L20.1108 17.8211L20.1099 17.822L20.0668 17.8651L20.066 17.8659L20.0535 17.8784L20.0527 17.8792L20.0411 17.8908L20.0402 17.8917L20.0236 17.9083L20.0228 17.9091L20.022 17.9099L20.0211 17.9108L20.012 17.9199L20.0112 17.9207L20.0037 17.9282L20.0029 17.929L19.9913 17.9406L19.9904 17.9415L19.9465 17.9855L19.9456 17.9863L19.9299 18.002L19.929 18.0029L19.9241 18.0079L19.9232 18.0087L19.9224 18.0095L19.7872 18.1447L19.6911 18.0897ZM19.7755 17.7846L19.78 17.7769L19.9088 17.8198L19.9097 17.826C19.8879 17.8292 19.8515 17.8287 19.8122 17.8091C19.7975 17.8018 19.7854 17.7932 19.7755 17.7846ZM19.9418 17.7868L19.948 17.7877C19.9512 17.7659 19.9507 17.7295 19.9311 17.6902C19.9238 17.6755 19.9152 17.6634 19.9066 17.6535L19.8989 17.6579L19.9418 17.7868ZM19.8859 17.6654L19.903 17.781L19.7874 17.7639L19.8232 17.7012L19.8859 17.6654ZM32.7642 12.3209H34.3959V13.93L34.1388 13.9197C32.1806 13.8417 30.7001 14.6083 29.6647 16.2327C29.5949 16.5696 29.6637 16.8562 29.873 17.1133C31.1432 17.5374 32.2084 18.2648 33.0641 19.2927L33.2161 19.4753L33.0397 19.6344C32.8829 19.7758 32.713 19.8993 32.5304 20.0048L32.387 20.0876L32.2558 19.9865C31.7519 19.5979 31.1852 19.3459 30.5524 19.2297C29.239 19.1743 27.9256 19.1743 26.6122 19.2298C25.9533 19.3426 25.3571 19.5956 24.8207 19.9899L24.6518 20.1141L24.5017 19.9676C24.3921 19.8607 24.2653 19.7798 24.1193 19.7244L23.8003 19.6034L24.0147 19.338C24.8987 18.2435 26.0272 17.512 27.3934 17.1469L27.4125 17.1279L27.4133 17.127L27.4257 17.1146L27.4266 17.1138L27.4382 17.1021L27.439 17.1013L27.4556 17.0847L27.4565 17.0839L27.4573 17.083L27.4581 17.0822L27.4672 17.0731L27.4681 17.0723L27.4755 17.0648L27.4764 17.064L27.488 17.0523L27.4888 17.0515L27.5154 17.025C27.9228 15.7497 28.5575 14.7128 29.4247 13.9258C30.3051 13.1268 31.4136 12.5958 32.7398 12.3259L32.7642 12.3209ZM32.8142 12.8153C31.5723 13.0717 30.5566 13.5662 29.7569 14.2919C28.952 15.0225 28.354 15.9982 27.9693 17.2303L27.9511 17.2884L27.9064 17.3331L27.9056 17.3339L27.9048 17.3347L27.9015 17.338L27.9006 17.3389L27.8948 17.3447L27.894 17.3455L27.8932 17.3463L27.8923 17.3472L27.8857 17.3538L27.8849 17.3546L27.8417 17.3978L27.8409 17.3986L27.8284 17.411L27.8276 17.4119L27.816 17.4235L27.8152 17.4243L27.7986 17.4409L27.7977 17.4418L27.7969 17.4426L27.7961 17.4434L27.7869 17.4525L27.7861 17.4534L27.7786 17.4608L27.7778 17.4617L27.7662 17.4733L27.7654 17.4741L27.7214 17.5181L27.7206 17.5189L27.7048 17.5347L27.704 17.5355L27.699 17.5405L27.6982 17.5413L27.6973 17.5422L27.6479 17.5916L27.5825 17.6084C26.3893 17.9153 25.3963 18.5165 24.5975 19.4147C24.6286 19.4348 24.6591 19.456 24.6887 19.4782C25.2501 19.0994 25.8697 18.853 26.5453 18.7397L26.5604 18.7372L26.5757 18.7365C27.9139 18.6796 29.2521 18.6796 30.5904 18.7365L30.6071 18.7372L30.6236 18.7402C31.2829 18.8586 31.8823 19.1095 32.4192 19.4922C32.4539 19.4691 32.4879 19.4452 32.5214 19.4204C31.7399 18.5468 30.7854 17.928 29.654 17.5617L29.5905 17.5412L29.546 17.4915C29.186 17.0895 29.0672 16.6097 29.1922 16.0801L29.2016 16.0402L29.2235 16.0054C30.3099 14.277 31.8791 13.4113 33.9015 13.42V12.8162L32.8142 12.8153ZM22.8765 17.9976C22.2682 18.1193 21.7064 18.3441 21.19 18.673C21.6904 18.6933 22.1881 18.7247 22.6832 18.7671C22.8742 18.4961 23.0834 18.2393 23.3105 17.997C23.1661 17.9919 23.0214 17.9921 22.8765 17.9976ZM22.8372 17.5044C23.192 17.4898 23.5455 17.5045 23.8978 17.5486L24.4276 17.6149L24.0342 17.976C23.644 18.3341 23.3027 18.7301 23.0099 19.1642L22.9282 19.2853L22.7828 19.2722C22.0163 19.2031 21.2431 19.1609 20.4634 19.1457L19.8074 19.1328L20.3088 18.7096C21.0405 18.092 21.872 17.6909 22.7998 17.5088L22.8184 17.5052L22.8372 17.5044ZM33.8145 18.0352C34.0359 18.2571 34.2331 18.5011 34.4056 18.7669C34.9336 18.7232 35.4645 18.6913 35.9981 18.6711C35.3318 18.2332 34.6057 18.0222 33.8145 18.0352ZM33.179 17.5917C34.5657 17.3932 35.7994 17.7703 36.862 18.7137L37.3351 19.1338L36.7025 19.1457C35.8942 19.1609 35.0926 19.2031 34.2976 19.2722L34.144 19.2856L34.0644 19.1536C33.8008 18.7163 33.4674 18.343 33.0633 18.0323L32.5982 17.6748L33.179 17.5917ZM26.792 20.5474C25.5465 20.9062 24.7599 21.7051 24.4113 22.969C24.3551 28.216 24.3551 33.4629 24.4114 38.7098C24.8008 40.3709 25.7937 41.4684 27.4117 42.0253C28.757 42.2487 29.8479 42.0922 30.7073 41.587C31.5631 41.084 32.2231 40.2153 32.6714 38.9465C32.7788 36.6993 32.8348 34.4492 32.8393 32.1961L32.8394 32.1505L32.8558 32.1079C32.9517 31.8585 33.1308 31.6794 33.3802 31.5835L33.3905 31.5796L33.4011 31.5765C33.6418 31.5079 33.8786 31.5038 34.0936 31.5959C34.309 31.6882 34.4681 31.8625 34.5813 32.0842L34.6067 32.1341L34.6082 32.1901C34.665 34.3471 34.665 36.5041 34.6082 38.661L34.6079 38.6715L34.6068 38.6818C34.4956 39.6809 34.1569 40.5796 33.592 41.3742C34.6072 41.2458 35.4669 40.9189 36.1788 40.4006C37.013 39.7933 37.6608 38.9114 38.1151 37.7393C38.8874 33.106 39.6781 28.4748 40.4872 23.8456C40.5021 22.9766 40.3046 22.2871 39.9152 21.7573C39.5273 21.2295 38.9309 20.8355 38.1011 20.5886C36.9093 20.534 35.7174 20.5341 34.5256 20.5888C34.2823 20.6525 34.0503 20.74 33.8292 20.8513C34.2561 21.4968 34.5156 22.211 34.6066 22.991L34.6079 23.0022L34.6082 23.0134C34.665 25.2551 34.665 27.497 34.6082 29.7387L34.6073 29.7746L34.5962 29.8088C34.541 29.9788 34.4398 30.1202 34.2972 30.2274L34.2799 30.2404L34.2606 30.2502C34.0005 30.3824 33.7335 30.4374 33.4774 30.3657C33.2205 30.2938 33.0231 30.1079 32.8744 29.8594L32.8402 29.8022L32.7547 23.2156C32.6154 22.5251 32.3456 21.9698 31.953 21.5385C31.5621 21.1092 31.0382 20.7905 30.3697 20.589C29.1775 20.5479 27.9848 20.534 26.792 20.5474ZM26.7533 20.0534C27.9753 20.0392 29.1972 20.0534 30.4185 20.096L30.4498 20.0971L30.4798 20.1059C31.2344 20.3282 31.8514 20.6926 32.3186 21.2057C32.7858 21.7188 33.0917 22.368 33.2441 23.1418L33.2484 23.1639L33.3328 29.6592C33.4287 29.8007 33.5239 29.8653 33.6108 29.8896C33.7051 29.9161 33.8349 29.9076 34.0159 29.8198C34.0605 29.7827 34.093 29.7389 34.115 29.6859C34.1705 27.4697 34.1702 25.2535 34.1143 23.0373C34.0209 22.2534 33.7401 21.5475 33.2705 20.9153L33.108 20.6966L33.3415 20.5561C33.6796 20.3527 34.0419 20.2018 34.4275 20.1035L34.4519 20.0973L34.4771 20.0961C35.7026 20.0391 36.9283 20.0391 38.1539 20.0961L38.1833 20.0975L38.2116 20.1057C39.1327 20.3744 39.8419 20.8227 40.3136 21.4645C40.7853 22.1063 41.0008 22.9164 40.9811 23.8745L40.9808 23.8933L40.9775 23.9119C40.1661 28.5543 39.373 33.1989 38.5986 37.8454L38.5945 37.8701L38.5855 37.8934C38.1033 39.1487 37.4004 40.1228 36.4698 40.8003C35.5392 41.4778 34.3974 41.8465 33.0572 41.9178L32.4754 41.9488L32.8574 41.5089C33.5723 40.6858 33.9906 39.7308 34.1143 38.6374C34.1701 36.5125 34.1705 34.3874 34.1156 32.2625C34.0465 32.1442 33.9718 32.0816 33.8988 32.0503C33.8182 32.0158 33.7068 32.0054 33.5477 32.0489C33.4475 32.0897 33.3788 32.1531 33.3336 32.2473C33.3283 34.5032 33.2716 36.7562 33.1635 39.0062L33.1618 39.042L33.15 39.0757C32.6749 40.4392 31.9496 41.4302 30.9578 42.0132C29.9662 42.5961 28.7425 42.7509 27.3099 42.5096L27.2902 42.5062L27.2712 42.4998C25.472 41.887 24.3487 40.6441 23.9236 38.7948L23.9176 38.7688L23.9173 38.7421C23.8606 33.4721 23.8606 28.2021 23.9173 22.932L23.9177 22.9007L23.9258 22.8705C24.3177 21.4123 25.2462 20.4675 26.6894 20.0626L26.7207 20.0538L26.7533 20.0534ZM18.7407 20.6706C18.0941 20.9139 17.5973 21.2625 17.2386 21.7108C16.8811 22.1576 16.6506 22.7162 16.5548 23.3968C17.3816 28.0061 18.1581 32.6234 18.8843 37.2487C19.1055 38.2325 19.5473 39.0917 20.2109 39.8307L20.541 40.0783L20.5497 40.0862C21.4113 40.871 22.4027 41.3094 23.5321 41.4043C23.0323 40.6672 22.7083 39.8481 22.561 38.9494L22.558 38.9308L22.5578 38.912C22.5011 33.5004 22.5011 28.0888 22.5578 22.6772L22.558 22.6503L22.5641 22.6241C22.6411 22.2909 22.7435 21.9681 22.8717 21.6561C22.9119 21.5455 22.971 21.4466 23.0495 21.3623C23.1024 21.1687 23.1874 20.9924 23.3036 20.8347C23.0684 20.7213 22.8212 20.6394 22.5616 20.5888C21.2834 20.512 20.0098 20.5393 18.7407 20.6706ZM23.2886 21.9449C23.1926 22.1921 23.1137 22.447 23.0518 22.7095C22.9955 28.1023 22.9956 33.495 23.0519 38.8878C23.2161 39.8705 23.6082 40.7451 24.2295 41.5159L24.5518 41.9158L24.0382 41.9182C22.6424 41.9248 21.4159 41.4796 20.3693 40.5862C20.235 40.6171 20.1248 40.5534 20.0664 40.5103L20.0516 40.4993L19.6501 40.0978L19.7048 40.002C19.0586 39.2333 18.6234 38.3479 18.4001 37.3489L18.3983 37.3411L18.3971 37.3333C17.6691 32.696 16.8905 28.0668 16.0613 23.4457L16.0545 23.4078L16.0595 23.3695C16.1619 22.5977 16.4234 21.9383 16.8525 21.402C17.2816 20.8657 17.8676 20.4656 18.5982 20.1961L18.6273 20.1854L18.658 20.1822C19.9699 20.0446 21.2864 20.016 22.6075 20.0963L22.6232 20.0973L22.6386 20.1002C23.0617 20.1804 23.4578 20.3327 23.8257 20.5568L24.1094 20.7296L23.8624 20.9517C23.7229 21.0772 23.6226 21.2224 23.5596 21.39C23.564 21.3967 23.5681 21.4034 23.5719 21.41L23.6316 21.5145L23.5861 21.626C23.5265 21.7722 23.4253 21.8833 23.2886 21.9449ZM20.1581 40.1707L20.173 40.1792C20.1718 40.1812 20.1704 40.1835 20.1688 40.1859L20.1528 40.1797C20.1538 40.1778 20.1555 40.1746 20.1581 40.1707Z" fill="#848D6F"/>
</svg>
