<svg width="44" height="44" viewBox="0 0 44 44" fill="none" xmlns="http://www.w3.org/2000/svg">
<g id="ham">
<g id="Vector">
<path fill-rule="evenodd" clip-rule="evenodd" d="M20.0456 0.247191H17.5815C16.4623 0.444843 15.3577 0.742245 14.2676 1.1394C10.0063 2.96637 6.50832 5.75628 3.77353 9.50913C1.96272 11.926 0.787276 14.6167 0.247191 17.5815V20.0456C0.411491 20.948 0.737216 21.7978 1.22437 22.5948C4.68801 26.5124 8.78083 29.5855 13.5028 31.8143C16.5888 33.2408 19.8319 33.9913 23.2321 34.066C25.0598 33.9989 26.8867 34.0414 28.7128 34.1935C29.5989 34.3283 30.4486 34.5832 31.2619 34.9582L33.4712 37.1675C32.9554 37.7033 32.6296 38.3406 32.494 39.0794C32.2633 41.4939 33.2971 43.0517 35.5955 43.7528H37.21C38.9666 43.2562 40.0429 42.1091 40.4389 40.3114C42.1937 39.9582 43.2984 38.9244 43.7528 37.21V35.5955C43.6246 35.1983 43.4688 34.8018 43.2855 34.4059C42.9008 33.7233 42.3485 33.2418 41.6285 32.9614C41.0364 33.1259 40.8523 33.4942 41.0762 34.066C41.7067 34.4769 42.1315 35.0434 42.3508 35.7654C42.5675 37.1307 42.0717 38.1362 40.8638 38.782C40.3292 38.923 39.791 39.0363 39.2493 39.1218C39.1472 39.1986 39.0764 39.2976 39.0369 39.4192C39.0585 40.2119 38.8319 40.92 38.3571 41.5435C37.015 42.7613 35.6838 42.733 34.3634 41.4586C33.4758 40.0155 33.6741 38.7409 34.9582 37.6348C35.1819 37.3656 35.2103 37.0823 35.0432 36.7851C34.1621 35.9182 33.2983 35.0402 32.4515 34.151C32.4143 34.1565 32.3859 34.1424 32.3666 34.1085C32.9499 33.4804 33.5447 32.9281 34.151 32.4515C35.0402 33.2983 35.9182 34.1621 36.7851 35.0432L37.1675 35.1706C37.62 34.9743 38.0023 34.6769 38.3146 34.2784L39.3343 33.7686C39.591 33.3542 39.5343 32.986 39.1643 32.664C38.3642 32.6249 37.6845 32.8939 37.125 33.4712C37.1305 33.5084 37.1164 33.5368 37.0825 33.5562C36.4513 32.968 35.8707 32.3448 35.3406 31.6868C35.2307 31.5342 35.1033 31.3925 34.9582 31.2619C34.5832 30.4486 34.3283 29.5989 34.1935 28.7128C34.0957 27.5109 34.0248 26.3071 33.981 25.1015C34.1811 22.3141 33.8837 19.5809 33.0888 16.9017C30.9765 10.7407 27.4786 5.51497 22.5948 1.22437C21.7978 0.737216 20.948 0.411491 20.0456 0.247191ZM22 2.49895C20.6719 1.67529 19.2274 1.37789 17.6664 1.60674C16.476 1.82861 15.3147 2.18266 14.1826 2.66889C10.7151 4.32577 7.78362 6.6625 5.38799 9.67907C3.49072 12.0248 2.24446 14.6872 1.64923 17.6664C1.28166 21.9156 3.22185 23.8842 7.4698 23.572C9.3453 23.2857 11.1014 22.6625 12.7381 21.7026C17.0685 19.128 20.3399 15.5733 22.5523 11.0386C23.208 9.56334 23.562 8.01967 23.6145 6.40765C23.7079 4.8392 23.1698 3.5363 22 2.49895ZM26.1636 6.95997C26.0308 6.8372 25.9175 6.69558 25.8237 6.53511C25.5432 6.23989 25.2741 5.92833 25.0165 5.60042C25.0639 7.3553 24.7807 9.0547 24.1668 10.6987C21.6045 16.7448 17.3418 21.1493 11.3785 23.9119C9.53394 24.7057 7.60788 25.0739 5.60042 25.0165C7.40782 26.569 9.33383 27.9569 11.3785 29.1801C14.2953 30.9266 17.4393 32.0313 20.8104 32.494C23.4745 32.5682 26.1369 32.6815 28.7978 32.8339C29.66 32.9008 30.4815 33.1132 31.2619 33.4712L33.4712 31.177C33.1153 30.4624 32.9028 29.6976 32.8339 28.8827C32.7461 26.3621 32.6612 23.8413 32.579 21.3202C32.4155 19.9078 32.1322 18.52 31.7293 17.1566C30.4669 13.4122 28.6116 10.0134 26.1636 6.95997Z" fill="#848D6F"/>
<path fill-rule="evenodd" clip-rule="evenodd" d="M22.2974 7.80969C22.4637 4.33634 20.8067 2.69355 17.3265 2.88132C16.4102 3.03976 15.5039 3.28051 14.6074 3.60358C11.1883 5.12427 8.34177 7.37603 6.06777 10.3588C5.76431 11.2432 6.06171 11.5971 6.95997 11.421C9.11792 8.63945 11.7804 6.48683 14.9473 4.96313C16.2795 4.3492 17.6674 4.15093 19.111 4.36833C20.0113 4.67385 20.5919 5.28282 20.8529 6.19522C21.0447 7.67276 20.8181 9.08894 20.1731 10.4438C18.2955 14.219 15.5622 17.2072 11.9733 19.4084C10.4884 20.2904 8.88815 20.8144 7.1724 20.9803C6.16921 21.0052 5.34782 20.637 4.70822 19.8757C4.18894 18.7808 4.10396 17.6477 4.4533 16.4768C4.78161 15.3815 5.1923 14.3193 5.68539 13.2904C5.55861 12.745 5.21873 12.5468 4.66573 12.6956C3.55431 14.3163 2.9595 16.1148 2.88132 18.0913C2.97459 20.8612 4.40496 22.2774 7.1724 22.3399C8.64686 22.2722 10.0489 21.9182 11.3785 21.2777C14.6832 19.6164 17.4164 17.2796 19.5783 14.2676C21.0135 12.3421 21.9199 10.1895 22.2974 7.80969Z" fill="#848D6F"/>
<path fill-rule="evenodd" clip-rule="evenodd" d="M16.9017 6.02528C18.5121 5.95037 19.2343 6.71512 19.0685 8.31952C18.4828 10.5197 17.109 11.9784 14.9473 12.6956C13.0503 12.7798 12.3281 11.8876 12.7805 10.019C13.5077 8.0029 14.8813 6.67167 16.9017 6.02528ZM17.0716 7.38483C15.5587 7.97754 14.5531 9.05385 14.0551 10.6138C13.8848 11.2077 14.0972 11.4485 14.6924 11.336C16.3095 10.7387 17.3292 9.60574 17.7514 7.93715C17.7087 7.53278 17.482 7.34867 17.0716 7.38483Z" fill="#848D6F"/>
<path fill-rule="evenodd" clip-rule="evenodd" d="M25.8237 6.53511C26.0359 6.58859 26.1492 6.73021 26.1636 6.95997C26.0308 6.8372 25.9175 6.69558 25.8237 6.53511Z" fill="#848D6F"/>
<path fill-rule="evenodd" clip-rule="evenodd" d="M35.3406 31.6868C35.9637 32.2533 36.5585 32.8481 37.125 33.4712C37.1305 33.5084 37.1164 33.5368 37.0825 33.5562C36.4513 32.968 35.8707 32.3448 35.3406 31.6868Z" fill="#848D6F"/>
<path fill-rule="evenodd" clip-rule="evenodd" d="M33.4712 31.177C33.5583 31.2107 33.5725 31.2673 33.5137 31.3469C32.7746 32.1304 32.024 32.8384 31.2619 33.4712C31.9984 32.7065 32.7348 31.9417 33.4712 31.177Z" fill="#848D6F"/>
<path fill-rule="evenodd" clip-rule="evenodd" d="M34.151 32.4515C33.6129 33.0463 33.0463 33.6129 32.4515 34.151C32.4143 34.1565 32.3859 34.1424 32.3666 34.1085C32.9499 33.4804 33.5447 32.9281 34.151 32.4515Z" fill="#848D6F"/>
<path fill-rule="evenodd" clip-rule="evenodd" d="M17.5598 0H20.068L20.0899 0.00399798C21.0228 0.173854 21.9012 0.510719 22.7237 1.01345L22.7419 1.02458L22.758 1.03866C27.6741 5.35775 31.1964 10.6199 33.3227 16.8215L33.326 16.8313C34.1281 19.5347 34.4289 22.2934 34.2286 25.1058C34.2721 26.3003 34.3424 27.4931 34.4391 28.6841C34.5683 29.5279 34.8093 30.3375 35.1621 31.1135C35.2975 31.2396 35.4188 31.3754 35.5256 31.521C36.0854 32.0308 36.6224 32.5633 37.1368 33.1185C37.7092 32.6144 38.3933 32.3788 39.1764 32.4171L39.262 32.4213L39.3266 32.4775C39.5415 32.6646 39.6889 32.886 39.7286 33.1441C39.7684 33.4023 39.694 33.6572 39.5444 33.8988L39.5075 33.9584L38.4739 34.4752C38.1434 34.8831 37.7401 35.1916 37.2659 35.3974L37.1791 35.4351L36.6506 35.2589L36.6089 35.2166C35.8032 34.3977 34.988 33.5938 34.163 32.8047C33.7282 33.2754 33.2754 33.7282 32.8047 34.163C33.5938 34.988 34.3977 35.8032 35.2166 36.6089L35.2415 36.6334L35.2587 36.664C35.3621 36.8479 35.4134 37.0436 35.3932 37.2451C35.3731 37.446 35.2844 37.6291 35.1483 37.7928L35.1352 37.8087L35.1195 37.8221C34.5078 38.349 34.1783 38.8952 34.0907 39.4583C34.0042 40.0141 34.1474 40.6256 34.5577 41.3024C35.182 41.8979 35.7812 42.1762 36.3574 42.1885C36.9347 42.2008 37.5388 41.947 38.1741 41.3758C38.605 40.8022 38.8097 40.1553 38.7898 39.426L38.7886 39.3834L38.8018 39.3428C38.857 39.1728 38.9582 39.0315 39.1007 38.9243L39.1499 38.8873L39.2107 38.8777C39.7346 38.7949 40.2552 38.6859 40.7724 38.5504C41.3273 38.2487 41.7027 37.8745 41.9198 37.4342C42.1383 36.9909 42.2076 36.4577 42.1093 35.8211C41.9055 35.1622 41.5181 34.6491 40.9412 34.2731L40.8749 34.2299L40.846 34.1561C40.7212 33.8373 40.6892 33.5225 40.8253 33.2504C40.9613 32.9783 41.2323 32.8149 41.5623 32.7232L41.6416 32.7012L41.7182 32.731C42.4922 33.0325 43.0885 33.553 43.5008 34.2845L43.5056 34.2931L43.5098 34.302C43.6972 34.7066 43.8566 35.1124 43.9881 35.5196L44 35.5566V37.2422L43.9918 37.2733C43.7547 38.1675 43.3441 38.8979 42.7524 39.4517C42.1949 39.9734 41.4886 40.3272 40.644 40.5202C40.4306 41.3861 40.0563 42.1122 39.5149 42.6892C38.9414 43.3004 38.1917 43.7322 37.2772 43.9907L37.2442 44H35.5586L35.5234 43.9892C34.3353 43.6268 33.4471 43.0342 32.8904 42.1953C32.3339 41.3567 32.1288 40.3026 32.248 39.0558L32.249 39.0452L32.2509 39.0347C32.3804 38.3296 32.6739 37.7085 33.1299 37.1758L31.1186 35.1644C30.3409 34.8103 29.5296 34.5686 28.6838 34.4391C26.8704 34.2884 25.0562 34.2464 23.2412 34.313L23.2339 34.3133L23.2267 34.3131C19.7925 34.2377 16.516 33.4794 13.3991 32.0386L13.3973 32.0378C8.64493 29.7947 4.52501 26.7013 1.03918 22.7585L1.02478 22.7423L1.01345 22.7237C0.510719 21.9012 0.173854 21.0228 0.00399798 20.0899L0 20.068V17.5591L0.00400223 17.5372C0.550868 14.5352 1.74155 11.8093 3.5747 9.36225C6.33548 5.5742 9.86848 2.7565 14.1702 0.912206L14.1828 0.906779C15.2862 0.504803 16.4048 0.203974 17.5385 0.00376705L17.5598 0ZM33.8175 37.1642L33.6493 37.3389C33.1699 37.8369 32.8672 38.4265 32.7391 39.1136C32.6297 40.2764 32.8265 41.2049 33.3023 41.9219C33.7744 42.6333 34.541 43.1664 35.6327 43.5056H37.1753C38.002 43.2668 38.6581 42.8798 39.1544 42.3509C39.6573 41.8149 40.0074 41.1211 40.1975 40.2583L40.2322 40.1009L40.3901 40.0691C41.2309 39.8999 41.9015 39.5709 42.4146 39.0907C42.9211 38.6166 43.2872 37.983 43.5056 37.1774V35.6347C43.3839 35.2626 43.2372 34.8907 43.0653 34.5187C42.7226 33.9146 42.2418 33.4851 41.6171 33.2234C41.4089 33.2938 41.3105 33.3854 41.2675 33.4715C41.224 33.5583 41.21 33.6935 41.2807 33.9054C41.922 34.3443 42.3594 34.9429 42.5873 35.6936L42.5922 35.7099L42.5949 35.7267C42.7094 36.4479 42.6385 37.0945 42.3632 37.6528C42.0879 38.2113 41.6196 38.6582 40.9803 38.9999L40.9548 39.0136L40.9268 39.021C40.4069 39.1581 39.8835 39.2695 39.3568 39.355C39.3261 39.3857 39.3025 39.4206 39.285 39.461C39.2977 40.2899 39.0535 41.0371 38.5538 41.6933L38.54 41.7114L38.5232 41.7266C37.8225 42.3624 37.0956 42.6987 36.3468 42.6827C35.5988 42.6668 34.8796 42.3004 34.1917 41.6364L34.1692 41.6147L34.1529 41.5881C33.6881 40.8324 33.4915 40.0938 33.6022 39.3823C33.7119 38.6768 34.1177 38.0374 34.7802 37.462C34.8592 37.3626 34.8935 37.2743 34.9013 37.1959C34.9088 37.1212 34.8943 37.0357 34.8431 36.9351C33.9893 36.0944 33.1516 35.2433 32.3299 34.3817C32.3173 34.3773 32.3046 34.372 32.292 34.3657C32.225 34.3322 32.1803 34.2807 32.152 34.2311L32.0618 34.0734L32.1854 33.9403C32.7766 33.3038 33.3808 32.7425 33.9982 32.2572L34.1665 32.125L34.3214 32.2725C35.1984 33.1076 36.0644 33.9592 36.9196 34.8275L37.1537 34.9055C37.5307 34.7265 37.8523 34.4676 38.1201 34.126L38.1543 34.0822L39.1578 33.5805C39.2365 33.4347 39.255 33.3166 39.24 33.2192C39.2255 33.1249 39.175 33.0206 39.0635 32.9079C38.3992 32.896 37.835 33.1207 37.3572 33.5882C37.3526 33.6024 37.3468 33.6166 37.3397 33.6308C37.3063 33.6978 37.2547 33.7425 37.2052 33.7708L37.0471 33.8611L36.914 33.737C36.2744 33.141 35.6857 32.5092 35.1481 31.8419L35.1397 31.8314C35.0405 31.6936 34.9252 31.5649 34.7928 31.4456L34.755 31.4116L34.7337 31.3654C34.349 30.531 34.0874 29.659 33.9491 28.75L33.9478 28.7414L33.9471 28.7328C33.849 27.5272 33.7779 26.3197 33.734 25.1104L33.7335 25.0971L33.7345 25.0838C33.9323 22.3278 33.6387 19.626 32.8533 16.977C30.7571 10.8656 27.2894 5.68257 22.4478 1.42425C21.6879 0.962709 20.8801 0.653116 20.0231 0.494382H17.6032C16.508 0.689091 15.4265 0.980666 14.3586 1.3693C10.1412 3.17878 6.68062 5.93956 3.9733 9.65471L3.97137 9.65736C2.18794 12.0377 1.02937 14.6855 0.494382 17.6039V20.0231C0.653093 20.88 0.962619 21.6877 1.42405 22.4475C4.86218 26.3319 8.92274 29.379 13.6073 31.5902C16.66 33.0012 19.867 33.7439 23.2303 33.8187C25.0655 33.7516 26.8999 33.7944 28.7333 33.9471L28.7417 33.9478L28.75 33.9491C29.659 34.0874 30.531 34.349 31.3654 34.7337L31.4055 34.7522L33.8175 37.1642ZM17.707 1.85063C16.538 2.06885 15.3973 2.41657 14.2847 2.89407C10.8532 4.53459 7.95286 6.84687 5.58157 9.8328L5.58019 9.83453C3.71111 12.1454 2.48285 14.7666 1.89433 17.7014C1.71627 19.7859 2.10971 21.2481 3.00475 22.1562C3.90027 23.0648 5.35629 23.4778 7.44206 23.3262C9.28278 23.044 11.0058 22.432 12.6125 21.4897C16.8998 18.9406 20.1371 15.4235 22.3282 10.9342C22.9698 9.48924 23.316 7.97827 23.3674 6.39961L23.3676 6.39294C23.4562 4.90683 22.9535 3.68225 21.8517 2.6979C20.58 1.91458 19.2019 1.63246 17.707 1.85063ZM17.6306 1.36217C19.2486 1.12494 20.7521 1.43415 22.1303 2.28887L22.1482 2.3L22.164 2.314C23.3901 3.40123 23.9584 4.77675 23.8614 6.41899C23.8075 8.0617 23.4463 9.63562 22.7782 11.139L22.7746 11.1471C20.5411 15.725 17.2363 19.3159 12.8644 21.9151L12.8631 21.9158C11.1995 22.8916 9.41357 23.5253 7.5071 23.8163L7.49755 23.8178L7.48792 23.8185C5.33089 23.977 3.69594 23.5618 2.65264 22.5032C1.60943 21.4448 1.21633 19.8026 1.40296 17.6451L1.40414 17.6315L1.40683 17.618C2.00976 14.6003 3.27288 11.9014 5.19506 9.52454C7.61387 6.47902 10.5749 4.11882 14.076 2.44585L14.085 2.44158C15.2335 1.94827 16.4124 1.58901 17.6211 1.36373L17.6306 1.36217ZM17.3543 3.12738C16.4603 3.28284 15.5755 3.518 14.6997 3.83309C11.3346 5.33133 8.53203 7.54492 6.28906 10.4764C6.22693 10.6656 6.20056 10.8131 6.20002 10.9239C6.19945 11.0401 6.22695 11.0982 6.25249 11.1286C6.27736 11.1582 6.32681 11.1931 6.43531 11.2092C6.53004 11.2233 6.65767 11.2209 6.82318 11.1944C8.99413 8.41893 11.6673 6.26696 14.8402 4.74038L14.8439 4.7386C16.2196 4.10459 17.6563 3.89927 19.1478 4.12389L19.1695 4.12717L19.1904 4.13425C20.1674 4.46578 20.8072 5.13671 21.0905 6.12725L21.0956 6.14504L21.098 6.16339C21.2961 7.68847 21.0616 9.15257 20.3963 10.5501L20.3945 10.5539C18.4962 14.3705 15.731 17.3936 12.1026 19.6191L12.0996 19.6209C10.5835 20.5215 8.94822 21.0569 7.1962 21.2264L7.18739 21.2272L7.17853 21.2275C6.101 21.2542 5.20742 20.8541 4.51896 20.0347L4.4985 20.0104L4.48487 19.9816C3.93918 18.831 3.84979 17.635 4.21643 16.4062C4.53966 15.3277 4.94199 14.2807 5.42321 13.2659C5.36828 13.0849 5.28983 12.9923 5.21084 12.9462C5.13095 12.8996 5.00781 12.8756 4.81623 12.9139C3.76733 14.473 3.2052 16.1972 3.12868 18.092C3.17535 19.4333 3.5437 20.4074 4.19797 21.0552C4.85229 21.7031 5.82933 22.0609 7.16956 22.0926C8.60692 22.0255 9.97284 21.6801 11.2694 21.0559C14.5374 19.4126 17.2392 17.1026 19.3775 14.1234L19.3801 14.1198C20.7886 12.2301 21.6786 10.1195 22.0511 7.78437C22.13 6.09027 21.7619 4.89822 21.0054 4.14813C20.2488 3.39803 19.0517 3.0382 17.3543 3.12738ZM21.3534 3.79705C22.2518 4.68775 22.6291 6.04943 22.5443 7.82151L22.5437 7.83504L22.5415 7.84842C22.1579 10.2669 21.2362 12.4563 19.7778 14.4135C17.5929 17.4571 14.8293 19.8196 11.4895 21.4986L11.4858 21.5005C10.1261 22.1554 8.69147 22.5177 7.18373 22.5868L7.17528 22.5872L7.16682 22.587C5.74394 22.5549 4.6248 22.1735 3.85013 21.4065C3.07551 20.6396 2.68222 19.5236 2.63427 18.0996L2.63396 18.0906L2.63432 18.0815C2.71433 16.0589 3.32392 14.2152 4.46187 12.5558L4.51344 12.4806L4.60151 12.4569C4.91268 12.3732 5.21135 12.3742 5.45994 12.5192C5.7099 12.665 5.854 12.924 5.92616 13.2344L5.94582 13.3189L5.90831 13.3972C5.42082 14.4144 5.01479 15.4645 4.69017 16.5475C4.36122 17.6501 4.43723 18.7106 4.91795 19.7408C5.50363 20.4253 6.2434 20.7539 7.15753 20.7334C8.83307 20.5701 10.3949 20.0582 11.8456 19.1967C15.3935 17.0202 18.0941 14.0679 19.9508 10.3356C20.5722 9.02963 20.7914 7.66817 20.6101 6.2456C20.3713 5.42819 19.8582 4.8891 19.0521 4.60948C17.6652 4.4047 16.3339 4.59672 15.0526 5.18677C11.9211 6.69379 9.28938 8.82171 7.15528 11.5725L7.09848 11.6457L7.00754 11.6636C6.76806 11.7105 6.55037 11.7261 6.36256 11.6982C6.17215 11.6699 5.99778 11.594 5.87395 11.4466C5.75079 11.3 5.7047 11.1148 5.70564 10.9214C5.70658 10.7297 5.75335 10.5135 5.83396 10.2786L5.84694 10.2408L5.87119 10.209C8.17028 7.19325 11.0499 4.91532 14.507 3.37772L14.5152 3.37407L14.5236 3.37103C15.4333 3.0432 16.3535 2.7987 17.2844 2.63774L17.2987 2.63527L17.3132 2.63449C19.0884 2.53871 20.4552 2.90648 21.3534 3.79705ZM24.7492 4.86013L25.2109 5.4477C25.4502 5.75227 25.6993 6.04227 25.9584 6.31773C26.0758 6.35906 26.1806 6.42665 26.2609 6.52702C26.3392 6.62501 26.3829 6.74002 26.4015 6.86161C28.8455 9.92329 30.6997 13.3291 31.9635 17.0776L31.9665 17.0865C32.3735 18.4635 32.6594 19.8653 32.8246 21.2918L32.8257 21.302L32.8261 21.3122C32.9082 23.831 32.993 26.3495 33.0807 28.8679C33.1454 29.6247 33.3385 30.3349 33.6597 30.9999C33.7133 31.0388 33.7651 31.0975 33.787 31.1847C33.8213 31.3219 33.7563 31.4345 33.7125 31.4938L33.7037 31.5057L33.6935 31.5165C32.9481 32.3066 32.1902 33.0217 31.4199 33.6614L31.3002 33.7607L31.1589 33.6959C30.4058 33.3505 29.6137 33.1454 28.7811 33.0806C26.1236 32.9283 23.4644 32.8152 20.8035 32.7411L20.7901 32.7407L20.7768 32.7389C17.3727 32.2716 14.197 31.1559 11.2515 29.3922C9.19481 28.1617 7.2574 26.7657 5.43935 25.204L4.91021 24.7495L5.60748 24.7694C7.57786 24.8257 9.46713 24.4648 11.2777 23.6861C17.1822 20.95 21.399 16.5932 23.9371 10.6072C24.5386 8.99455 24.8159 7.32844 24.7694 5.6071L24.7492 4.86013ZM33.1739 31.1293C32.8494 30.4316 32.654 29.6892 32.5876 28.9036L32.5866 28.8913C32.4989 26.374 32.4143 23.8564 32.3323 21.3385C32.1704 19.9453 31.8908 18.5762 31.4936 17.2312C30.2422 13.5214 28.4051 10.1543 25.9819 7.12849C25.8437 6.99833 25.7248 6.85027 25.6253 6.68512C25.5031 6.556 25.3831 6.42387 25.2653 6.28872C25.2311 7.83013 24.942 9.32931 24.3984 10.7852L24.3946 10.7953C21.8084 16.8979 17.5014 21.3478 11.4824 24.1362L11.4763 24.139C9.8098 24.8562 8.07697 25.2321 6.27968 25.2668C7.92513 26.6345 9.66699 27.8681 11.5054 28.968C14.3898 30.6951 17.4976 31.788 20.8307 32.2473C23.4928 32.3216 26.1531 32.4348 28.8119 32.5871L28.8169 32.5874C29.649 32.652 30.4451 32.8479 31.2041 33.1749L33.1739 31.1293ZM16.9457 6.27081C15.0207 6.89578 13.7164 8.16296 13.0177 10.0902C12.8015 10.992 12.8887 11.5804 13.175 11.934C13.4581 12.2837 14.0014 12.4845 14.9022 12.45C16.9597 11.7575 18.2605 10.3728 18.8245 8.27483C18.8997 7.51673 18.7593 7.0172 18.4715 6.71238C18.1853 6.40937 17.6989 6.2411 16.9457 6.27081ZM18.8309 6.37293C19.2628 6.83029 19.4007 7.50946 19.3144 8.34494L19.3123 8.3643L19.3073 8.38311C18.7002 10.6638 17.2659 12.1868 15.0252 12.9302L14.9926 12.941L14.9583 12.9425C13.9825 12.9858 13.2264 12.7832 12.7908 12.2451C12.3561 11.7082 12.308 10.9202 12.5403 9.96078L12.5435 9.94773L12.548 9.9351C13.3008 7.84773 14.732 6.4599 16.8264 5.78985L16.8575 5.77988L16.8902 5.77836C17.7289 5.73934 18.3989 5.91554 18.8309 6.37293ZM17.1272 7.62868C15.7047 8.19623 14.7639 9.20961 14.2917 10.6854C14.2107 10.9698 14.2575 11.0598 14.272 11.0763C14.2837 11.0895 14.3571 11.1445 14.6266 11.0968C16.1414 10.5312 17.0931 9.47936 17.5002 7.92144C17.4795 7.78682 17.4348 7.72122 17.3935 7.68764C17.3507 7.65286 17.2729 7.62104 17.1272 7.62868ZM17.7053 7.30394C17.8865 7.45117 17.9717 7.66991 17.9972 7.91117L18.0019 7.95503L17.991 7.99779C17.5488 9.7455 16.4714 10.9424 14.7781 11.5679L14.7587 11.5751L14.7383 11.5789C14.4289 11.6374 14.1018 11.6306 13.9013 11.4034C13.7035 11.1792 13.7295 10.8524 13.8175 10.5456L13.8195 10.5386C14.34 8.90837 15.3986 7.77478 16.9815 7.15467L17.0145 7.14171L17.0499 7.13859C17.2926 7.11721 17.5247 7.15722 17.7053 7.30394Z" fill="#848D6F"/>
</g>
</g>
</svg>
