<svg width="44" height="44" viewBox="0 0 44 44" fill="none" xmlns="http://www.w3.org/2000/svg">
<g id="tomato">
<g id="Vector">
<path fill-rule="evenodd" clip-rule="evenodd" d="M43.7528 26.8296V23.8555C43.5246 22.6768 43.0856 21.5722 42.4357 20.5416C40.2049 17.6305 37.2734 16.5542 33.6412 17.3127C32.5122 17.153 31.3793 17.0113 30.2423 16.8878C29.7708 16.9166 29.3034 16.9732 28.8402 17.0578C28.3455 16.6198 27.8499 16.1809 27.3532 15.7407C27.6122 15.6892 27.8247 15.5618 27.9905 15.3583C28.3658 14.6444 28.2101 14.0921 27.5232 13.7014C25.1714 13.8363 23.0754 13.1848 21.2353 11.747C19.7953 10.8751 18.2375 10.4078 16.5618 10.345C16.5791 8.65194 16.395 6.98083 16.0095 5.33166C15.8715 4.57035 15.4183 4.17382 14.6499 4.14205C13.8492 4.31042 13.0702 4.55117 12.3132 4.86432C11.9696 5.16919 11.7713 5.55157 11.7184 6.01144C12.122 6.96108 12.5044 7.9241 12.8655 8.90048C13.0105 9.40224 13.1096 9.91207 13.1629 10.43C12.8501 10.416 12.5385 10.4301 12.2282 10.4725C11.2968 10.7541 10.447 11.1931 9.67907 11.7895C9.56207 11.9415 9.47709 12.1115 9.42416 12.2994C9.63778 13.0062 10.0626 13.162 10.6987 12.7667C11.4316 12.1309 12.2813 11.8052 13.2479 11.7895C13.2543 12.1377 13.3959 12.4067 13.6728 12.5968C14.054 12.7139 14.3514 12.6148 14.565 12.2994C14.6881 10.0728 14.2207 7.97676 13.1629 6.01144C13.6344 5.84956 14.1018 5.67962 14.565 5.5016C14.7313 5.90701 14.8446 6.33187 14.9048 6.77618C15.1897 8.58035 15.2746 10.3931 15.1598 12.2144C15.2305 12.3985 15.358 12.526 15.5421 12.5968C16.2228 12.6952 16.5344 12.3978 16.4768 11.7046C16.9346 11.6965 17.3877 11.739 17.8364 11.832C19.4506 12.2992 20.9234 13.0356 22.2549 14.0413C22.5879 14.1995 22.9278 14.3411 23.2746 14.4661C22.4325 14.4186 21.6111 14.2487 20.8104 13.9563C20.1024 13.4605 19.366 13.0073 18.6011 12.5968C17.8604 12.5161 17.563 12.8418 17.7089 13.5739C18.4095 14.0731 19.1318 14.5404 19.8757 14.976C20.7371 15.6636 21.3602 16.5276 21.7451 17.5676L21.6176 17.6526C21.0629 17.1262 20.4823 16.6305 19.8757 16.1656L16.8167 14.6361C16.2583 14.3045 15.7484 13.908 15.2872 13.4465C14.8562 13.1818 14.4738 13.2527 14.1401 13.6589C13.1679 15.414 12.5165 17.2834 12.1857 19.2671C11.6906 17.8194 11.6906 16.3749 12.1857 14.9335C12.5312 14.3762 12.8569 13.8098 13.1629 13.234C12.8299 12.4453 12.3626 12.3603 11.7609 12.9791C11.5244 13.3573 11.2553 13.7113 10.9537 14.0413C9.28361 15.1966 7.44252 15.6498 5.43048 15.4008C6.38277 15.2252 7.27497 14.8994 8.10709 14.4237C8.38194 13.6509 8.11286 13.2968 7.29986 13.3615C5.90744 13.9291 4.46292 14.2973 2.96629 14.4661C2.81453 14.5328 2.68707 14.6319 2.58392 14.7635C2.2461 15.3499 2.31691 15.874 2.79635 16.3355C1.41598 17.7226 0.566258 19.3796 0.247191 21.3064V24.4503C0.458839 26.4268 0.926185 28.3528 1.64923 30.2284C3.95991 35.7672 8.10937 38.7554 14.0976 39.193C14.6119 38.8341 14.6402 38.4376 14.1826 38.0034C11.1877 37.7236 8.55359 36.619 6.2802 34.6895C3.50801 31.82 1.96435 28.3787 1.64923 24.3654C1.16067 21.2977 2.08121 18.7627 4.41081 16.7604C6.49357 17.047 8.50457 16.7779 10.4438 15.9531C10.356 17.7756 10.6817 19.5317 11.421 21.2214C11.5521 21.381 11.7079 21.5084 11.8883 21.6038C12.4835 21.7793 12.9508 21.6236 13.2904 21.1364C13.484 19.9699 13.7107 18.8085 13.9702 17.6526C14.1939 16.7259 14.5338 15.8479 14.9898 15.0185C15.4771 15.4251 16.0011 15.7791 16.5618 16.0806C17.3962 16.4553 18.2176 16.8519 19.026 17.2702C19.5011 17.5749 19.9259 17.9432 20.3006 18.3748C20.031 18.5237 19.7761 18.6937 19.5358 18.8847C17.2683 20.9848 16.3478 23.5765 16.7742 26.6596C17.0793 30.6534 18.6513 34.0381 21.4902 36.8137C20.7631 37.1694 19.9983 37.4244 19.1959 37.5785C18.3205 37.748 17.4425 37.8897 16.5618 38.0034C16.484 38.0351 16.4131 38.0776 16.3494 38.1308C16.13 38.552 16.2008 38.906 16.5618 39.193C18.7395 39.219 20.8072 38.7517 22.7647 37.7909C25.483 39.4253 28.4287 40.0909 31.6018 39.7878C35.2131 39.6176 38.2013 38.1872 40.5664 35.4967C42.4609 32.9147 43.523 30.0257 43.7528 26.8296ZM22.5523 15.7832C22.4873 15.7892 22.4448 15.8174 22.4249 15.8682C22.7138 16.2766 22.9121 16.7298 23.0197 17.2277C23.4998 17.1866 23.9813 17.1582 24.4642 17.1428C25.3136 17.2218 26.1633 17.2643 27.0133 17.2702C26.5205 16.8115 25.9824 16.4149 25.3989 16.0806C24.442 16.0477 23.4931 15.9486 22.5523 15.7832ZM32.6215 18.6298C31.7026 18.3839 30.7679 18.2565 29.8174 18.2474C29.1752 18.3577 28.5237 18.4851 27.8631 18.6298C26.7399 18.6921 25.6212 18.6496 24.5067 18.5023C22.959 18.5271 21.5853 19.0228 20.3855 19.9893C18.3161 21.9903 17.5939 24.412 18.2188 27.2544C18.6436 30.8665 20.2156 33.8546 22.9347 36.2189C25.788 38.1608 28.932 38.8689 32.3666 38.3432C35.538 37.969 38.073 36.5103 39.9716 33.9672C41.8443 30.9228 42.6373 27.6089 42.3508 24.0255C41.7032 20.9703 39.8479 19.1434 36.7851 18.5448C35.3998 18.6197 34.0119 18.6479 32.6215 18.6298Z" fill="#848D6F"/>
<path fill-rule="evenodd" clip-rule="evenodd" d="M24.3792 20.5416C26.0118 20.3309 27.3855 20.8124 28.5004 21.9862C28.7911 22.3978 28.9894 22.851 29.0952 23.3457C29.0456 25.1578 29.0173 26.9705 29.0102 28.7839C29.0738 30.1075 29.2721 31.4105 29.605 32.6926C29.8378 34.452 29.1155 35.5991 27.4382 36.134C26.4499 36.3189 25.5719 36.0923 24.8041 35.4542C22.7118 33.5796 21.4231 31.2428 20.9379 28.444C20.6521 26.9498 20.5954 25.4486 20.7679 23.9405C21.3043 22.0868 22.508 20.9538 24.3792 20.5416ZM24.5492 21.9012C23.3194 22.2102 22.5121 22.975 22.1275 24.1954C21.9584 25.6801 22.0434 27.153 22.3824 28.614C22.842 31.0798 24.0458 33.0766 25.9937 34.6045C27.2418 35.0851 28.0066 34.6744 28.2879 33.3724C27.9446 31.8618 27.7322 30.3323 27.6506 28.7839C27.649 27.0269 27.6774 25.2708 27.7356 23.5156C27.5825 23.0543 27.3134 22.672 26.9284 22.3685C26.1794 22.0029 25.3864 21.8471 24.5492 21.9012Z" fill="#848D6F"/>
<path fill-rule="evenodd" clip-rule="evenodd" d="M34.6608 20.5416C37.0902 20.41 38.7046 21.4863 39.5042 23.7706C39.4007 24.3468 39.0608 24.5593 38.4846 24.4079C38.3854 24.3087 38.2863 24.2096 38.1871 24.1105C37.3519 22.199 35.9215 21.5334 33.8961 22.1136C33.2169 22.3962 32.7779 22.8919 32.579 23.6006C32.6736 25.4112 32.702 27.224 32.664 29.0388C32.5782 30.4886 32.3658 31.9189 32.0267 33.3299C32.285 34.6629 33.0497 35.0877 34.3209 34.6045C36.0493 33.2614 37.1964 31.5195 37.7623 29.3787C37.9938 28.4198 38.192 27.4567 38.3571 26.4897C38.6383 26.2223 38.964 26.1657 39.3343 26.3197C39.5802 26.6146 39.651 26.9545 39.5467 27.3394C39.2931 29.7443 38.4716 31.9252 37.0825 33.8822C36.315 34.8671 35.3662 35.6178 34.236 36.134C32.4009 36.3998 31.2254 35.6491 30.7096 33.8822C30.6529 33.514 30.6529 33.1458 30.7096 32.7776C31.0367 31.5519 31.2349 30.3056 31.3044 29.0388C31.336 27.1676 31.3077 25.2982 31.2195 23.4307C31.6855 21.6469 32.8326 20.6839 34.6608 20.5416Z" fill="#848D6F"/>
<path fill-rule="evenodd" clip-rule="evenodd" d="M24.1243 23.3457C24.9431 23.2725 25.2688 23.6407 25.1015 24.4503C24.7123 25.0933 24.2874 25.1217 23.8269 24.5353C23.6991 24.0688 23.7983 23.6723 24.1243 23.3457Z" fill="#848D6F"/>
<path fill-rule="evenodd" clip-rule="evenodd" d="M35.5955 23.3457C35.7958 23.3319 35.994 23.346 36.1903 23.3882C36.3461 23.4307 36.4452 23.5298 36.4877 23.6856C36.5444 23.9972 36.5444 24.3087 36.4877 24.6203C35.9443 25.1234 35.5195 25.0384 35.2131 24.3654C35.1501 23.9447 35.2775 23.6048 35.5955 23.3457Z" fill="#848D6F"/>
<path fill-rule="evenodd" clip-rule="evenodd" d="M23.6145 25.8949C24.3647 25.9485 24.6338 26.345 24.4217 27.0845C24.2326 27.455 23.9352 27.5825 23.5295 27.4668C23.3454 27.3961 23.2179 27.2686 23.1471 27.0845C22.9785 26.5356 23.1342 26.139 23.6145 25.8949Z" fill="#848D6F"/>
<path fill-rule="evenodd" clip-rule="evenodd" d="M36.3603 25.8949C36.7251 25.8692 36.9942 26.0108 37.1675 26.3197C37.3934 27.1398 37.096 27.5222 36.2753 27.4668C35.8981 27.214 35.7706 26.8599 35.8929 26.4047C35.9797 26.1625 36.1354 25.9926 36.3603 25.8949Z" fill="#848D6F"/>
<path fill-rule="evenodd" clip-rule="evenodd" d="M24.1243 28.6989C24.9431 28.6257 25.2688 28.994 25.1015 29.8036C24.7123 30.4466 24.2874 30.4749 23.8269 29.8885C23.6991 29.422 23.7983 29.0255 24.1243 28.6989Z" fill="#848D6F"/>
<path fill-rule="evenodd" clip-rule="evenodd" d="M35.5955 28.6989C36.4694 28.6855 36.7668 29.1104 36.4877 29.9735C35.9443 30.4766 35.5195 30.3917 35.2131 29.7186C35.1501 29.2979 35.2775 28.958 35.5955 28.6989Z" fill="#848D6F"/>
<path fill-rule="evenodd" clip-rule="evenodd" d="M25.3989 31.1631C26.074 30.9897 26.4422 31.2446 26.5035 31.9279C26.3704 32.6812 25.9597 32.8795 25.2714 32.5227C25.0672 32.0347 25.1097 31.5815 25.3989 31.1631Z" fill="#848D6F"/>
<path fill-rule="evenodd" clip-rule="evenodd" d="M34.236 31.1631C35.0079 31.0713 35.3336 31.4112 35.2131 32.1828C35.0577 32.6636 34.7319 32.8194 34.236 32.6501C34.0802 32.6076 33.981 32.5085 33.9386 32.3527C33.8819 32.0695 33.8819 31.7862 33.9386 31.503C33.9972 31.3458 34.0963 31.2325 34.236 31.1631Z" fill="#848D6F"/>
<path fill-rule="evenodd" clip-rule="evenodd" d="M14.6601 3.89507L14.6293 3.8938L14.5991 3.90015C13.7834 4.07166 12.9898 4.31692 12.2187 4.6359L12.1803 4.6518L12.1491 4.67941C11.7596 5.02502 11.5326 5.46334 11.4728 5.98321L11.4654 6.04806L11.4909 6.10813C11.8918 7.05137 12.2717 8.0079 12.6305 8.97771C12.7442 9.37265 12.8286 9.77263 12.8839 10.1777C12.6535 10.1797 12.4238 10.1962 12.1948 10.2275L12.1754 10.2302L12.1567 10.2358C11.1962 10.5262 10.3194 10.9793 9.52745 11.5943L9.50248 11.6137L9.48319 11.6388C9.34662 11.8162 9.24756 12.0147 9.18623 12.2323L9.16666 12.3018L9.18754 12.3709C9.30263 12.7517 9.49634 13.0605 9.81791 13.1784C10.1378 13.2957 10.4883 13.1885 10.8292 12.9767L10.8459 12.9663L10.8607 12.9534C11.4925 12.4054 12.2122 12.1042 13.0274 12.0464C13.0894 12.3563 13.2587 12.6123 13.5328 12.8005L13.564 12.822L13.6002 12.8331C13.8266 12.9026 14.0505 12.9145 14.2599 12.8448C14.4705 12.7746 14.6391 12.6307 14.7697 12.4379L14.808 12.3813L14.8118 12.313C14.9321 10.1375 14.4995 8.08201 13.515 6.15086C13.8191 6.04411 14.1215 5.93399 14.4222 5.82051C14.5342 6.13762 14.6134 6.46715 14.6598 6.8094L14.6607 6.81473C14.9427 8.60102 15.0268 10.3956 14.9131 12.1988L14.9097 12.2527L14.929 12.3031C15.0249 12.5525 15.204 12.7316 15.4534 12.8275L15.4793 12.8374L15.5068 12.8414C15.8773 12.895 16.2202 12.8523 16.457 12.6263C16.6351 12.4563 16.7138 12.2199 16.7282 11.9525C17.0806 11.9609 17.4301 12.0008 17.7769 12.0721C18.0675 12.1565 18.3534 12.2497 18.6347 12.3518L18.6279 12.351C18.2326 12.308 17.8699 12.3621 17.64 12.6139C17.4103 12.8655 17.3887 13.2318 17.4665 13.6222L17.4857 13.7184L17.5655 13.7753C18.2672 14.2752 18.9905 14.7435 19.7352 15.1802C20.3441 15.6692 20.8275 16.2497 21.1864 16.9233C20.8107 16.5923 20.4239 16.2743 20.0261 15.9694L20.0074 15.955L16.9353 14.419C16.3977 14.099 15.9067 13.7166 15.4621 13.2717L15.4414 13.2511L15.4166 13.2358C15.165 13.0814 14.8997 13.0085 14.6321 13.058C14.3662 13.1073 14.1399 13.2698 13.9491 13.502L13.9348 13.5194L13.9239 13.5391C13.1147 14.9999 12.5246 16.5391 12.1536 18.156C11.9728 17.1154 12.0585 16.0779 12.4106 15.0398C12.7535 14.4857 13.077 13.9225 13.3812 13.3501L13.4364 13.2462L13.3907 13.1379C13.2172 12.727 12.971 12.4017 12.6069 12.3355C12.2441 12.2696 11.8964 12.4852 11.5837 12.8068L11.5653 12.8257L11.5513 12.8481C11.3277 13.2057 11.074 13.5408 10.79 13.8539C9.62788 14.6525 8.38357 15.1004 7.05285 15.199C7.45731 15.0425 7.84966 14.8556 8.22978 14.6382L8.3093 14.5928L8.33999 14.5065C8.48253 14.1057 8.52388 13.7127 8.30823 13.429C8.09194 13.1444 7.70254 13.0815 7.28026 13.1151L7.24205 13.1181L7.20655 13.1326C5.83517 13.6916 4.41272 14.0542 2.93858 14.2205L2.90123 14.2247L2.86683 14.2398C2.6775 14.3231 2.51746 14.4476 2.38936 14.6111L2.37851 14.6249L2.36973 14.6401C2.18126 14.9673 2.09415 15.2998 2.1387 15.6294C2.17315 15.8844 2.28369 16.1181 2.4562 16.3307C1.13657 17.7193 0.317899 19.3663 0.00332094 21.266L0 21.286V24.4635L0.00140523 24.4767C0.215375 26.4748 0.687786 28.4219 1.4185 30.3174L1.42109 30.3236C2.59094 33.1277 4.23201 35.299 6.34988 36.8242C8.46774 38.3494 11.0479 39.218 14.0796 39.4395L14.1671 39.4459L14.2391 39.3957C14.522 39.1983 14.7292 38.9511 14.7511 38.6441C14.773 38.3377 14.6038 38.0623 14.3528 37.8241L14.2907 37.7652L14.2056 37.7572C11.2648 37.4826 8.68172 36.4004 6.44948 34.5089C3.72291 31.6829 2.20601 28.2986 1.89566 24.346L1.89489 24.3362L1.89334 24.3265C1.42396 21.3792 2.28653 18.954 4.48876 17.0201C6.44911 17.2719 8.34889 17.0401 10.1844 16.3257C10.1552 18.0496 10.4922 19.7153 11.1945 21.3205L11.2083 21.3519L11.23 21.3783C11.3817 21.5629 11.563 21.7115 11.7729 21.8223L11.7947 21.8339L11.8184 21.8409C12.1518 21.9392 12.4706 21.9507 12.7634 21.8531C13.0572 21.7552 13.2994 21.5558 13.4932 21.2778L13.5251 21.232L13.5342 21.1769C13.727 20.0156 13.9526 18.8595 14.2109 17.7087C14.4061 16.9007 14.6916 16.1309 15.0675 15.399C15.4997 15.7373 15.9588 16.0371 16.4447 16.2983L16.4525 16.3025L16.4605 16.3061C17.2873 16.6774 18.1011 17.0702 18.9021 17.4844C19.2703 17.7217 19.607 17.9989 19.9125 18.3164C19.7287 18.4312 19.5518 18.5562 19.382 18.6912L19.3747 18.697L19.3678 18.7033C17.0424 20.8571 16.0934 23.5268 16.5283 26.686C16.7705 29.8398 17.793 32.6229 19.5941 35.0302L19.6846 34.3111C18.1281 32.0762 17.2407 29.5209 17.0207 26.6408L17.0201 26.6332L17.0191 26.6257C16.604 23.6251 17.4941 21.1161 19.6969 19.0724C19.9243 18.8923 20.1653 18.732 20.4201 18.5912L20.6875 18.4435L20.4872 18.2128C20.0974 17.7636 19.6546 17.3798 19.1594 17.0621L19.1498 17.0559L19.1396 17.0507C18.3297 16.6316 17.507 16.2343 16.6712 15.8587C16.128 15.566 15.6204 15.2228 15.1482 14.8287L14.9178 14.6364L14.7732 14.8994C14.3065 15.7481 13.9587 16.6467 13.7298 17.5946L13.729 17.5984C13.4727 18.74 13.2484 19.8867 13.0561 21.0386C12.9187 21.2213 12.7681 21.3304 12.607 21.3841C12.4378 21.4405 12.2331 21.4437 11.9823 21.3736C11.8498 21.3004 11.7337 21.2061 11.6333 21.0897C10.9191 19.4446 10.6053 17.7373 10.6907 15.9651L10.7097 15.5715L10.3471 15.7257C8.44883 16.533 6.4829 16.796 4.44451 16.5155L4.33416 16.5003L4.24969 16.5729C1.85659 18.6299 0.90521 21.2476 1.40357 24.3945C1.72488 28.4603 3.29221 31.9524 6.10242 34.8612L6.11092 34.87L6.12024 34.8779C8.41013 36.8215 11.0625 37.9431 14.0707 38.2409C14.2277 38.4067 14.2637 38.5279 14.258 38.6088C14.2523 38.6888 14.2005 38.8014 14.0247 38.9396C11.108 38.713 8.64953 37.871 6.63879 36.423C4.60797 34.9606 3.0194 32.8694 1.87866 30.1364C1.16557 28.2858 0.704249 26.3862 0.494382 24.4371V21.3268C0.807569 19.4594 1.63214 17.8558 2.97156 16.5099L3.14884 16.3317L2.96779 16.1574C2.75763 15.9551 2.65481 15.757 2.62863 15.5632C2.6029 15.3729 2.64689 15.1553 2.78909 14.9028C2.85774 14.8188 2.93885 14.7542 3.03409 14.7072C4.52584 14.5353 5.96689 14.168 7.35663 13.6053C7.71988 13.5821 7.86353 13.6609 7.91462 13.7281C7.96375 13.7928 8.00023 13.9421 7.90283 14.2551C7.11846 14.6919 6.27976 14.9928 5.38564 15.1577L5.40012 15.6462C7.47249 15.9026 9.37443 15.4344 11.0943 14.2446L11.1173 14.2287L11.1361 14.2081C11.4417 13.8738 11.7151 13.5155 11.956 13.1332C12.2348 12.8522 12.416 12.8033 12.5184 12.8219C12.6114 12.8388 12.7454 12.9309 12.8876 13.2248C12.6009 13.759 12.2969 14.2851 11.9757 14.8032L11.961 14.8269L11.952 14.8532C11.4389 16.3467 11.439 17.8476 11.9519 19.347L12.4296 19.3077C12.7545 17.3594 13.3928 15.5236 14.345 13.7991C14.4826 13.6369 14.6095 13.565 14.7222 13.5441C14.8318 13.5238 14.9659 13.5449 15.1342 13.6429C15.6042 14.1097 16.123 14.5117 16.6905 14.8486L16.6982 14.8532L19.744 16.3761C20.337 16.8316 20.9048 17.3169 21.4475 17.8319L21.5905 17.9676L21.7546 17.8583L21.6217 18.9154C22.5074 18.492 23.4685 18.2717 24.5027 18.2551L24.521 18.2549L24.5391 18.2572C25.6318 18.4017 26.7285 18.444 27.8297 18.384C28.4872 18.2404 29.1358 18.1136 29.7756 18.0038L29.7975 18L29.8198 18.0002C30.7807 18.0094 31.7261 18.137 32.6554 18.383C34.03 18.4003 35.4022 18.372 36.7718 18.298L36.8024 18.2963L36.8325 18.3022C38.402 18.6089 39.6785 19.234 40.6471 20.1878C41.6156 21.1416 42.2608 22.4088 42.5926 23.9742L42.5959 23.9899L42.5972 24.0058C42.8879 27.6412 42.0825 31.0074 40.1821 34.0967L40.1763 34.1062L40.1696 34.1151C38.2311 36.7118 35.6361 38.2053 32.3998 38.5882C28.9056 39.122 25.6999 38.3998 22.7956 36.4233L22.7835 36.4151L22.7725 36.4055C21.5853 35.3732 20.6127 34.2231 19.855 32.9562L19.6846 34.3111C20.2544 35.1293 20.9138 35.9045 21.663 36.637L21.9134 36.8819L21.5988 37.0358C20.852 37.4011 20.0665 37.6629 19.2429 37.8212L19.308 37.3038C19.2552 37.3149 19.2021 37.3256 19.1489 37.3358C18.2786 37.5044 17.4057 37.6452 16.5301 37.7582L16.4982 37.7623L16.4684 37.7745C16.3674 37.8157 16.2745 37.8713 16.191 37.941L16.153 37.9727L16.1301 38.0166C16.0027 38.2613 15.946 38.5131 15.9955 38.7607C16.0453 39.0094 16.1947 39.217 16.408 39.3865L16.4742 39.4391L16.5588 39.4401C18.7305 39.4662 20.7962 39.0097 22.7527 38.0715C25.4829 39.6822 28.441 40.3368 31.6194 40.0344C35.2943 39.8598 38.3435 38.3997 40.752 35.6599L40.7592 35.6517L40.7657 35.6429C42.6877 33.0234 43.7663 30.0898 43.9994 26.8473L44 26.8384V23.8318L43.9955 23.8085C43.7613 22.5992 43.3108 21.4659 42.6448 20.4098L42.6388 20.4002L42.632 20.3913C41.4931 18.9051 40.1661 17.876 38.6492 17.319C37.144 16.7664 35.4692 16.6851 33.6332 17.0619C32.5157 16.9043 31.3943 16.7643 30.269 16.6421L30.2481 16.6398L30.2272 16.6411C29.7862 16.6681 29.3487 16.7188 28.9147 16.7935C28.5509 16.4715 28.1866 16.1489 27.8218 15.8257C27.9572 15.7464 28.0778 15.6425 28.1821 15.5146L28.1978 15.4953L28.2093 15.4734C28.4144 15.0832 28.4941 14.6996 28.3931 14.3416C28.2918 13.9823 28.0236 13.7017 27.6454 13.4865L27.5819 13.4504L27.509 13.4546C25.2166 13.5861 23.1798 12.9528 21.3874 11.5523L21.3759 11.5432L21.3633 11.5356C19.9562 10.6836 18.4374 10.2079 16.8101 10.1097C16.8088 8.48011 16.6226 6.87054 16.2516 5.28131C16.1749 4.86432 16.0069 4.52054 15.7289 4.27725C15.4493 4.03261 15.0848 3.91263 14.6601 3.89507ZM18.7383 12.3899C19.4948 12.797 20.2238 13.2453 20.9254 13.7351C21.2034 13.8354 21.4839 13.9206 21.7669 13.9906C20.8266 13.3251 19.8173 12.7916 18.7383 12.3899ZM22.5626 15.534L22.5951 15.5397C23.5246 15.7031 24.462 15.8011 25.4074 15.8336L25.4686 15.8357L25.5218 15.8661C26.1217 16.2098 26.6751 16.6177 27.1818 17.0893L27.6465 17.5218L27.0116 17.5174C26.1596 17.5114 25.308 17.4691 24.4567 17.3903C23.9834 17.4057 23.5114 17.4337 23.0408 17.474L22.824 17.4926L22.778 17.2799C22.6774 16.814 22.4924 16.3917 22.223 16.0109L22.1459 15.9019L22.1948 15.7776C22.222 15.7086 22.2685 15.6473 22.3346 15.6032C22.3983 15.5607 22.4675 15.5427 22.5298 15.537L22.5626 15.534Z" fill="#848D6F"/>
<path d="M20.2137 19.8116C18.0847 21.8702 17.3363 24.3755 17.9747 27.2955C18.2222 29.3869 18.8493 31.2745 19.855 32.9562L19.9585 32.1337C19.1731 30.6548 18.6752 29.0192 18.4642 27.2255L18.4628 27.2133L18.4602 27.2013C17.8543 24.4453 18.5486 22.1138 20.5493 20.1748C20.8693 19.9178 21.2018 19.6957 21.5471 19.5082L21.6217 18.9154C21.135 19.1479 20.6712 19.4418 20.2305 19.7968L20.2218 19.8038L20.2137 19.8116Z" fill="#848D6F"/>
<path fill-rule="evenodd" clip-rule="evenodd" d="M22.5951 15.5397L22.5626 15.534L22.5298 15.537C22.4675 15.5427 22.3983 15.5607 22.3346 15.6032C22.2685 15.6473 22.222 15.7086 22.1948 15.7776L22.1459 15.9019L22.223 16.0109C22.4924 16.3917 22.6774 16.814 22.778 17.2799L22.824 17.4926L23.0408 17.474C23.5114 17.4337 23.9834 17.4057 24.4567 17.3903C25.308 17.4691 26.1596 17.5114 27.0116 17.5174L27.6465 17.5218L27.1818 17.0893C26.6751 16.6177 26.1217 16.2098 25.5218 15.8661L25.4686 15.8357L25.4074 15.8336C24.462 15.8011 23.5246 15.7031 22.5951 15.5397ZM22.8525 16.084C23.0064 16.3605 23.1255 16.6541 23.2098 16.9642C23.6242 16.9319 24.0398 16.909 24.4563 16.8957L24.4717 16.8952L24.4871 16.8966C25.102 16.9538 25.7171 16.9917 26.3323 17.0103C26.0148 16.7585 25.6802 16.5302 25.3285 16.3254C24.4972 16.2944 23.6719 16.2139 22.8525 16.084Z" fill="#848D6F"/>
<path d="M29.8198 18.0002L29.7975 18L29.7756 18.0038C29.1358 18.1136 28.4872 18.2404 27.8297 18.384C26.7285 18.444 25.6318 18.4017 24.5391 18.2572L24.521 18.2549L24.5027 18.2551C23.4685 18.2717 22.5074 18.492 21.6217 18.9154L21.5471 19.5082C22.4424 19.0221 23.4232 18.7696 24.4926 18.7498C25.6163 18.8972 26.7444 18.9395 27.8768 18.8766L27.8966 18.8755L27.9159 18.8712C28.5655 18.729 29.206 18.6036 29.8372 18.4948C30.7593 18.5055 31.6659 18.63 32.5576 18.8686L32.5874 18.8765L32.6183 18.8769C34.0038 18.8951 35.387 18.8672 36.7676 18.7933C38.2469 19.0871 39.4195 19.6728 40.3002 20.5401C41.1838 21.4102 41.789 22.5788 42.1056 24.0611C42.3841 27.5828 41.6049 30.8359 39.7668 33.8282C37.9099 36.3111 35.4384 37.7317 32.3376 38.0976L32.3292 38.0989C28.9608 38.6144 25.884 37.923 23.0859 36.0228C21.7684 34.8751 20.7261 33.5792 19.9585 32.1337L19.855 32.9562C20.6127 34.2231 21.5853 35.3732 22.7725 36.4055L22.7835 36.4151L22.7956 36.4233C25.6999 38.3998 28.9056 39.122 32.3998 38.5882C35.6361 38.2053 38.2311 36.7118 40.1696 34.1151L40.1763 34.1062L40.1821 34.0967C42.0825 31.0074 42.8879 27.6412 42.5972 24.0058L42.5959 23.9899L42.5926 23.9742C42.2608 22.4088 41.6156 21.1416 40.6471 20.1878C39.6785 19.234 38.402 18.6089 36.8325 18.3022L36.8024 18.2963L36.7718 18.298C35.4022 18.372 34.03 18.4003 32.6554 18.383C31.7261 18.137 30.7807 18.0094 29.8198 18.0002Z" fill="#848D6F"/>
<path fill-rule="evenodd" clip-rule="evenodd" d="M28.6796 21.8159C27.5094 20.5838 26.0568 20.0758 24.3476 20.2965L24.3367 20.2979L24.326 20.3002C23.3539 20.5144 22.5428 20.9189 21.9036 21.5205C21.6304 21.7777 21.3907 22.0688 21.1841 22.393L20.5402 27.511C20.581 27.8371 20.6325 28.1629 20.6947 28.4884C21.1896 31.3404 22.5054 33.7267 24.639 35.6384L24.6461 35.6443C25.4709 36.3298 26.4236 36.5753 27.4837 36.377L27.4987 36.3741L27.5133 36.3695C28.3906 36.0897 29.0466 35.6402 29.4471 35.0042C29.8474 34.3684 29.9717 33.5792 29.85 32.6602L29.8481 32.6452L29.8442 32.6305C29.5161 31.3669 29.3206 30.0829 29.2574 28.7784C29.2646 26.9691 29.2928 25.1605 29.3423 23.3525L29.3431 23.3229L29.3369 23.294C29.2241 22.7668 29.0124 22.2826 28.7023 21.8435L28.6919 21.8289L28.6796 21.8159ZM24.4217 20.7854C23.5276 20.984 22.8047 21.3513 22.2424 21.8805C21.682 22.408 21.2695 23.1072 21.0111 23.9894C20.8444 25.4655 20.9009 26.9347 21.1806 28.3976L21.1814 28.4018C21.6571 31.1449 22.9173 33.4304 24.9656 35.267C25.6716 35.8522 26.4689 36.0599 27.3777 35.8938C28.1698 35.6386 28.7089 35.2487 29.0287 34.7408C29.3488 34.2324 29.4697 33.5732 29.3619 32.7399C29.027 31.4461 28.8275 30.1312 28.7633 28.7958L28.7627 28.7829C28.7698 26.9776 28.7982 25.173 28.8472 23.369C28.7483 22.9237 28.569 22.5158 28.3087 22.1433C27.254 21.0399 25.9667 20.5888 24.4217 20.7854Z" fill="#848D6F"/>
<path d="M20.5247 23.8918L20.5223 23.9124C20.3846 25.1162 20.3906 26.3159 20.5402 27.511L21.1841 22.393C20.9073 22.8272 20.6899 23.3209 20.5305 23.8718L20.5247 23.8918Z" fill="#848D6F"/>
<path fill-rule="evenodd" clip-rule="evenodd" d="M27.0368 22.1464C26.249 21.7618 25.4131 21.5976 24.5332 21.6545L24.5107 21.656L24.4889 21.6614C23.1749 21.9916 22.3019 22.8197 21.8917 24.1211L21.8845 24.1438L21.8819 24.1675C21.7098 25.6785 21.7961 27.178 22.1404 28.6646C22.6116 31.1862 23.8467 33.2346 25.8411 34.799L25.8703 34.8218L25.9049 34.8352C26.5597 35.0873 27.1467 35.129 27.6203 34.8747C28.0942 34.6202 28.3818 34.1084 28.5295 33.4246L28.5411 33.371L28.529 33.3176C28.1893 31.8228 27.9789 30.3094 27.8978 28.7773C27.8963 27.0252 27.9246 25.2741 27.9827 23.5238L27.9841 23.4797L27.9702 23.4378C27.8017 22.9301 27.504 22.5075 27.0814 22.1744L27.0606 22.158L27.0368 22.1464ZM24.5876 22.1465C23.4619 22.4358 22.7298 23.1282 22.3704 24.2473C22.2082 25.6958 22.2924 27.1324 22.6232 28.5581L22.6256 28.5686C23.0721 30.9638 24.2342 32.8996 26.1168 34.3868C26.692 34.6019 27.1009 34.5925 27.3864 34.4391C27.6689 34.2874 27.8992 33.958 28.0346 33.3727C27.6954 31.866 27.4851 30.3407 27.4038 28.7969L27.4031 28.7841C27.4015 27.0394 27.4298 25.2956 27.4871 23.5527C27.3502 23.1642 27.1209 22.8409 26.7958 22.579C26.0996 22.2439 25.3649 22.0998 24.5876 22.1465Z" fill="#848D6F"/>
<path fill-rule="evenodd" clip-rule="evenodd" d="M39.7375 23.6889C39.3244 22.5088 38.6928 21.6191 37.8308 21.0445C36.9689 20.4699 35.9017 20.2268 34.6474 20.2947L34.6416 20.2952C33.6879 20.3694 32.8916 20.6598 32.2704 21.1813C31.6493 21.7027 31.2232 22.4384 30.9803 23.3682L30.9708 23.4047L30.9725 23.4423C31.0604 25.303 31.0887 27.1655 31.0573 29.0299C30.9885 30.2781 30.7931 31.5061 30.4708 32.7139L30.4673 32.7268L30.4653 32.74C30.4048 33.1331 30.4048 33.5267 30.4653 33.9198L30.4678 33.9359L30.4723 33.9515C30.7415 34.8737 31.1926 35.5621 31.845 35.9787C32.4972 36.3952 33.3147 36.5172 34.2714 36.3786L34.3064 36.3735L34.3386 36.3588C35.5052 35.826 36.4858 35.0504 37.2777 34.0343L37.2841 34.0253C38.6943 32.0386 39.5301 29.8236 39.7905 27.3843C39.9072 26.9327 39.8197 26.5158 39.5241 26.1614L39.4852 26.1148L39.4292 26.0915C39.21 26.0003 38.9881 25.9652 38.7699 26.0031C38.5511 26.0412 38.3564 26.1492 38.1867 26.3105L38.1272 26.3671L38.1134 26.4481C37.9494 27.4087 37.7525 28.3654 37.5227 29.318C36.9734 31.3937 35.8666 33.0806 34.1987 34.3863C33.6117 34.6031 33.1987 34.5903 32.914 34.4322C32.6319 34.2755 32.4051 33.9366 32.2797 33.3345C32.6149 31.9266 32.8254 30.4996 32.9109 29.0534L32.9111 29.044C32.9489 27.237 32.9212 25.4321 32.828 23.6293C33.0098 23.0185 33.3885 22.5964 33.9781 22.3473C34.9466 22.0723 35.7413 22.1029 36.3836 22.4018C37.0286 22.7019 37.5592 23.2908 37.9606 24.2094L37.9793 24.2522L38.0182 24.2911L38.0193 24.2922L38.0368 24.3096L38.0379 24.3108L38.1192 24.3921L38.1204 24.3933L38.1483 24.4212L38.1494 24.4223L38.175 24.4479L38.1762 24.449L38.2052 24.4781L38.2064 24.4792L38.2772 24.5501C38.2803 24.5532 38.2753 24.5482 38.2784 24.5513L38.2819 24.5548L38.283 24.5559L38.3016 24.5745L38.3028 24.5757L38.3571 24.6299L38.4217 24.6469C38.7437 24.7315 39.0518 24.7285 39.3027 24.5717C39.5547 24.4142 39.6892 24.139 39.7475 23.8143L39.759 23.7503L39.7375 23.6889ZM34.6771 20.7883C33.8041 20.8567 33.1136 21.1189 32.5883 21.5599C32.0697 21.9953 31.6925 22.6213 31.4682 23.4571C31.5552 25.3172 31.5831 27.1792 31.5516 29.043L31.5514 29.0524C31.4812 30.3315 31.2813 31.5902 30.952 32.8281C30.9019 33.1617 30.9018 33.495 30.9515 33.8286C31.1984 34.6647 31.5913 35.2301 32.1111 35.562C32.6274 35.8917 33.3039 36.0133 34.1656 35.8943C35.2435 35.396 36.1489 34.6768 36.8842 33.7346C38.2466 31.8136 39.0518 29.6747 39.3009 27.3135L39.3029 27.2938L39.3081 27.2748C39.3864 26.9855 39.3434 26.7438 39.1823 26.5261C39.0561 26.4821 38.9483 26.4739 38.8546 26.4902C38.7665 26.5055 38.6771 26.5449 38.5859 26.6177C38.4229 27.5612 38.2285 28.501 38.0026 29.4367L38.0013 29.4419C37.4217 31.6344 36.2443 33.4229 34.4726 34.7997L34.4434 34.8224L34.4088 34.8355C33.7429 35.0887 33.1485 35.128 32.6739 34.8643C32.1993 34.6006 31.9194 34.0754 31.784 33.3769L31.7738 33.3243L31.7863 33.2721C32.1217 31.8769 32.3319 30.4626 32.4169 29.0289C32.4546 27.2217 32.4263 25.4165 32.3321 23.6135L32.33 23.5729L32.341 23.5338C32.5604 22.7523 33.052 22.1971 33.8011 21.8854L33.8143 21.8799L33.828 21.876C34.8785 21.5751 35.8072 21.5883 36.5922 21.9536C37.3662 22.3137 37.9622 22.9984 38.3946 23.9683L38.4653 24.0391L38.4665 24.0402L38.4955 24.0693L38.4967 24.0704L38.5223 24.096L38.5234 24.0971L38.5513 24.125L38.5525 24.1262L38.6101 24.1838C38.8268 24.2307 38.9592 24.2034 39.0407 24.1525C39.121 24.1023 39.2007 23.9984 39.2484 23.7888C38.8622 22.7177 38.2946 21.9478 37.5566 21.4558C36.8046 20.9545 35.8509 20.7252 34.6771 20.7883Z" fill="#848D6F"/>
<path fill-rule="evenodd" clip-rule="evenodd" d="M35.4574 32.2209C35.5217 31.8086 35.481 31.432 35.2377 31.1781C34.9939 30.9238 34.6199 30.8685 34.2067 30.9177L34.1643 30.9227L34.1261 30.9417C33.9255 31.0413 33.7857 31.2056 33.7069 31.4166L33.7 31.4351L33.6962 31.4545C33.6331 31.7697 33.6331 32.086 33.6962 32.4012L33.6978 32.4096L33.7001 32.4178C33.7649 32.6553 33.9271 32.8195 34.163 32.8864C34.4423 32.9805 34.7179 32.9985 34.9589 32.8832C35.2042 32.7659 35.3583 32.5374 35.4483 32.2588L35.4543 32.2402L35.4574 32.2209ZM34.3122 31.4035C34.2543 31.4404 34.2094 31.4936 34.1769 31.5722C34.1313 31.8134 34.132 32.0538 34.1791 32.295C34.1988 32.3613 34.2322 32.3929 34.301 32.4117L34.3085 32.4137L34.3158 32.4162C34.5301 32.4893 34.6629 32.4768 34.7456 32.4372C34.8236 32.3999 34.9073 32.3144 34.9719 32.1249C35.0227 31.7787 34.9616 31.6045 34.8807 31.5202C34.8024 31.4385 34.6394 31.3721 34.3122 31.4035Z" fill="#848D6F"/>
<path fill-rule="evenodd" clip-rule="evenodd" d="M36.7229 30.0496C36.869 29.5977 36.8941 29.1767 36.6765 28.8658C36.4557 28.5504 36.0542 28.4447 35.5917 28.4518L35.5059 28.4531L35.4394 28.5073C35.0507 28.824 34.8933 29.2521 34.9687 29.7552L34.9738 29.7895L34.9881 29.821C35.1513 30.1794 35.3808 30.4631 35.713 30.5295C36.045 30.5959 36.3664 30.4227 36.6556 30.1549L36.703 30.111L36.7229 30.0496ZM35.6883 28.9464C35.4954 29.1311 35.4173 29.3569 35.453 29.6481C35.5907 29.9374 35.7206 30.0268 35.81 30.0447C35.8969 30.0621 36.0449 30.0319 36.2718 29.8351C36.3818 29.4634 36.3471 29.2573 36.2714 29.1493C36.2006 29.048 36.0377 28.9549 35.6883 28.9464Z" fill="#848D6F"/>
<path fill-rule="evenodd" clip-rule="evenodd" d="M37.3831 26.1988C37.277 26.0097 37.1342 25.8596 36.9508 25.7631C36.768 25.6668 36.5618 25.6329 36.3429 25.6483L36.3006 25.6513L36.2617 25.6682C35.9709 25.7946 35.7687 26.0185 35.6602 26.3213L35.6568 26.3308L35.6542 26.3406C35.5833 26.6045 35.5795 26.8601 35.6642 27.0954C35.7492 27.3316 35.9145 27.5226 36.1376 27.6722L36.1926 27.709L36.2587 27.7135C36.6937 27.7428 37.0827 27.6643 37.309 27.3733C37.5323 27.0863 37.5243 26.6843 37.4058 26.2541L37.3978 26.2251L37.3831 26.1988ZM36.421 26.1394C36.2851 26.2086 36.189 26.3172 36.129 26.4788C36.0805 26.6652 36.0874 26.8112 36.1294 26.9279C36.1667 27.0315 36.2385 27.131 36.3601 27.2238C36.698 27.2358 36.852 27.1556 36.9188 27.0698C36.991 26.977 37.0343 26.7856 36.9373 26.4156C36.8734 26.3102 36.8002 26.2424 36.7206 26.2006C36.6431 26.1598 36.5458 26.1363 36.421 26.1394Z" fill="#848D6F"/>
<path fill-rule="evenodd" clip-rule="evenodd" d="M36.2423 23.1465C36.0233 23.0994 35.8018 23.0837 35.5785 23.0991L35.5002 23.1045L35.4394 23.1541C35.0507 23.4708 34.8933 23.8989 34.9687 24.402L34.9738 24.4362L34.9881 24.4678C35.1513 24.8262 35.3808 25.1098 35.713 25.1763C36.045 25.2427 36.3664 25.0694 36.6556 24.8017L36.7162 24.7456L36.7309 24.6645C36.7929 24.3237 36.7929 23.9822 36.7309 23.6414L36.729 23.6308L36.7262 23.6205C36.6607 23.3804 36.4956 23.2149 36.2555 23.1494L36.2423 23.1465ZM35.6933 23.5884C35.4968 23.774 35.417 24.0011 35.453 24.2949C35.5907 24.5841 35.7206 24.6736 35.81 24.6915C35.8951 24.7085 36.0389 24.6798 36.258 24.4937C36.2948 24.2429 36.291 23.9925 36.2466 23.7415C36.2274 23.6783 36.1954 23.6471 36.131 23.6283C35.9863 23.5977 35.8405 23.5845 35.6933 23.5884Z" fill="#848D6F"/>
<path fill-rule="evenodd" clip-rule="evenodd" d="M25.3436 24.5004C25.4324 24.0706 25.4092 23.676 25.1678 23.4032C24.9259 23.1297 24.5377 23.0605 24.1023 23.0995L24.0128 23.1075L23.9494 23.1711C23.557 23.564 23.4386 24.0536 23.5885 24.6006L23.6017 24.6488L23.6325 24.688C23.8759 24.9979 24.1676 25.2231 24.5074 25.2005C24.8459 25.1779 25.1078 24.9173 25.3129 24.5783L25.335 24.542L25.3436 24.5004ZM24.2387 23.5856C24.0372 23.8199 23.974 24.09 24.053 24.422C24.2532 24.6643 24.3936 24.7126 24.4745 24.7072C24.5573 24.7017 24.6942 24.6324 24.8676 24.3585C24.9337 24.006 24.8787 23.8225 24.7975 23.7307C24.7207 23.6439 24.5598 23.5709 24.2387 23.5856Z" fill="#848D6F"/>
<path fill-rule="evenodd" clip-rule="evenodd" d="M23.6321 25.6483L23.5636 25.6434L23.5025 25.6745C23.2231 25.8165 23.0128 26.0167 22.9074 26.285C22.8029 26.5509 22.8158 26.8477 22.9108 27.1571L22.9133 27.1652L22.9164 27.1732C23.0123 27.4226 23.1914 27.6017 23.4408 27.6976L23.4511 27.7015L23.4617 27.7046C23.7024 27.7732 23.9392 27.7773 24.1542 27.6852C24.3696 27.5929 24.5287 27.4186 24.6419 27.1969L24.6527 27.1756L24.6593 27.1526C24.7735 26.7546 24.7787 26.3814 24.5835 26.0937C24.3869 25.8039 24.0394 25.6774 23.6321 25.6483ZM23.6667 26.1477C23.5038 26.2425 23.4127 26.3508 23.3675 26.4657C23.3168 26.5948 23.31 26.7681 23.3808 27.0033C23.4254 27.1145 23.4976 27.1872 23.6083 27.2322C23.7674 27.2757 23.8788 27.2653 23.9594 27.2308C24.0375 27.1973 24.1176 27.1279 24.1907 26.9926C24.2804 26.6658 24.2465 26.4776 24.1744 26.3713C24.107 26.272 23.9622 26.1799 23.6667 26.1477Z" fill="#848D6F"/>
<path fill-rule="evenodd" clip-rule="evenodd" d="M25.3436 29.8536C25.4324 29.4239 25.4092 29.0293 25.1678 28.7564C24.9259 28.483 24.5377 28.4138 24.1023 28.4527L24.0128 28.4607L23.9494 28.5243C23.557 28.9173 23.4386 29.4068 23.5885 29.9539L23.6017 30.002L23.6325 30.0412C23.8759 30.3512 24.1676 30.5764 24.5074 30.5537C24.8459 30.5311 25.1078 30.2705 25.3129 29.9316L25.335 29.8952L25.3436 29.8536ZM24.2387 28.9388C24.0372 29.1731 23.974 29.4432 24.053 29.7752C24.2532 30.0175 24.3936 30.0658 24.4745 30.0604C24.5573 30.0549 24.6942 29.9856 24.8676 29.7117C24.9337 29.3593 24.8787 29.1758 24.7975 29.084C24.7207 28.9971 24.5598 28.9241 24.2387 28.9388Z" fill="#848D6F"/>
<path fill-rule="evenodd" clip-rule="evenodd" d="M26.7497 31.9058C26.716 31.5303 26.5927 31.2083 26.3221 31.021C26.0527 30.8345 25.7059 30.829 25.3374 30.9237L25.248 30.9467L25.1955 31.0226C24.8562 31.5136 24.8083 32.0561 25.0434 32.6181L25.078 32.7008L25.1577 32.7421C25.5234 32.9317 25.8905 33.0151 26.2031 32.8642C26.5175 32.7125 26.6759 32.3731 26.7469 31.9709L26.7526 31.9385L26.7497 31.9058ZM25.552 31.3815C25.3731 31.6804 25.343 31.9942 25.467 32.3434C25.7391 32.4694 25.8988 32.4621 25.9882 32.419C26.0815 32.3739 26.1909 32.2445 26.2541 31.9174C26.2231 31.6317 26.1347 31.4926 26.0406 31.4275C25.9521 31.3662 25.8026 31.3315 25.552 31.3815Z" fill="#848D6F"/>
<path d="M21.9134 36.8819L21.663 36.637C20.9138 35.9045 20.2544 35.1293 19.6846 34.3111L19.5941 35.0302C20.0373 35.6225 20.5276 36.1921 21.0651 36.7389C20.5022 36.9874 19.9164 37.1757 19.308 37.3038L19.2429 37.8212C20.0665 37.6629 20.852 37.4011 21.5988 37.0358L21.9134 36.8819Z" fill="#848D6F"/>
</g>
</g>
</svg>
