<svg width="44" height="44" viewBox="0 0 44 44" fill="none" xmlns="http://www.w3.org/2000/svg">
<g id="zucchini">
<g id="Vector">
<path fill-rule="evenodd" clip-rule="evenodd" d="M33.9854 0.247191C34.3536 0.247191 34.7219 0.247191 35.0901 0.247191C36.52 0.558737 37.9645 0.856139 39.4236 1.1394C39.6357 1.2312 39.8341 1.3445 40.0185 1.47928C40.5346 2.27056 40.9735 3.10611 41.3355 3.98595C41.6657 4.9577 41.34 5.34008 40.3583 5.13308C39.974 4.24922 39.5492 3.38535 39.0838 2.54143C38.3893 2.32876 37.6812 2.15882 36.9595 2.0316C36.7413 2.12158 36.5571 2.2632 36.4071 2.45646C35.7691 3.22165 35.2593 4.07137 34.8777 5.00562C34.0468 5.3367 33.6786 5.05347 33.773 4.1559C34.1291 3.25912 34.6247 2.45189 35.26 1.7342C34.9544 1.62573 34.6428 1.5974 34.3253 1.64923C33.0778 2.55655 32.0723 3.67534 31.3088 5.00562C30.8809 5.8955 30.711 6.83019 30.799 7.80969C31.0554 8.41346 31.4662 8.56925 32.0311 8.27704C32.5447 7.90517 32.9695 7.45199 33.3057 6.91749C33.7589 6.60237 34.1413 6.67317 34.4528 7.12992C34.8426 9.79778 35.664 9.93943 36.917 7.55478C37.0787 6.91268 37.192 6.26123 37.2569 5.60042C37.6534 5.26053 38.0499 5.26053 38.4465 5.60042C38.5748 6.48298 38.4756 7.34687 38.1491 8.19206C38.2623 8.87201 38.5738 9.43843 39.0838 9.8915C39.7006 10.0125 40.1112 9.77169 40.3159 9.16924C40.5144 8.46679 40.6702 7.75869 40.7832 7.04494C41.187 6.69404 41.5694 6.72236 41.9303 7.12992C42.0861 8.57636 41.7037 9.85097 40.7832 10.9537C41.4512 12.676 41.5504 14.4321 41.0806 16.2219C38.831 24.9915 34.115 32.0867 26.9328 37.5074C22.4763 40.6218 17.5763 42.7037 12.2326 43.7528C11.4112 43.7528 10.5899 43.7528 9.76845 43.7528C9.46926 43.6788 9.15767 43.6079 8.83376 43.5404C8.43237 43.3335 8.30491 43.0077 8.45139 42.5632C8.49387 42.4074 8.59301 42.3083 8.74879 42.2658C9.48651 42.3084 10.223 42.3792 10.9581 42.4782C22.0669 40.6171 30.4366 34.839 36.0673 25.144C37.7671 22.0269 39.0417 18.7412 39.891 15.2872C40.1498 13.9404 40.0082 12.6375 39.4661 11.3785C39.3529 11.2652 39.2395 11.2652 39.1262 11.3785C38.0494 16.4814 36.0809 21.1974 33.2207 25.5263C32.2279 25.6258 31.9588 25.215 32.4135 24.2942C35.0446 20.0993 36.8715 15.5675 37.8942 10.6987C37.6468 10.4022 37.4202 10.0907 37.2144 9.76404C36.8079 10.1445 36.3405 10.4277 35.8123 10.6138C34.3708 18.5292 30.4763 24.9162 24.1287 29.7749C23.3393 29.9128 23.0419 29.5871 23.2365 28.7978C29.296 24.1597 33.0207 18.07 34.4103 10.5288C34.0304 10.0542 33.6905 9.54439 33.3906 8.9993C32.0433 10.1903 30.797 10.1053 29.6519 8.74438C28.9986 9.21351 28.4463 9.78002 27.9949 10.4438C27.5033 11.328 27.0926 12.2485 26.7628 13.2054C26.1268 13.5087 25.7586 13.3246 25.6582 12.6531C26.1357 10.3215 27.3678 8.50877 29.3545 7.21489C29.5043 5.34726 30.2124 3.7328 31.4788 2.37149C32.2577 1.57692 33.0932 0.86882 33.9854 0.247191Z" fill="#848D6F"/>
<path fill-rule="evenodd" clip-rule="evenodd" d="M24.7235 14.7774C25.416 14.6635 25.7417 14.9467 25.7007 15.6271C22.0551 22.2416 16.4895 26.1928 9.0037 27.4807C6.12335 28.3497 4.32478 30.2332 3.60799 33.1313C4.53068 32.0394 5.64948 31.2039 6.96438 30.6246C9.2994 29.5797 11.7353 29.1265 14.272 29.2651C14.6291 29.7524 14.5441 30.149 14.017 30.4547C11.0273 30.5007 8.27989 31.3221 5.77477 32.9189C4.39539 33.8792 3.70145 35.1963 3.69296 36.8701C4.14236 37.8292 4.86462 38.4948 5.85974 38.8669C7.18614 39.3033 8.54569 39.4449 9.93839 39.2918C11.2266 39.1503 12.487 38.8812 13.7196 38.4846C14.3427 38.6261 14.541 38.9943 14.3144 39.5892C14.2377 39.6912 14.1386 39.7621 14.017 39.8016C11.2791 40.7709 8.50332 40.9408 5.6898 40.3114C6.04786 40.6413 6.43023 40.9387 6.83692 41.2037C7.19039 41.953 6.94964 42.3354 6.11466 42.3508C3.4232 40.5659 2.06365 38.0452 2.03601 34.7883C2.11487 31.3996 3.58771 28.8221 6.45455 27.0558C7.09534 26.6788 7.77512 26.3955 8.49387 26.2061C15.732 24.9535 21.1419 21.1439 24.7235 14.7774Z" fill="#848D6F"/>
<path fill-rule="evenodd" clip-rule="evenodd" d="M30.8415 26.6735C31.7667 26.6338 32.0359 27.0303 31.6487 27.8631C28.8731 31.4609 25.545 34.4209 21.6645 36.7426C20.5953 37.3538 19.4765 37.8495 18.3081 38.2296C17.8485 38.2373 17.6361 38.0107 17.6708 37.5499C17.6385 37.3098 17.7234 37.1258 17.9258 36.9975C20.811 35.8111 23.4168 34.1966 25.7432 32.1541C27.6425 30.4962 29.342 28.6693 30.8415 26.6735Z" fill="#848D6F"/>
<path fill-rule="evenodd" clip-rule="evenodd" d="M33.9078 0H35.1167L35.1427 0.00566625C36.5708 0.316807 38.0134 0.61383 39.4708 0.896735L39.4972 0.901861L39.5218 0.912545C39.7506 1.01155 39.9649 1.13396 40.1643 1.27972L40.2008 1.30639L40.2255 1.34424C40.7501 2.14858 41.1963 2.99787 41.5641 3.89191L41.5671 3.89908L41.5696 3.90643C41.6568 4.16303 41.7067 4.39735 41.7074 4.60344C41.7081 4.81106 41.6583 5.00774 41.5271 5.16184C41.395 5.31683 41.209 5.39538 41.0045 5.42281C40.8025 5.4499 40.5675 5.4298 40.3073 5.37495L40.1825 5.34863L40.1317 5.23165C39.7637 4.38557 39.3584 3.55795 38.9156 2.74877C38.2855 2.55976 37.644 2.40627 36.9909 2.28831C36.8411 2.36132 36.712 2.46683 36.6024 2.60801L36.5971 2.61486C35.9755 3.36032 35.4786 4.18802 35.1065 5.09909L35.0668 5.19636L34.9692 5.23525C34.5449 5.4043 34.1258 5.46678 33.8276 5.23743C33.531 5.00928 33.4791 4.58749 33.5272 4.13004L33.5307 4.09626L33.5433 4.06469C33.8592 3.26886 34.2823 2.54092 34.8123 1.88164C34.6833 1.86681 34.5533 1.86793 34.4218 1.8849C33.2273 2.76362 32.2632 3.84177 31.5277 5.12082C31.1277 5.95624 30.966 6.83046 31.0418 7.74794C31.1527 7.99388 31.2752 8.10583 31.387 8.14823C31.4993 8.1908 31.6617 8.18627 31.9014 8.06569C32.3826 7.71442 32.7805 7.28819 33.0964 6.78589L33.1232 6.74327L33.1646 6.71453C33.4224 6.53527 33.6982 6.43948 33.9774 6.4912C34.2565 6.54289 34.4799 6.73102 34.657 6.99064L34.6891 7.03775L34.6974 7.09418C34.7937 7.75336 34.9143 8.23751 35.053 8.55929C35.1982 8.89595 35.3299 8.9808 35.4032 8.99344C35.4762 9.00604 35.6282 8.97041 35.8767 8.70175C36.1107 8.44875 36.3805 8.04127 36.6844 7.46585C36.8393 6.84491 36.9482 6.21509 37.0109 5.57628L37.0206 5.4774L37.096 5.41273C37.3247 5.21675 37.5778 5.09831 37.8517 5.09831C38.1255 5.09831 38.3787 5.21675 38.6073 5.41273L38.6777 5.47308L38.6911 5.56486C38.8223 6.46749 38.7262 7.35247 38.4044 8.21603C38.5125 8.78911 38.7758 9.26809 39.197 9.66038C39.4314 9.69592 39.6024 9.66286 39.7294 9.58842C39.8673 9.50753 39.9902 9.35614 40.0798 9.09564C40.2749 8.40458 40.4279 7.70815 40.539 7.00629L40.5531 6.9174L40.6211 6.85836C40.8527 6.65707 41.1118 6.53581 41.3911 6.55649C41.6693 6.5771 41.9102 6.73438 42.1154 6.96602L42.1676 7.02505L42.1761 7.10345C42.3336 8.56662 41.9625 9.87008 41.0649 10.9993C41.7053 12.727 41.7904 14.4908 41.3199 16.284C39.0563 25.1072 34.3088 32.2502 27.0817 37.7047L27.0745 37.7101C22.5898 40.8443 17.6576 42.9396 12.2803 43.9954L12.2567 44H9.73833L9.70909 43.9928C9.41303 43.9195 9.10441 43.8493 8.78329 43.7824L8.75038 43.7755L8.7205 43.7601C8.4823 43.6373 8.29832 43.4645 8.20693 43.231C8.11676 43.0005 8.13125 42.748 8.21471 42.4916C8.28142 42.255 8.44568 42.0922 8.68375 42.0273L8.72271 42.0167L8.76303 42.019C9.49464 42.0612 10.225 42.131 10.9539 42.2283C21.9712 40.3729 30.2646 34.6413 35.8518 25.0227C37.5397 21.927 38.8055 18.6644 39.6494 15.2344C39.8844 14.0059 39.7739 12.8184 39.3175 11.666C38.2238 16.7085 36.2602 21.3745 33.4269 25.6626L33.3622 25.7606L33.2453 25.7723C32.9824 25.7986 32.7483 25.7935 32.5526 25.7452C32.3543 25.6963 32.1789 25.5983 32.0675 25.4283C31.9571 25.2597 31.9349 25.0588 31.9633 24.8551C31.9916 24.6525 32.072 24.4275 32.1918 24.1848L32.1974 24.1735L32.2041 24.1629C34.7987 20.0261 36.6065 15.5602 37.6277 10.7639C37.4636 10.5617 37.3086 10.3528 37.1629 10.1373C36.8218 10.4155 36.4439 10.6354 36.03 10.7967C34.5574 18.7081 30.6386 25.1033 24.279 29.9712L24.2309 30.008L24.1712 30.0184C23.7599 30.0903 23.3708 30.0633 23.1311 29.8007C22.8931 29.54 22.8955 29.1482 22.9965 28.7386L23.0173 28.6543L23.0863 28.6015C29.0673 24.0235 32.7523 18.0246 34.1467 10.5941C33.8465 10.2108 33.5716 9.80565 33.3218 9.37873C32.6961 9.8705 32.0633 10.1187 31.4286 10.0754C30.7753 10.0309 30.172 9.6811 29.6167 9.07853C29.0676 9.50122 28.5974 9.99941 28.2055 10.5737C27.7233 11.4422 27.3204 12.3462 26.9965 13.2859L26.9628 13.3839L26.8692 13.4285C26.5301 13.5903 26.1876 13.6601 25.8991 13.5159C25.6061 13.3694 25.4681 13.053 25.4137 12.6897L25.4073 12.6464L25.416 12.6035C25.8986 10.2472 27.1354 8.40005 29.1185 7.07441C29.2932 5.20263 30.0205 3.5761 31.2978 2.20312L31.3022 2.19838C32.0917 1.39307 32.939 0.675013 33.8441 0.0443735L33.9078 0ZM34.0634 0.494382C33.2087 1.09566 32.4068 1.77818 31.6576 2.54221C30.4308 3.86193 29.7462 5.42313 29.6009 7.23465L29.5912 7.35573L29.4894 7.42202C27.5709 8.67153 26.3802 10.4128 25.9095 12.6586C25.9578 12.935 26.0486 13.0379 26.1202 13.0737C26.1913 13.1092 26.3259 13.1212 26.5645 13.0232C26.8929 12.089 27.2976 11.1891 27.7789 10.3237L27.7843 10.314L27.7905 10.3048C28.2582 9.61702 28.8309 9.02961 29.5077 8.5436L29.6936 8.41007L29.841 8.58523C30.389 9.23641 30.9302 9.5459 31.4623 9.58218C31.9951 9.6185 32.5809 9.38515 33.2269 8.81409L33.4584 8.60953L33.6072 8.88015C33.9004 9.4131 34.2324 9.91108 34.6033 10.3743L34.6739 10.4625L34.6534 10.5736C33.2582 18.1453 29.5243 24.2709 23.4577 28.9396C23.3911 29.2611 23.4413 29.4072 23.4962 29.4673C23.5507 29.5271 23.692 29.5903 24.0277 29.5408C30.297 24.7245 34.1423 18.4043 35.5692 10.5695L35.5949 10.4283L35.7302 10.3806C36.2263 10.2058 36.6641 9.94046 37.0455 9.58356L37.264 9.37907L37.4235 9.63227C37.6235 9.9496 37.8436 10.2522 38.084 10.5404L38.1607 10.6324L38.1361 10.7495C37.1083 15.6425 35.2728 20.198 32.6297 24.4147C32.5257 24.6271 32.4708 24.7952 32.453 24.9233C32.435 25.0524 32.457 25.1206 32.481 25.1574C32.5042 25.1928 32.5538 25.2363 32.671 25.2652C32.7701 25.2897 32.9048 25.3 33.0806 25.2897C35.8878 21.0143 37.8222 16.3607 38.8844 11.3275L38.8995 11.2556L38.9515 11.2037C39.0351 11.1201 39.1509 11.0464 39.2962 11.0464C39.4415 11.0464 39.5573 11.1201 39.6409 11.2037L39.6744 11.2372L39.6932 11.2808C40.2548 12.5853 40.4019 13.9385 40.1337 15.3339L40.1314 15.3463C39.277 18.821 37.9944 22.1265 36.2843 25.2623L36.2811 25.2682C30.6133 35.0272 22.1799 40.8488 10.9989 42.722L10.9621 42.7282L10.9251 42.7232C10.2116 42.6271 9.49697 42.5578 8.78114 42.5153C8.7318 42.5359 8.70607 42.5688 8.68986 42.6283L8.68648 42.6407C8.62513 42.8268 8.63071 42.9573 8.66732 43.0508C8.70125 43.1375 8.77448 43.2255 8.91896 43.3057C9.22272 43.3694 9.51594 43.4361 9.79849 43.5056H12.2086C17.5078 42.4619 22.3668 40.3961 26.7875 37.3074C33.9227 31.921 38.6057 24.8748 40.8412 16.1605L40.8415 16.1592C41.2981 14.4196 41.2019 12.7168 40.5527 11.043L40.5 10.9071L40.5934 10.7952C41.4531 9.76549 41.8187 8.58466 41.6927 7.23783C41.5599 7.1047 41.4468 7.05636 41.3546 7.04953C41.2653 7.04291 41.1527 7.07208 41.0123 7.17732C40.8991 7.86907 40.7462 8.55547 40.5537 9.23649L40.5502 9.24884C40.4353 9.58718 40.2511 9.85565 39.9794 10.0149C39.7072 10.1745 39.3845 10.2024 39.0362 10.1341L38.97 10.1211L38.9196 10.0763C38.3669 9.58526 38.0276 8.96774 37.9052 8.23265L37.8941 8.166L37.9185 8.10298C38.2181 7.32744 38.3165 6.53822 38.2149 5.73176C38.077 5.63049 37.9568 5.5927 37.8517 5.5927C37.7475 5.5927 37.6285 5.62981 37.4922 5.72903C37.4248 6.36626 37.3129 6.99499 37.1567 7.61514L37.1495 7.64369L37.1358 7.66975C36.8189 8.27289 36.5207 8.73347 36.2396 9.03742C35.9695 9.32951 35.6568 9.53885 35.3192 9.48063C34.9818 9.42246 34.7567 9.12072 34.5991 8.755C34.4398 8.38559 34.3143 7.87166 34.217 7.22478C34.0948 7.06049 33.9825 6.99492 33.8874 6.97731C33.7913 6.95953 33.6616 6.98116 33.4864 7.09389C33.1379 7.63587 32.7007 8.09735 32.1761 8.47725L32.1611 8.4881L32.1447 8.49659C31.8283 8.66023 31.5077 8.72275 31.2117 8.61048C30.918 8.49906 30.7131 8.23975 30.5715 7.90633L30.5563 7.87054L30.5528 7.83182C30.4608 6.80772 30.6389 5.82839 31.0861 4.89849L31.09 4.89038L31.0944 4.88257C31.8753 3.52192 32.9044 2.377 34.1799 1.44932L34.2275 1.41474L34.2855 1.40527C34.6444 1.34667 34.9981 1.37897 35.3427 1.50124L35.6879 1.62376L35.4451 1.89805C34.8365 2.5856 34.3601 3.35757 34.0155 4.2151C33.9769 4.63044 34.0593 4.7919 34.1291 4.84557C34.1934 4.89503 34.3506 4.93157 34.6903 4.812C35.0761 3.89517 35.5842 3.05803 36.2146 2.30142C36.3895 2.07717 36.6071 1.90952 36.8652 1.80308L36.9316 1.77569L37.0024 1.78816C37.734 1.91712 38.4519 2.08942 39.1561 2.30508L39.2519 2.33439L39.3002 2.42206C39.7482 3.23449 40.159 4.06529 40.5325 4.91444C40.7032 4.94256 40.8371 4.94645 40.9387 4.93282C41.0611 4.91641 41.1199 4.87744 41.1507 4.84125C41.1823 4.80416 41.2134 4.73598 41.213 4.60508C41.2126 4.47404 41.1801 4.29851 41.1039 4.07275C40.7542 3.22405 40.3318 2.41749 39.8365 1.65289C39.6845 1.54541 39.5222 1.45339 39.3496 1.37682C37.9066 1.0965 36.4779 0.802356 35.0635 0.494382H34.0634ZM24.8781 15.0062C21.2612 21.3702 15.8114 25.1879 8.54664 26.4478C7.85439 26.6312 7.19973 26.9045 6.58209 27.2676C3.78963 28.9889 2.36117 31.4873 2.28322 34.7901C2.31099 37.9373 3.60808 40.3656 6.18584 42.101C6.53183 42.0835 6.66651 41.9935 6.71228 41.9207C6.75763 41.8487 6.78055 41.6898 6.64146 41.371C6.24574 41.1086 5.87266 40.816 5.52231 40.4932L4.84483 39.8691L5.74376 40.0702C8.51158 40.6894 11.2401 40.5225 13.9346 39.5686L13.9406 39.5664C14.0034 39.546 14.0542 39.5133 14.0966 39.4655C14.183 39.2214 14.1663 39.0737 14.118 38.9841C14.0713 38.8973 13.9627 38.8049 13.7282 38.7413C12.5011 39.1313 11.2467 39.3968 9.96538 39.5375C8.5377 39.6945 7.14258 39.5492 5.78248 39.1017L5.7731 39.0986C4.71763 38.704 3.94604 37.9929 3.46912 36.975L3.44549 36.9245L3.44577 36.8688C3.45467 35.1142 4.18846 33.7221 5.63353 32.716L5.64179 32.7103C8.16699 31.1007 10.9368 30.2666 13.946 30.2087C14.1399 30.0853 14.2143 29.9701 14.2344 29.8762C14.2527 29.7905 14.2369 29.6707 14.1362 29.5057C11.6831 29.3902 9.32716 29.8381 7.06535 30.8503L7.06403 30.8509C5.78335 31.415 4.69509 32.2278 3.79679 33.2909L3.36803 33.072C4.10597 30.0883 5.96921 28.138 8.9323 27.244L8.94683 27.2396L8.96179 27.2371C16.355 25.9651 21.8469 22.076 25.4564 15.5582C25.4641 15.2866 25.3982 15.1546 25.325 15.0909C25.2549 15.03 25.1222 14.9825 24.8781 15.0062ZM25.6494 14.7179C25.8972 14.9334 25.9699 15.27 25.9474 15.642L25.9441 15.6976L25.9172 15.7464C22.2376 22.4227 16.6124 26.4184 9.0607 27.7217C6.61676 28.4629 4.98667 29.9484 4.15341 32.1937C4.94261 31.4456 5.84655 30.847 6.86414 30.3987C9.23461 29.338 11.7095 28.8775 14.2854 29.0183L14.4022 29.0247L14.4713 29.119C14.671 29.3914 14.7811 29.6845 14.7178 29.9798C14.6547 30.2744 14.4345 30.4983 14.1411 30.6685L14.0853 30.7009L14.0208 30.7019C11.0783 30.7471 8.37703 31.5544 5.91193 33.1246C4.61637 34.0282 3.96366 35.2509 3.9407 36.8154C4.36319 37.6872 5.02677 38.2904 5.94171 38.6337C7.23291 39.0578 8.55533 39.1952 9.91138 39.0461C11.183 38.9064 12.4272 38.6408 13.6439 38.2492L13.7084 38.2285L13.7744 38.2435C14.1187 38.3217 14.4057 38.4757 14.5533 38.7497C14.701 39.0239 14.6709 39.3478 14.5455 39.6772L14.533 39.7098L14.512 39.7377C14.4055 39.8794 14.2653 39.9802 14.0967 40.0356C11.6281 40.9091 9.12669 41.1431 6.59631 40.7372C6.71903 40.8269 6.8442 40.9134 6.97185 40.9965L7.03058 41.0348L7.06049 41.0982C7.24397 41.4872 7.3232 41.8783 7.13064 42.1842C6.93886 42.4888 6.55173 42.59 6.11921 42.5979L6.04222 42.5993L5.97804 42.5568C3.21745 40.7261 1.81716 38.1285 1.78882 34.7904L1.78876 34.7825C1.86955 31.3108 3.38617 28.656 6.32488 26.8454L6.32917 26.8427C6.98945 26.4543 7.69023 26.1623 8.43088 25.9671L8.4412 25.9644L8.45172 25.9625C15.6171 24.7226 20.9632 20.9575 24.5081 14.6562L24.5663 14.5527L24.6834 14.5335C25.0575 14.472 25.404 14.5045 25.6494 14.7179ZM30.9668 26.9179C29.4746 28.8902 27.7876 30.6976 25.906 32.3401C23.565 34.3954 20.9432 36.0212 18.0418 37.2171C17.9839 37.257 17.9523 37.2973 17.9347 37.3354C17.9155 37.3771 17.9047 37.4342 17.9158 37.5168L17.9193 37.5426L17.9173 37.5685C17.9026 37.7636 17.9447 37.8539 17.9844 37.8964C18.0214 37.9358 18.0995 37.9798 18.2686 37.9825C19.4068 37.6094 20.4971 37.1251 21.5398 36.5292C25.3846 34.2284 28.683 31.2971 31.4358 27.7343C31.6128 27.3439 31.5859 27.1582 31.5327 27.0799C31.4824 27.0057 31.3351 26.9182 30.9668 26.9179ZM31.9418 26.8023C32.1566 27.1189 32.0707 27.5417 31.8729 27.9673L31.8613 27.9922L31.8444 28.014C29.05 31.6363 25.6986 34.617 21.7914 36.9547L21.7872 36.9573C20.7034 37.5768 19.5691 38.0793 18.3846 38.4647L18.3493 38.4762L18.3122 38.4768C18.0465 38.4812 17.7967 38.419 17.6238 38.2345C17.4566 38.0561 17.4074 37.8129 17.4226 37.5565C17.4065 37.4082 17.4238 37.2626 17.4858 37.1282C17.5517 36.9856 17.6595 36.8736 17.7934 36.7888L17.8117 36.7772L17.8317 36.7689C20.6919 35.5928 23.2744 33.9927 25.5801 31.9684C27.4666 30.3216 29.1548 28.5069 30.6439 26.525L30.7141 26.4315L30.8309 26.4265C31.3029 26.4062 31.728 26.4872 31.9418 26.8023Z" fill="#848D6F"/>
</g>
</g>
</svg>
