<svg width="44" height="44" viewBox="0 0 44 44" fill="none" xmlns="http://www.w3.org/2000/svg">
<g id="cheese">
<g id="Vector">
<path fill-rule="evenodd" clip-rule="evenodd" d="M43.7528 17.4878V24.2855C43.3421 24.6223 42.9313 24.6223 42.5207 24.2855L42.4357 19.6121C37.594 25.0912 32.7364 30.5577 27.8631 36.0117C29.9887 35.4073 32.113 34.7275 34.236 33.9723C34.0565 32.7689 34.4248 31.7634 35.3406 30.9558C37.1767 30.0233 38.5788 30.4623 39.5467 32.2729C40.2884 31.9927 41.039 31.7377 41.7985 31.5081C41.9071 31.6114 41.9921 31.5831 42.0534 31.4232C42.2633 31.2887 42.3907 31.0905 42.4357 30.8284L42.5207 26.4948C42.9313 26.1581 43.3421 26.1581 43.7528 26.4948V31.4232C43.5135 32.073 43.0603 32.5121 42.3933 32.7402C36.7696 34.6384 31.133 36.4936 25.4838 38.3059C21.6585 36.8039 17.8631 35.2319 14.0976 33.59C13.5905 32.9853 13.548 32.348 13.9702 31.6781C14.293 31.2701 14.647 30.8878 15.0323 30.531C15.2229 30.4344 15.4211 30.3636 15.6271 30.3185C15.8444 30.4976 16.0993 30.6109 16.3919 30.6584C17.6638 30.7885 18.2444 30.222 18.1338 28.959C17.4732 28.2149 17.5157 27.5209 18.2612 26.8772L16.4768 26.7922C16.0754 26.5853 15.948 26.2595 16.0945 25.815C16.1976 25.6834 16.3251 25.5843 16.4768 25.5176L19.5358 25.4327L26.631 17.4878C26.6735 16.922 26.6876 16.3555 26.6735 15.7883H1.52177C1.5076 18.9608 1.52177 22.133 1.56426 25.3052C2.74722 25.4728 3.95099 25.5294 5.17556 25.4751C5.49795 23.5241 6.64507 22.4761 8.61692 22.3312C10.2604 22.374 11.365 23.167 11.9308 24.7104C12.0118 24.9595 12.0543 25.2144 12.0583 25.4751C12.7757 25.4379 13.4839 25.4804 14.1826 25.6026C14.5498 26.0597 14.4932 26.4562 14.0126 26.7922C9.79234 26.8489 5.5721 26.8489 1.35183 26.7922C0.804423 26.6548 0.436212 26.3291 0.247191 25.815V14.7687C0.528377 14.5427 0.839941 14.3586 1.18188 14.2164C5.07243 12.4552 8.95282 10.6708 12.823 8.86313C13.1912 8.69319 13.5595 8.69319 13.9277 8.86313C14.2127 9.0358 14.4959 9.20574 14.7774 9.37296C15.2808 9.46847 15.6915 9.31272 16.0095 8.90562C16.1068 8.51619 16.1634 8.1197 16.1794 7.71601C16.2545 7.49488 16.3819 7.31077 16.5618 7.16369L19.4508 5.80414C20.1015 5.5927 20.7246 5.64935 21.3202 5.97409C24.507 8.19945 26.7304 11.1593 27.9905 14.8537L28.0755 15.8733L30.7521 12.8568C31.2005 12.5881 31.682 12.5032 32.1966 12.6019L43.4129 17.1904C43.5153 17.3073 43.6286 17.4064 43.7528 17.4878ZM25.7388 12.9843C25.7241 13.0686 25.7525 13.1252 25.8237 13.1542L26.3336 14.4288C18.9267 14.4571 11.5342 14.4287 4.1559 14.3438C7.24377 12.9628 10.317 11.5466 13.3754 10.0952C14.383 10.9156 15.4452 10.9865 16.5618 10.3077C17.2218 9.75245 17.5617 9.04438 17.5815 8.18336C18.4439 7.75919 19.3219 7.37682 20.2156 7.03624C20.7035 7.23805 21.1567 7.50713 21.5751 7.84347C23.2786 9.3151 24.6664 11.0287 25.7388 12.9843ZM31.6018 13.919C31.9268 13.9677 32.2383 14.0669 32.5365 14.2164C31.9528 16.0518 32.5194 17.4113 34.236 18.295C36.0659 18.8171 37.4114 18.2365 38.2721 16.5531L41.8409 18.0826C41.8976 18.1393 41.8976 18.1959 41.8409 18.2525C36.3473 24.4542 30.8242 30.6289 25.2714 36.7764C21.8632 35.3626 18.4502 33.9606 15.0323 32.5703C15.2622 32.3688 15.4605 32.1423 15.6271 31.8905C16.2676 32.0114 16.9191 32.0397 17.5815 31.9755C19.0761 31.4372 19.7134 30.375 19.4933 28.789C19.3782 28.4773 19.2932 28.1658 19.2384 27.8544C23.3772 23.2202 27.4984 18.575 31.6018 13.919ZM36.7001 16.5531C36.6152 16.5814 36.5585 16.6381 36.5302 16.723C35.571 17.3701 34.7072 17.2568 33.9386 16.3831C33.6413 15.8748 33.5705 15.3366 33.7261 14.7687C34.8468 15.1312 35.9232 15.5843 36.9551 16.1282C36.8905 16.2863 36.8055 16.4279 36.7001 16.5531ZM10.6987 25.3902C9.32576 25.4748 7.93787 25.5032 6.53511 25.4751C6.87786 24.1564 7.72758 23.5758 9.08427 23.7332C9.92447 23.9927 10.4626 24.545 10.6987 25.3902ZM36.5302 31.848C37.1297 31.73 37.6253 31.9 38.0172 32.3579C38.1006 32.4648 38.1289 32.5781 38.1022 32.6978C37.3152 33.0264 36.5079 33.2672 35.6805 33.42C35.5692 33.0811 35.6116 32.7553 35.8079 32.4428C36.0154 32.1918 36.2562 31.9936 36.5302 31.848Z" fill="#848D6F"/>
<path fill-rule="evenodd" clip-rule="evenodd" d="M19.1959 9.16053C20.5189 9.15255 21.2554 9.80394 21.4052 11.1149C21.111 12.7261 20.1763 13.3067 18.6011 12.8568C17.6107 12.2365 17.3133 11.3727 17.7089 10.2652C18.0482 9.67861 18.5439 9.31034 19.1959 9.16053ZM19.3659 10.5201C18.9593 10.7139 18.846 11.0255 19.026 11.4548C19.3212 11.7576 19.6044 11.7576 19.8757 11.4548C20.1237 10.9275 19.9538 10.6159 19.3659 10.5201Z" fill="#848D6F"/>
<path fill-rule="evenodd" clip-rule="evenodd" d="M25.8237 13.1542C25.7525 13.1252 25.7241 13.0686 25.7388 12.9843C25.7332 12.9471 25.7473 12.9187 25.7812 12.8993C25.813 12.9771 25.8555 13.048 25.9087 13.1117C25.8893 13.1456 25.861 13.1597 25.8237 13.1542Z" fill="#848D6F"/>
<path fill-rule="evenodd" clip-rule="evenodd" d="M4.1559 14.3438C11.5342 14.4287 18.9267 14.4571 26.3336 14.4288C22.6857 14.4856 18.9753 14.514 15.2022 14.5138C11.4635 14.4855 7.72472 14.4571 3.98595 14.4288C4.02478 14.361 4.08143 14.3327 4.1559 14.3438Z" fill="#848D6F"/>
<path fill-rule="evenodd" clip-rule="evenodd" d="M36.7001 16.5531C36.7374 16.5476 36.7657 16.5617 36.7851 16.5956C36.7219 16.6839 36.6369 16.7263 36.5302 16.723C36.5585 16.6381 36.6152 16.5814 36.7001 16.5531Z" fill="#848D6F"/>
<path fill-rule="evenodd" clip-rule="evenodd" d="M10.2739 16.723C10.3763 16.8622 10.4895 16.8905 10.6138 16.808C11.6315 17.4274 11.9147 18.2771 11.4635 19.3572C11.3036 19.4184 11.2753 19.5034 11.3785 19.6121C10.5816 20.5475 9.64695 20.7033 8.57444 20.0794C7.55188 19.0084 7.58021 17.9605 8.65941 16.9355C9.18054 16.6447 9.71867 16.5739 10.2739 16.723ZM9.5941 17.9976C9.16593 18.2725 9.10934 18.5982 9.42416 18.9748C9.88776 19.1822 10.1993 19.0406 10.3588 18.5499C10.2555 18.1484 10.0006 17.9643 9.5941 17.9976Z" fill="#848D6F"/>
<path fill-rule="evenodd" clip-rule="evenodd" d="M10.2739 16.723C10.3979 16.7173 10.5111 16.7456 10.6138 16.808C10.4895 16.8905 10.3763 16.8622 10.2739 16.723Z" fill="#848D6F"/>
<path fill-rule="evenodd" clip-rule="evenodd" d="M15.967 17.5728C17.7164 17.6511 18.7078 18.5574 18.941 20.2919C18.5881 22.4649 17.3418 23.3005 15.2022 22.7985C13.7989 22.1037 13.2749 20.9849 13.6303 19.4421C14.0734 18.3892 14.8522 17.7661 15.967 17.5728ZM16.052 18.9323C14.8804 19.3737 14.6113 20.1385 15.2447 21.2265C16.419 21.941 17.1979 21.6294 17.5815 20.2919C17.4175 19.4482 16.9077 18.9949 16.052 18.9323Z" fill="#848D6F"/>
<path fill-rule="evenodd" clip-rule="evenodd" d="M11.4635 19.3572C11.4586 19.4514 11.4303 19.5364 11.3785 19.6121C11.2753 19.5034 11.3036 19.4184 11.4635 19.3572Z" fill="#848D6F"/>
<path fill-rule="evenodd" clip-rule="evenodd" d="M32.0267 21.6514C33.4941 21.4496 34.3154 22.0728 34.4909 23.5208C34.447 24.7259 33.8238 25.3774 32.6215 25.4751C31.0877 25.2404 30.4788 24.3623 30.7946 22.841C31.0303 22.2511 31.441 21.8545 32.0267 21.6514ZM32.3666 23.011C32.1711 23.1167 32.0578 23.2866 32.0267 23.5208C32.2511 24.1765 32.6051 24.2615 33.0888 23.7757C33.1874 23.2085 32.9467 22.9536 32.3666 23.011Z" fill="#848D6F"/>
<path fill-rule="evenodd" clip-rule="evenodd" d="M25.5688 23.4358C27.8682 23.5971 28.817 24.815 28.4154 27.0896C27.6845 28.5987 26.509 29.1227 24.889 28.6616C23.4628 27.9754 22.9388 26.8566 23.3171 25.3052C23.7179 24.2496 24.4684 23.6264 25.5688 23.4358ZM25.6538 24.7954C24.7118 25.1306 24.386 25.7821 24.6766 26.7497C25.3784 27.6688 26.1431 27.7255 26.9709 26.9197C27.4425 25.6544 27.0035 24.9463 25.6538 24.7954Z" fill="#848D6F"/>
<path fill-rule="evenodd" clip-rule="evenodd" d="M10.6987 25.3902C10.7449 25.3953 10.7732 25.4236 10.7837 25.4751C10.0614 25.5034 9.33919 25.5318 8.61692 25.5601C7.85979 25.5614 7.16585 25.533 6.53511 25.4751C7.93787 25.5032 9.32576 25.4748 10.6987 25.3902Z" fill="#848D6F"/>
<path fill-rule="evenodd" clip-rule="evenodd" d="M15.6271 30.3185C15.917 30.3674 16.1719 30.4807 16.3919 30.6584C16.0993 30.6109 15.8444 30.4976 15.6271 30.3185Z" fill="#848D6F"/>
<path fill-rule="evenodd" clip-rule="evenodd" d="M23.7844 30.6584C25.191 30.5638 25.984 31.2152 26.1636 32.6128C25.8198 34.2434 24.8568 34.7957 23.2746 34.2697C22.2477 33.5046 22.0353 32.5557 22.6373 31.4232C22.9662 31.0689 23.3486 30.814 23.7844 30.6584ZM24.0393 32.018C23.6112 32.2929 23.5546 32.6186 23.8694 32.9952C24.2776 33.2252 24.575 33.126 24.7616 32.6978C24.7625 32.2316 24.5217 32.005 24.0393 32.018Z" fill="#848D6F"/>
<path fill-rule="evenodd" clip-rule="evenodd" d="M41.7985 31.5081C41.9071 31.6114 41.9921 31.5831 42.0534 31.4232C41.9591 31.428 41.8742 31.4563 41.7985 31.5081Z" fill="#848D6F"/>
<path fill-rule="evenodd" clip-rule="evenodd" d="M19.5417 6.03458L16.6961 7.37367C16.5724 7.48067 16.4826 7.60963 16.4248 7.76382C16.4061 8.17117 16.3477 8.5718 16.2493 8.96553L16.2366 9.01643L16.2043 9.05778C16.0224 9.29062 15.8052 9.46235 15.5506 9.5589C15.2959 9.65549 15.0202 9.67064 14.7313 9.61582L14.6886 9.60771L14.6511 9.58549C14.3731 9.42031 14.0934 9.2525 13.812 9.08206C13.514 8.94805 13.2253 8.94983 12.9271 9.08737C9.05614 10.8954 5.17507 12.6801 1.28382 14.4416L1.27687 14.4447C0.99307 14.5628 0.732414 14.711 0.494382 14.8896V25.7695C0.654518 26.1726 0.943711 26.4276 1.38492 26.5454C5.56661 26.6013 9.74827 26.6015 13.93 26.5461C14.0957 26.4168 14.1574 26.3018 14.1708 26.2078C14.1839 26.1166 14.1587 25.9934 14.0444 25.8299C13.3952 25.7234 12.7375 25.6874 12.0711 25.722L11.8151 25.7353L11.8111 25.4789C11.8075 25.2445 11.7696 25.0155 11.6971 24.7911C11.4277 24.0583 11.0371 23.5203 10.5338 23.1589C10.0321 22.7987 9.39984 22.6008 8.62275 22.5786C7.68287 22.6497 6.96472 22.933 6.44442 23.4084C5.92185 23.8858 5.5741 24.5795 5.41945 25.5154L5.38677 25.7132L5.18651 25.7221C3.94709 25.777 2.72804 25.7197 1.52959 25.5499L1.31992 25.5202L1.31709 25.3085C1.27458 22.1349 1.26041 18.9611 1.27458 15.7872L1.27568 15.5412H26.9146L26.9206 15.7822C26.9349 16.3576 26.9206 16.9323 26.8775 17.5063L26.8712 17.5899L19.6492 25.6768L16.5355 25.7633C16.4516 25.8061 16.3789 25.8628 16.3162 25.9347C16.269 26.0986 16.2766 26.2163 16.3104 26.3026C16.343 26.3859 16.4118 26.4704 16.5453 26.548L18.8913 26.6597L18.4228 27.0643C18.0791 27.361 17.9327 27.6387 17.9169 27.8956C17.9012 28.1531 18.013 28.4506 18.3186 28.7949L18.3729 28.856L18.38 28.9374C18.4382 29.6011 18.3214 30.1496 17.9539 30.5081C17.5871 30.866 17.0337 30.9726 16.3667 30.9043L16.3594 30.9036L16.3522 30.9024C16.0622 30.8553 15.8005 30.7504 15.5709 30.5868C15.4351 30.6237 15.303 30.6735 15.1744 30.7364C14.8117 31.0746 14.4777 31.4361 14.1724 31.8209C13.9875 32.1181 13.9153 32.39 13.9321 32.6421C13.9481 32.8833 14.0475 33.1311 14.2512 33.3872C17.969 35.0076 21.716 36.5597 25.4922 38.0436C31.112 36.2403 36.7192 34.3945 42.3138 32.5062C42.8976 32.3063 43.2892 31.9341 43.5056 31.378V26.6183C43.3686 26.5257 43.2464 26.4894 43.1367 26.4894C43.0264 26.4894 42.9034 26.5262 42.7655 26.6199L42.6825 30.8519L42.6794 30.8702C42.628 31.1695 42.4851 31.4142 42.2504 31.5875C42.2082 31.6691 42.1386 31.76 42.0218 31.7989C41.9205 31.8326 41.8303 31.8141 41.7578 31.7789C41.0419 31.9979 40.334 32.2397 39.6341 32.5041L39.431 32.5808L39.3287 32.3894C38.863 31.5183 38.3135 31.0151 37.6954 30.8216C37.0837 30.63 36.3522 30.7252 35.4807 31.162C34.6447 31.9106 34.3149 32.826 34.4804 33.9359L34.5104 34.1371L34.3188 34.2052C32.1909 34.9621 30.0616 35.6435 27.9307 36.2494L27.1108 36.4825L27.6787 35.847C32.5517 30.3934 37.409 24.9272 42.2505 19.4484L42.6713 18.9722L42.7657 24.1606C42.9035 24.2542 43.0264 24.2909 43.1367 24.2909C43.2464 24.2909 43.3686 24.2546 43.5056 24.1621V17.6153C43.4209 17.5503 43.3414 17.4777 43.2672 17.3978L32.1265 12.8403C31.6926 12.7621 31.2909 12.8316 30.911 13.0501L27.8771 16.4693L27.7467 14.9047C26.5033 11.2777 24.3192 8.37318 21.1901 6.18474C20.6628 5.90086 20.1187 5.85081 19.5417 6.03458ZM28.2343 14.8027L28.2245 14.7739C26.9475 11.03 24.6918 8.02701 21.4618 5.77142L21.4505 5.7636L21.4385 5.75705C20.7827 5.39948 20.0891 5.33681 19.3744 5.56906L19.3597 5.57386L16.4289 6.95302L16.4053 6.97233C16.1894 7.14887 16.0352 7.37184 15.9453 7.63659L15.9339 7.67045L15.9324 7.70619C15.9178 8.07497 15.8678 8.43719 15.7825 8.7932C15.6555 8.94458 15.5192 9.04205 15.3753 9.09664C15.2294 9.15199 15.0613 9.16867 14.8647 9.13731C14.5967 8.97793 14.327 8.81606 14.0558 8.65172L14.0439 8.64452L14.0313 8.6387C13.5973 8.43841 13.1534 8.43841 12.7194 8.6387L12.7184 8.63917C8.85023 10.4459 4.97186 12.2294 1.08335 13.9896C0.721832 14.1404 0.391211 14.3359 0.0923579 14.576L0 14.6502V25.859L0.0151859 25.9003C0.233434 26.4939 0.667849 26.8754 1.29165 27.032L1.31964 27.039L1.34851 27.0394C5.57099 27.0961 9.79345 27.0961 14.016 27.0394L14.092 27.0384L14.1543 26.9948C14.4244 26.8059 14.6185 26.57 14.6602 26.2778C14.702 25.9855 14.5817 25.7047 14.3753 25.4478L14.3169 25.3752L14.2252 25.3591C13.5876 25.2476 12.9426 25.2008 12.2904 25.2186C12.2697 25.0205 12.2282 24.8255 12.1659 24.634L12.1629 24.6253C11.8666 23.817 11.4225 23.1883 10.8221 22.7573C10.2218 22.3263 9.4841 22.1065 8.62336 22.0841L8.61107 22.0838L8.5988 22.0847C7.57286 22.1601 6.73553 22.4728 6.11097 23.0434C5.52777 23.5762 5.15171 24.3141 4.96789 25.236C3.89819 25.2729 2.84515 25.2239 1.80862 25.0889C1.7694 22.0712 1.75584 19.0535 1.76792 16.0355H26.4306C26.4354 16.4861 26.422 16.9363 26.3905 17.3859L19.4224 25.1885L16.4216 25.2719L16.3774 25.2913C16.188 25.3745 16.028 25.4991 15.8999 25.6625L15.8732 25.6966L15.8597 25.7377C15.7745 25.996 15.7591 26.2506 15.85 26.4828C15.9414 26.7164 16.1254 26.8891 16.3636 27.0119L16.4114 27.0366L17.7165 27.0987C17.5433 27.3366 17.4402 27.592 17.4235 27.8653C17.3982 28.2785 17.5736 28.6783 17.8935 29.059C17.9294 29.6121 17.8124 29.9554 17.6087 30.1542C17.4031 30.3547 17.0506 30.4656 16.4863 30.4189C16.2462 30.2405 15.9722 30.126 15.6682 30.0748L15.621 30.0668L15.5743 30.0771C15.3476 30.1266 15.1296 30.2046 14.9206 30.3104L14.8897 30.3261L14.8643 30.3496C14.4698 30.715 14.1071 31.1067 13.7763 31.5247L13.7681 31.5351L13.761 31.5463C13.5289 31.9147 13.4133 32.2928 13.4388 32.6749C13.4643 33.0572 13.629 33.4159 13.9082 33.7488L13.9455 33.7933L13.9988 33.8165C17.7671 35.4597 21.5653 37.0328 25.3935 38.536L25.4755 38.5682L25.5594 38.5413C31.2097 36.7286 36.8474 34.873 42.4723 32.9744L42.4733 32.9741C43.2092 32.7224 43.7192 32.2298 43.9848 31.5086L44 31.4672V26.3778L43.9095 26.3036C43.6731 26.1098 43.4142 25.9951 43.1367 25.9951C42.8592 25.9951 42.6003 26.1098 42.364 26.3037L42.2758 26.376L42.189 30.8037C42.1566 30.9727 42.0817 31.0947 41.9645 31.1839C41.8685 31.1984 41.7776 31.2308 41.694 31.2815C41.0085 31.4895 40.3302 31.7179 39.6591 31.9669C39.1743 31.1331 38.5731 30.5784 37.8431 30.3498C37.0594 30.1044 36.1809 30.2518 35.2287 30.7354L35.2007 30.7497L35.1771 30.7704C34.2506 31.5875 33.8435 32.6072 33.9659 33.8058C32.1847 34.4357 30.4026 35.0123 28.6197 35.5357C33.1602 30.4521 37.687 25.3575 42.2001 20.2519L42.2756 24.4042L42.364 24.4767C42.6003 24.6705 42.8592 24.7853 43.1367 24.7853C43.4142 24.7853 43.6731 24.6705 43.9095 24.4767L44 24.4025V17.3542L43.8883 17.281C43.7836 17.2124 43.6872 17.1283 43.5989 17.0275L43.5605 16.9837L32.2674 12.3638L32.2432 12.3591C31.669 12.249 31.1257 12.3448 30.6251 12.6448L30.5924 12.6643L28.2739 15.2773L28.2343 14.8027ZM41.9257 31.3742L41.8395 31.3413C41.8468 31.3372 41.8555 31.3332 41.8655 31.3298C41.9073 31.3159 41.9443 31.3225 41.9647 31.3304C41.9654 31.3306 41.966 31.3309 41.9666 31.3311L41.9257 31.3742ZM20.2193 6.77028L20.3101 6.80781C20.8201 7.01876 21.2935 7.29998 21.73 7.6508L21.7368 7.6563C23.3848 9.08004 24.7418 10.7282 25.8071 12.5998L25.9035 12.5447L26.0101 12.8059C26.0324 12.8605 26.0618 12.9094 26.0985 12.9533L26.2086 13.0852L26.1233 13.2344C26.1231 13.2348 26.1228 13.2353 26.1226 13.2357L26.6964 14.6704L26.3374 14.676C22.6882 14.7328 18.9766 14.7612 15.2022 14.761H15.2004L3.56142 14.6728L3.77144 14.306C3.80938 14.2397 3.8659 14.1762 3.94704 14.1356C3.99997 14.1091 4.05455 14.0969 4.10753 14.0947C7.17602 12.7218 10.23 11.3143 13.2694 9.87191L13.4104 9.80499L13.5314 9.90353C14.0044 10.2886 14.4746 10.4857 14.9442 10.517C15.409 10.548 15.8983 10.4182 16.4171 10.1063C17.0133 9.59866 17.3163 8.96132 17.3343 8.17768L17.3378 8.02773L17.4724 7.96154C18.3417 7.53402 19.2267 7.14858 20.1276 6.80525L20.2193 6.77028ZM25.969 14.1829L25.624 13.3203C25.5862 13.2894 25.5527 13.25 25.528 13.2006C25.5014 13.1473 25.4901 13.093 25.4882 13.0417C24.4356 11.139 23.0788 9.46988 21.4169 8.03342C21.0432 7.73356 20.6413 7.49018 20.2108 7.30275C19.4016 7.61418 18.6054 7.96024 17.8219 8.34096C17.7653 9.20559 17.396 9.92894 16.7209 10.4968L16.7064 10.509L16.6902 10.5189C16.0984 10.8786 15.5037 11.0498 14.9113 11.0103C14.3643 10.9738 13.841 10.7592 13.3432 10.3841C10.6676 11.6527 7.98076 12.8943 5.28265 14.1091C12.1657 14.183 19.0611 14.2076 25.969 14.1829ZM25.9087 13.1117C25.9102 13.1108 25.9112 13.1094 25.9129 13.1083C25.9192 13.1039 25.9266 13.098 25.9341 13.0906C25.9452 13.0794 25.9568 13.0647 25.9664 13.0455C25.9698 13.0386 25.9727 13.0319 25.975 13.0252C25.9771 13.0192 25.9788 13.0133 25.9802 13.0075C25.9785 12.9997 25.9755 12.9901 25.9701 12.9793C25.9648 12.9686 25.9586 12.9598 25.9523 12.9526C25.9375 12.9354 25.9223 12.9275 25.9171 12.9253L25.8667 13.0489L25.8997 13.1066L25.9087 13.1117ZM25.845 13.0109L25.8587 12.9185L25.8081 12.9463L25.845 13.0109ZM19.2249 9.40766C18.661 9.54382 18.2345 9.86082 17.9342 10.3696C17.7569 10.8766 17.745 11.303 17.869 11.6632C17.9919 12.0204 18.2596 12.3445 18.7029 12.6287C19.439 12.8329 19.9747 12.7839 20.3531 12.5488C20.7312 12.3139 21.0123 11.8559 21.1553 11.1067C21.0811 10.5103 20.8794 10.096 20.5767 9.82826C20.2724 9.55909 19.8326 9.40847 19.2249 9.40766ZM20.9043 9.45796C21.332 9.83627 21.5714 10.3917 21.6508 11.0868L21.655 11.1232L21.6484 11.1593C21.4949 11.9998 21.1645 12.6268 20.614 12.9688C20.0635 13.3108 19.3549 13.3292 18.5332 13.0945L18.4996 13.0849L18.4699 13.0663C17.9404 12.7347 17.5733 12.323 17.4015 11.8242C17.2299 11.3255 17.2649 10.7732 17.4761 10.182L17.4837 10.1609L17.4949 10.1414C17.8681 9.49636 18.4208 9.08501 19.1406 8.91962L19.1672 8.91351L19.1944 8.91335C19.8955 8.90912 20.4767 9.07975 20.9043 9.45796ZM19.3293 10.2637L19.4056 10.2761C19.7248 10.3281 20.0109 10.4499 20.1513 10.7073C20.293 10.9672 20.2354 11.2709 20.0994 11.56L20.084 11.5928L20.0598 11.6197C19.8982 11.8002 19.6979 11.9291 19.4598 11.9291C19.2247 11.9291 19.0203 11.8031 18.849 11.6273L18.8162 11.5937L18.798 11.5503C18.6937 11.3016 18.6585 11.0489 18.7437 10.8147C18.8295 10.5787 19.0191 10.4115 19.2595 10.2969L19.3293 10.2637ZM19.4044 10.7789C19.2861 10.8476 19.2317 10.9192 19.2083 10.9836C19.1825 11.0545 19.1788 11.1592 19.2365 11.3151C19.3423 11.4138 19.4161 11.4347 19.4598 11.4347C19.5016 11.4347 19.5705 11.4155 19.6674 11.3158C19.7622 11.1003 19.7441 10.9932 19.7173 10.944C19.6908 10.8955 19.6135 10.8246 19.4044 10.7789ZM31.5054 13.6545L31.6385 13.6745C31.9897 13.7272 32.3262 13.8344 32.6473 13.9954L32.8361 14.09L32.7721 14.2913C32.4924 15.1706 32.4972 15.9065 32.7518 16.5175C33.0042 17.1232 33.5171 17.6424 34.3273 18.064C35.1936 18.307 35.9186 18.2835 36.5195 18.0241C37.1257 17.7625 37.6401 17.2462 38.052 16.4406L38.1572 16.2349L41.9821 17.8741L42.0157 17.9078C42.0709 17.963 42.1306 18.0505 42.1306 18.1676C42.1306 18.2802 42.0753 18.3655 42.022 18.421C36.5291 24.6217 31.0068 30.7955 25.4549 36.9421L25.3379 37.0716L25.1767 37.0047C21.769 35.5912 18.3565 34.1894 14.9392 32.7993L14.5681 32.6483L14.8694 32.3844C15.083 32.1972 15.2666 31.9873 15.421 31.7541L15.5116 31.6172L15.673 31.6476C16.2801 31.7622 16.8978 31.7906 17.5267 31.7324C18.2199 31.4774 18.6904 31.1114 18.9685 30.648C19.2472 30.1833 19.3507 29.5905 19.252 28.8489C19.1368 28.5325 19.0509 28.2153 18.995 27.8972L18.9742 27.7791L19.054 27.6897C23.1925 23.0559 27.3133 18.4112 31.4164 13.7555L31.5054 13.6545ZM41.538 18.2217L38.3828 16.8695C37.9491 17.6392 37.396 18.1843 36.7154 18.4781C35.9765 18.797 35.1214 18.8047 34.1681 18.5327L34.1446 18.526L34.1228 18.5148C33.229 18.0547 32.6073 17.4561 32.2955 16.7076C32.0066 16.0143 31.9967 15.224 32.2384 14.3514C32.0622 14.2779 31.8814 14.2229 31.6958 14.1861C27.649 18.7774 23.5851 23.3581 19.5039 27.9282C19.5557 28.1857 19.6294 28.444 19.7252 28.7034L19.7345 28.7285L19.7382 28.7551C19.8537 29.5874 19.7476 30.3102 19.3924 30.9023C19.037 31.4947 18.4507 31.9252 17.6652 32.2081L17.6361 32.2185L17.6053 32.2215C16.9746 32.2827 16.3526 32.2628 15.7398 32.1615C15.6578 32.2739 15.5696 32.3813 15.4751 32.4836C18.7228 33.8056 21.966 35.1381 25.2049 36.4812C30.678 30.421 36.1224 24.3345 41.538 18.2217ZM33.5561 14.4539L33.8022 14.5335C34.9363 14.9003 36.0257 15.359 37.0703 15.9096L37.2687 16.0141L37.1839 16.2217C37.1404 16.3281 37.0886 16.4286 37.0283 16.523L37.0784 16.6106L36.9861 16.7395C36.8932 16.8693 36.7631 16.9483 36.6102 16.9664C36.1165 17.2858 35.6206 17.4327 35.1308 17.3685C34.622 17.3017 34.1634 17.0129 33.753 16.5464L33.7372 16.5285L33.7252 16.5079C33.3944 15.9421 33.3146 15.3355 33.4877 14.7034L33.5561 14.4539ZM36.5881 16.7423C36.5997 16.7552 36.6162 16.7694 36.6389 16.7807C36.6782 16.8003 36.7147 16.8008 36.7364 16.7976L36.7355 16.7914L36.5881 16.7423ZM36.5463 16.3501C36.5744 16.3136 36.6007 16.2754 36.6251 16.2354C35.7524 15.7888 34.8477 15.4071 33.9112 15.0903C33.8547 15.4909 33.9306 15.8706 34.1401 16.2379C34.493 16.6331 34.8453 16.8324 35.1951 16.8783C35.5345 16.9228 35.9114 16.8281 36.334 16.5563C36.3827 16.4668 36.455 16.3966 36.5463 16.3501ZM8.80689 17.1365C8.31059 17.615 8.08745 18.0681 8.07586 18.4969C8.06431 18.9245 8.26164 19.3852 8.72906 19.8832C9.21867 20.1616 9.6522 20.2512 10.0392 20.1867C10.3948 20.1274 10.7422 19.9329 11.0796 19.5754C11.066 19.5195 11.0652 19.4566 11.0878 19.3887C11.1221 19.2859 11.1966 19.2197 11.2696 19.1764C11.4478 18.712 11.4658 18.3204 11.355 17.988C11.2462 17.6618 11.0024 17.359 10.5916 17.0867C10.5246 17.1043 10.4518 17.1075 10.3757 17.0885C10.2777 17.064 10.1991 17.0086 10.1367 16.9435C9.68175 16.8387 9.24212 16.9009 8.80689 17.1365ZM10.3029 16.4751C9.69525 16.3209 9.10307 16.4049 8.53897 16.7196L8.51176 16.7348L8.48918 16.7562C7.92222 17.2947 7.59822 17.8708 7.58166 18.4835C7.56509 19.0966 7.85788 19.6869 8.39565 20.2501L8.41985 20.2755L8.45015 20.2931C9.0206 20.6249 9.58077 20.7643 10.1205 20.6743C10.6606 20.5843 11.1419 20.2711 11.5667 19.7724L11.5751 19.7625L11.5825 19.7517C11.6521 19.6501 11.6933 19.5368 11.7066 19.4158C11.9353 18.8515 11.9862 18.3182 11.824 17.8316C11.6585 17.3353 11.2844 16.9268 10.7423 16.5968C10.6077 16.5151 10.4593 16.4748 10.3029 16.4751ZM11.5124 19.4849L11.5454 19.571C11.5495 19.5637 11.5535 19.5551 11.5568 19.545C11.5708 19.5032 11.5642 19.4662 11.5563 19.4458C11.556 19.4452 11.5558 19.4445 11.5555 19.4439L11.5124 19.4849ZM15.9512 17.3246L15.9781 17.3258C16.8928 17.3668 17.6394 17.626 18.1894 18.1288C18.7393 18.6317 19.064 19.3519 19.186 20.2589L19.1909 20.2953L19.185 20.3315C19.0028 21.4538 18.5814 22.2829 17.8793 22.7536C17.177 23.2244 16.2511 23.2985 15.1458 23.0392L15.1181 23.0327L15.0926 23.0201C14.3544 22.6546 13.8244 22.1655 13.5329 21.5431C13.2415 20.9211 13.2028 20.1965 13.3894 19.3867L13.3942 19.3659L13.4024 19.3462C13.8778 18.2167 14.726 17.5371 15.9248 17.3292L15.9512 17.3246ZM15.9829 17.821C14.9732 18.0035 14.2749 18.5625 13.8664 19.5185C13.7032 20.242 13.7501 20.8414 13.9806 21.3335C14.2101 21.8236 14.6357 22.237 15.2865 22.5643C16.3068 22.7988 17.0649 22.7045 17.604 22.343C18.1418 21.9824 18.5176 21.3186 18.691 20.2885C18.5763 19.4798 18.2906 18.8913 17.8558 18.4937C17.4191 18.0945 16.804 17.8621 15.9829 17.821ZM9.67541 18.241C9.53006 18.3452 9.48425 18.4317 9.47404 18.4904C9.46429 18.5465 9.477 18.6365 9.57821 18.7714C9.74463 18.8362 9.84402 18.826 9.90322 18.7991C9.96193 18.7724 10.035 18.7049 10.099 18.5427C10.058 18.4228 10.0028 18.3525 9.94544 18.3111C9.88726 18.2691 9.80286 18.2394 9.67541 18.241ZM10.2349 17.9103C10.4223 18.0457 10.5368 18.2497 10.5982 18.4883L10.6162 18.558L10.5939 18.6264C10.5036 18.9042 10.3529 19.1377 10.1078 19.2492C9.8615 19.3611 9.58802 19.3189 9.32321 19.2004L9.27111 19.1771L9.23451 19.1333C9.05351 18.9168 8.94114 18.6693 8.98697 18.4057C9.03226 18.1452 9.21934 17.9445 9.46056 17.7896L9.51245 17.7563L9.57391 17.7512C9.81809 17.7312 10.047 17.7746 10.2349 17.9103ZM16.0157 18.6818L16.07 18.6858C16.5379 18.72 16.9354 18.8633 17.2404 19.1344C17.5454 19.4055 17.7345 19.7837 17.8241 20.2447L17.8354 20.303L17.8191 20.36C17.6199 21.0545 17.2978 21.5597 16.8014 21.7582C16.3036 21.9573 15.7275 21.8096 15.1162 21.4377L15.0627 21.4051L15.0311 21.3509C14.6981 20.7789 14.569 20.236 14.7383 19.7549C14.9078 19.2732 15.348 18.9334 15.9648 18.701L16.0157 18.6818ZM16.0879 19.1834C15.567 19.3892 15.3011 19.6447 15.2046 19.919C15.1084 20.1925 15.1543 20.559 15.4273 21.0477C15.962 21.3612 16.3458 21.408 16.6178 21.2992C16.8918 21.1896 17.1437 20.886 17.3269 20.2813C17.2493 19.929 17.1063 19.6767 16.9119 19.5039C16.7167 19.3304 16.4484 19.2181 16.0879 19.1834ZM32.0849 21.893C31.5876 22.0717 31.24 22.4064 31.0322 22.9128C30.8878 23.6263 30.9689 24.1411 31.2176 24.4997C31.4654 24.857 31.9164 25.1122 32.6302 25.2263C33.1764 25.1772 33.5591 25.0068 33.812 24.7424C34.0663 24.4765 34.2198 24.0837 34.2431 23.5312C34.158 22.8566 33.9291 22.4187 33.5938 22.1643C33.2586 21.91 32.7693 21.8029 32.0849 21.893ZM33.8926 21.7705C34.3756 22.1368 34.6439 22.7286 34.7363 23.4911L34.7386 23.5103L34.7379 23.5298C34.7145 24.1721 34.5351 24.7017 34.1693 25.0841C33.8034 25.4666 33.2823 25.6694 32.6415 25.7215L32.6127 25.7239L32.5841 25.7195C31.7807 25.5965 31.1692 25.2974 30.8113 24.7814C30.4535 24.2655 30.3872 23.5874 30.5526 22.7908L30.557 22.7695L30.565 22.7493C30.8266 22.0947 31.2903 21.6451 31.9457 21.4179L31.9688 21.4098L31.993 21.4065C32.7632 21.3006 33.4105 21.4047 33.8926 21.7705ZM32.444 23.2526C32.3605 23.3088 32.3066 23.3863 32.2814 23.4987C32.3825 23.7663 32.4784 23.8264 32.5182 23.8359C32.5552 23.8448 32.6604 23.837 32.8565 23.6563C32.8798 23.4554 32.8382 23.3667 32.8025 23.3288C32.7643 23.2884 32.6692 23.2385 32.444 23.2526ZM33.1619 22.9894C33.3627 23.202 33.3865 23.5068 33.3324 23.818L33.319 23.8949L33.264 23.9501C33.0134 24.2018 32.7165 24.392 32.4028 24.3167C32.0913 24.2419 31.9087 23.9395 31.7928 23.6008L31.774 23.5458L31.7816 23.4882C31.8224 23.1813 31.979 22.9396 32.249 22.7935L32.2927 22.7699L32.3423 22.765C32.6587 22.7337 32.9622 22.778 33.1619 22.9894ZM25.5562 23.1871L25.5861 23.1892C26.771 23.2723 27.6649 23.6314 28.2 24.3183C28.735 25.005 28.8657 25.9608 28.6588 27.1326L28.6528 27.1664L28.6379 27.1973C28.2548 27.9882 27.7416 28.5481 27.0863 28.8402C26.4311 29.1323 25.6697 29.1408 24.8214 28.8993L24.801 28.8935L24.7819 28.8843C24.0321 28.5236 23.4948 28.0367 23.2025 27.4127C22.9104 26.789 22.8784 26.0609 23.0769 25.2466L23.0805 25.2318L23.086 25.2175C23.5174 24.0813 24.339 23.398 25.5266 23.1923L25.5562 23.1871ZM25.5817 23.6846C24.5897 23.8649 23.9214 24.4218 23.5536 25.3787C23.378 26.1091 23.4199 26.7113 23.6502 27.203C23.8798 27.6932 24.3115 28.1055 24.9771 28.4296C25.7396 28.6431 26.3693 28.6185 26.885 28.3887C27.3976 28.1601 27.8324 27.7132 28.1779 27.0126C28.3637 25.9276 28.2196 25.1479 27.81 24.6221C27.4 24.0959 26.6791 23.7666 25.5817 23.6846ZM6.86787 25.2335C8.04252 25.2496 9.20651 25.2259 10.3598 25.1623C10.1163 24.572 9.6786 24.1812 9.03298 23.9762C8.40538 23.9071 7.92615 24.0106 7.56893 24.2547C7.27001 24.459 7.03238 24.7782 6.86787 25.2335ZM10.9057 25.2189C10.6317 24.3508 10.0424 23.7704 9.15722 23.497L9.13542 23.4903L9.11277 23.4877C8.39489 23.4044 7.77819 23.5129 7.29 23.8465C6.80173 24.1802 6.47733 24.7148 6.29587 25.413L6.22264 25.6947L6.51253 25.7213C7.1522 25.78 7.85394 25.8086 8.61734 25.8073L11.0841 25.7108L11.0259 25.4257C11.0139 25.3671 10.9871 25.2981 10.9294 25.2404C10.9217 25.2328 10.9138 25.2256 10.9057 25.2189ZM25.6246 24.5434L25.6813 24.5497C26.3843 24.6283 26.9263 24.8592 27.2054 25.3094C27.4849 25.7602 27.4485 26.3461 27.2025 27.006L27.1831 27.058L27.1433 27.0968C26.7045 27.5239 26.2405 27.7638 25.7582 27.728C25.2761 27.6923 24.852 27.3868 24.4802 26.8997L24.4528 26.8639L24.4399 26.8208C24.2835 26.3002 24.2815 25.8256 24.4819 25.4248C24.6825 25.0235 25.0626 24.7434 25.5709 24.5625L25.6246 24.5434ZM25.6834 25.0478C25.2821 25.2004 25.0439 25.4062 24.9241 25.6459C24.8028 25.8885 24.7805 26.2099 24.9008 26.6354C25.2203 27.0418 25.5201 27.2146 25.7948 27.235C26.0675 27.2552 26.3866 27.1303 26.7584 26.7809C26.9636 26.2047 26.9401 25.8197 26.7852 25.5699C26.6301 25.3197 26.2938 25.1252 25.6834 25.0478ZM23.8355 30.9029C23.4615 31.0419 23.1302 31.2624 22.8405 31.5679C22.5706 32.0868 22.4982 32.5368 22.5863 32.9302C22.674 33.3218 22.9293 33.6959 23.3906 34.0476C24.1292 34.2863 24.6719 34.2584 25.0605 34.0356C25.4488 33.8129 25.7464 33.3593 25.9129 32.6029C25.8241 31.9657 25.6024 31.5341 25.2772 31.267C24.9508 30.9989 24.4819 30.8651 23.8355 30.9029ZM25.591 30.885C26.0519 31.2636 26.314 31.8436 26.4088 32.5813L26.4141 32.6228L26.4055 32.6638C26.2264 33.5133 25.8743 34.1387 25.3065 34.4644C24.7387 34.79 24.0208 34.7783 23.1966 34.5043L23.1588 34.4917L23.1269 34.4679C22.5813 34.0614 22.2266 33.5865 22.1039 33.0382C21.9811 32.4899 22.0993 31.9087 22.419 31.3071L22.4342 31.2786L22.4561 31.255C22.8108 30.873 23.2264 30.5952 23.7013 30.4256L23.7336 30.4141L23.7678 30.4118C24.5101 30.3618 25.1301 30.5064 25.591 30.885ZM36.6139 32.0839C36.3875 32.2093 36.1859 32.3765 36.009 32.5877C35.899 32.7678 35.8541 32.9465 35.8706 33.131C36.541 32.9927 37.1979 32.7949 37.8414 32.5373C37.8369 32.5298 37.8315 32.522 37.8254 32.5139C37.501 32.1375 37.1083 31.9966 36.6139 32.0839ZM36.4824 31.6055C37.168 31.4705 37.7541 31.6703 38.205 32.1971L38.2123 32.2057C38.3358 32.3639 38.3882 32.5517 38.3434 32.7517L38.3155 32.8766L38.1974 32.9259C37.3944 33.2612 36.5703 33.507 35.7254 33.6631L35.513 33.7023L35.4456 33.4971C35.3105 33.0856 35.3648 32.6836 35.5986 32.3113L35.6072 32.2978L35.6174 32.2854C35.8444 32.0106 36.1102 31.7912 36.4142 31.6297L36.4465 31.6126L36.4824 31.6055ZM24.1153 32.2653C23.9742 32.3677 23.9293 32.4528 23.9193 32.5108C23.9093 32.5682 23.9228 32.6611 24.0306 32.8012C24.1799 32.8774 24.2693 32.8758 24.3204 32.8588C24.3706 32.8421 24.4414 32.7912 24.5133 32.6458C24.5056 32.4865 24.4604 32.4035 24.4123 32.3582C24.364 32.3128 24.2763 32.2708 24.1153 32.2653ZM24.7511 31.9982C24.9388 32.1749 25.0093 32.4255 25.0088 32.6982L25.0087 32.7495L24.9882 32.7965C24.8807 33.0431 24.7189 33.2471 24.4768 33.3278C24.2348 33.4085 23.9827 33.3428 23.748 33.2105L23.7087 33.1883L23.6797 33.1537C23.4987 32.9372 23.3864 32.6897 23.4322 32.4261C23.4775 32.1656 23.6646 31.9648 23.9058 31.81L23.9638 31.7727L24.0327 31.7709C24.3092 31.7634 24.5651 31.8231 24.7511 31.9982Z" fill="#848D6F"/>
</g>
</g>
</svg>
