<svg width="44" height="44" viewBox="0 0 44 44" fill="none" xmlns="http://www.w3.org/2000/svg">
<g id="chilli">
<g id="Vector">
<path fill-rule="evenodd" clip-rule="evenodd" d="M19.6208 0.247191C20.1873 0.247191 20.7537 0.247191 21.3202 0.247191C22.8237 1.06735 23.0786 2.18615 22.085 3.60358C21.915 3.71687 21.7451 3.83018 21.5751 3.94347C20.9551 4.07058 20.3319 4.18387 19.7057 4.28336C18.6136 4.70943 17.9338 5.48834 17.6664 6.62008C20.3868 6.51431 22.0437 7.78889 22.6373 10.4438C22.7067 12.5775 22.5934 14.7018 22.2974 16.8167C21.9096 18.906 21.4281 20.9737 20.8529 23.0197C20.2988 25.7954 20.0438 28.5994 20.0881 31.4319C19.9945 32.6561 19.7396 33.8457 19.3234 35.0007C18.1282 37.3794 17.5051 39.9002 17.454 42.5632C17.21 43.1431 16.7994 43.5397 16.2219 43.7528C15.8253 43.7528 15.4289 43.7528 15.0323 43.7528C14.4548 43.5397 14.0442 43.1431 13.8002 42.5632C13.7138 41.1332 13.5155 39.717 13.2054 38.3146C12.8518 37.1825 12.427 36.0779 11.9308 35.0007C11.5146 33.8457 11.2597 32.6561 11.1661 31.4319C11.1672 29.213 11.0255 27.0037 10.7412 24.8041C10.1321 22.0845 9.52314 19.3654 8.91431 16.6468C9.00141 16.0363 9.3413 15.8239 9.93398 16.0095C10.0897 16.052 10.1889 16.1511 10.2314 16.3069C10.8546 19.0831 11.4777 21.8588 12.1008 24.6341C12.3818 26.8625 12.5234 29.1001 12.5256 31.3469C12.6111 32.4255 12.8376 33.4736 13.2054 34.4909C14.4015 36.868 15.0246 39.3887 15.0748 42.0534C15.2584 42.3613 15.5275 42.4605 15.882 42.3508C16.0378 42.3083 16.1369 42.2091 16.1794 42.0534C16.2295 39.389 16.8526 36.8681 18.0488 34.4909C18.2534 33.877 18.4233 33.2539 18.5586 32.6215C18.7034 30.1849 18.8734 27.7491 19.0685 25.3139C19.1826 24.4877 19.3241 23.6664 19.4933 22.8497C20.0417 20.7976 20.5233 18.7299 20.9378 16.6468C21.217 14.7584 21.3302 12.8608 21.2777 10.9537C20.7677 11.4709 20.1588 11.825 19.4508 12.0158C18.1799 12.1114 16.9053 12.1539 15.6271 12.1433C14.3489 12.1539 13.0743 12.1114 11.8034 12.0158C11.0954 11.825 10.4865 11.4709 9.97646 10.9537C9.9576 12.0871 9.9576 13.22 9.97646 14.3525C9.84654 14.6088 9.63411 14.7221 9.33917 14.6924C9.02673 14.7064 8.8143 14.5647 8.70188 14.2676C8.58591 12.9948 8.55758 11.7202 8.61691 10.4438C8.94966 8.58165 10.0118 7.34956 11.8034 6.74754C12.4245 6.66515 13.0476 6.59434 13.6727 6.53511C14.2754 3.11208 16.2581 1.0161 19.6208 0.247191ZM20.6404 1.52177C21.2493 1.63482 21.4333 1.9747 21.1928 2.54143C21.0527 2.64484 20.897 2.71565 20.7254 2.75386C18.2576 2.91366 16.7848 4.2024 16.3069 6.62008C15.9103 6.62008 15.5138 6.62008 15.1173 6.62008C15.4212 4.34679 16.6392 2.77481 18.7711 1.90414C19.3938 1.71449 20.0169 1.58704 20.6404 1.52177ZM14.9473 7.97963C16.9874 7.82322 18.262 8.72959 18.7711 10.6987C18.5785 10.7679 18.3802 10.8104 18.1763 10.8262C16.4768 10.8829 14.7774 10.8829 13.0779 10.8262C12.874 10.8104 12.6757 10.7679 12.4831 10.6987C12.7748 9.3029 13.5962 8.39652 14.9473 7.97963ZM12.0583 8.06461C12.1211 8.05348 12.1777 8.06764 12.2282 8.10709C11.7288 8.72361 11.3747 9.41753 11.1661 10.1889C10.8938 9.94512 10.6531 9.6761 10.4438 9.38167C10.8565 8.78009 11.3946 8.34106 12.0583 8.06461ZM19.026 8.14958C19.7654 8.29699 20.3602 8.70768 20.8104 9.38167C20.6011 9.6761 20.3604 9.94512 20.0881 10.1889C19.8875 9.41914 19.5334 8.73934 19.026 8.14958Z" fill="#848D6F"/>
<path fill-rule="evenodd" clip-rule="evenodd" d="M27.7781 0.247191C28.1746 0.247191 28.5711 0.247191 28.9677 0.247191C29.5452 0.460293 29.9558 0.856829 30.1998 1.4368C30.2862 2.86679 30.4844 4.28298 30.7946 5.68539C31.1481 6.81743 31.573 7.92207 32.0692 8.9993C32.4854 10.1543 32.7403 11.3439 32.8339 12.5681C32.8328 14.787 32.9745 16.9963 33.2588 19.1959C33.8678 21.9155 34.4768 24.6346 35.0857 27.3532C34.9986 27.9637 34.6587 28.1761 34.066 27.9905C33.9102 27.948 33.8111 27.8489 33.7686 27.6931C33.1453 24.9169 32.5222 22.1412 31.8992 19.3659C31.6182 17.1375 31.4766 14.8999 31.4744 12.6531C31.3889 11.5745 31.1623 10.5264 30.7946 9.50913C29.5983 7.13184 28.9752 4.61102 28.9252 1.94663C28.7416 1.63868 28.4725 1.53955 28.118 1.64923C27.9622 1.69171 27.8631 1.79085 27.8206 1.94663C27.7704 4.61123 27.1473 7.13207 25.9512 9.50913C25.7466 10.123 25.5766 10.7461 25.4414 11.3785C25.3093 14.0448 25.111 16.7073 24.8465 19.3659C24.2518 22.0279 23.657 24.6904 23.0621 27.3532C22.783 29.2416 22.6697 31.1392 22.7222 33.0463C23.2323 32.5291 23.8412 32.175 24.5491 31.9842C25.8201 31.8886 27.0946 31.8461 28.3729 31.8567C29.6511 31.8461 30.9257 31.8886 32.1966 31.9842C32.9046 32.175 33.5135 32.5291 34.0235 33.0463C34.0424 31.9129 34.0424 30.78 34.0235 29.6475C34.1534 29.3912 34.3659 29.2779 34.6608 29.3076C34.9732 29.2936 35.1857 29.4353 35.2981 29.7324C35.4141 31.0052 35.4424 32.2798 35.3831 33.5562C35.0503 35.4183 33.9882 36.6504 32.1966 37.2525C31.5755 37.3349 30.9524 37.4057 30.3272 37.4649C29.7245 40.8879 27.7419 42.9839 24.3792 43.7528C23.8127 43.7528 23.2463 43.7528 22.6798 43.7528C21.1763 42.9327 20.9214 41.8138 21.915 40.3964C22.085 40.2831 22.2549 40.1698 22.4248 40.0565C23.0449 39.9294 23.6681 39.8161 24.2942 39.7166C25.3864 39.2906 26.0661 38.5117 26.3336 37.3799C24.1138 37.5237 22.5419 36.589 21.6176 34.5758C21.506 34.2428 21.4211 33.9029 21.3627 33.5562C21.2718 31.1023 21.4417 28.6664 21.8725 26.2486C22.245 24.4799 22.6698 22.7238 23.1471 20.9803C23.7012 18.2046 23.9561 15.4006 23.9119 12.5681C24.0055 11.3439 24.2604 10.1543 24.6766 8.9993C25.8718 6.62063 26.4949 4.09979 26.546 1.4368C26.7899 0.856829 27.2006 0.460293 27.7781 0.247191ZM25.8237 33.1313C27.5517 33.1171 29.2794 33.1313 31.007 33.1738C31.1835 33.1901 31.3534 33.2326 31.5168 33.3013C30.9421 35.4585 29.5542 36.3224 27.3532 35.8929C26.1615 35.4236 25.4534 34.5597 25.2289 33.3013C25.4387 33.2445 25.637 33.1878 25.8237 33.1313ZM23.8694 33.8111C24.1119 34.5649 24.4801 35.2588 24.974 35.8929C24.225 35.701 23.6302 35.2761 23.1896 34.6183C23.4022 34.3351 23.6287 34.0661 23.8694 33.8111ZM32.7914 33.8111C33.0887 34.0376 33.3437 34.3067 33.5562 34.6183C33.1156 35.2761 32.5208 35.701 31.7718 35.8929C32.2817 35.2837 32.6216 34.5898 32.7914 33.8111ZM27.6931 37.3799C28.0897 37.3799 28.4861 37.3799 28.8827 37.3799C28.5384 39.7504 27.2355 41.3507 24.974 42.1808C24.4241 42.3162 23.8717 42.4154 23.3171 42.4782C22.7381 42.3399 22.5681 42 22.8072 41.4586C22.9473 41.3552 23.103 41.2844 23.2746 41.2461C25.7427 41.086 27.2156 39.7972 27.6931 37.3799Z" fill="#848D6F"/>
<path fill-rule="evenodd" clip-rule="evenodd" d="M19.5929 0H21.3833L21.4386 0.0301875C22.2216 0.457327 22.7304 0.989773 22.88 1.64649C23.0295 2.30232 22.8039 3.0087 22.2874 3.74548L22.2607 3.7835L21.6721 4.17593L21.6248 4.18562C21.0099 4.31167 20.392 4.4242 19.7712 4.52323C18.8711 4.88112 18.2835 5.49103 17.9943 6.36685C19.2438 6.37009 20.2858 6.67433 21.1001 7.30076C21.9868 7.98279 22.573 9.02323 22.8785 10.3899L22.8836 10.4126L22.8843 10.4358C22.9542 12.5837 22.8402 14.7221 22.5422 16.851L22.5407 16.8619C22.1521 18.9554 21.6696 21.0272 21.0934 23.0774C20.544 25.8328 20.2913 28.6163 20.3353 31.428L20.3355 31.4394L20.3346 31.4507C20.2393 32.6971 19.9797 33.9086 19.5559 35.0845L19.5509 35.0984L19.5442 35.1117C18.3656 37.4574 17.7515 39.9418 17.7011 42.5679L17.7002 42.6153L17.6818 42.6591C17.412 43.3005 16.9508 43.7473 16.3075 43.9847L16.2661 44H14.9881L14.9467 43.9847C14.3034 43.7473 13.8422 43.3005 13.5723 42.6591L13.556 42.6202L13.5535 42.5781C13.468 41.1646 13.2724 39.7646 12.9663 38.3782C12.6165 37.2598 12.1965 36.1685 11.7063 35.1041L11.7019 35.0945L11.6983 35.0845C11.2745 33.9086 11.0149 32.6971 10.9196 31.4507L10.9189 31.4413L10.9189 31.4318C10.92 29.2273 10.7795 27.0324 10.4975 24.847L8.66321 16.6566L8.6696 16.6119C8.71787 16.2735 8.84474 15.9817 9.10354 15.82C9.36066 15.6593 9.67779 15.671 10.0037 15.7723C10.2414 15.8387 10.4048 16.0032 10.4699 16.2418L10.4728 16.2527L12.3445 24.5915L12.346 24.6032C12.6279 26.8386 12.7702 29.0831 12.7728 31.3369C12.8567 32.3853 13.0767 33.4039 13.4329 34.3931C14.6308 36.7783 15.2601 39.3075 15.3205 41.978C15.3803 42.0617 15.4414 42.1052 15.4998 42.1267C15.5701 42.1527 15.6682 42.1582 15.8089 42.1146L15.8169 42.1122C15.8793 42.0951 15.9126 42.0677 15.933 42.0133C15.9884 39.331 16.6176 36.791 17.8199 34.3959C18.0172 33.802 18.1815 33.1995 18.313 32.588C18.4576 30.156 18.6273 27.7248 18.8221 25.2942L18.8226 25.2871L18.8236 25.2801C18.9385 24.4484 19.081 23.6217 19.2513 22.7996L19.2527 22.7927L19.2545 22.7859C19.801 20.7409 20.2809 18.6805 20.6942 16.6046C20.9445 14.9094 21.06 13.2067 21.041 11.4963C20.5923 11.8484 20.0831 12.1014 19.5152 12.2545L19.4926 12.2605L19.4694 12.2623C18.1923 12.3584 16.9115 12.4011 15.6271 12.3905C14.3427 12.4011 13.0619 12.3584 11.7848 12.2623L11.7616 12.2605L11.739 12.2545C11.1723 12.1017 10.6641 11.8495 10.2161 11.4985C10.2053 12.4488 10.2078 13.3988 10.2236 14.3484L10.2246 14.4097L10.1969 14.4643C10.1135 14.6288 9.99516 14.7629 9.83602 14.8478C9.68261 14.9296 9.51074 14.9553 9.33227 14.94C9.14219 14.9457 8.96257 14.9051 8.8084 14.8023C8.64974 14.6965 8.54064 14.5399 8.47069 14.355L8.45877 14.3235L8.45571 14.29C8.33871 13.0059 8.31013 11.72 8.36999 10.4323L8.37074 10.4162L8.37358 10.4003C8.54646 9.43283 8.91142 8.61647 9.47586 7.96172C10.0403 7.30697 10.7937 6.82605 11.7246 6.51323L11.7472 6.50563L11.7709 6.5025C12.3335 6.42787 12.8976 6.3627 13.4635 6.30699C13.785 4.64194 14.4379 3.27706 15.4322 2.22599C16.4632 1.13607 17.8462 0.399398 19.5657 0.00621943L19.5929 0ZM19.6488 0.494382C18.0185 0.871548 16.7378 1.56519 15.7913 2.56573C14.8396 3.5719 14.2109 4.90425 13.9162 6.57798L13.8835 6.76344L13.6961 6.7812C13.082 6.83938 12.4699 6.90879 11.8597 6.98943C11.0098 7.27865 10.3437 7.71221 9.85031 8.28453C9.35553 8.85848 9.02403 9.58406 8.86309 10.4715C8.80582 11.7192 8.83306 12.965 8.94481 14.2092C8.98515 14.3034 9.03371 14.3583 9.08264 14.391C9.13607 14.4266 9.21242 14.4506 9.32816 14.4455L9.34607 14.4447L9.3639 14.4465C9.47399 14.4575 9.54946 14.4403 9.60338 14.4116C9.64632 14.3887 9.68893 14.3514 9.72821 14.2897C9.7104 13.1768 9.71077 12.0634 9.72931 10.9495L9.7391 10.3609L10.1525 10.7801C10.6261 11.2604 11.189 11.5902 11.8455 11.7711C13.1017 11.8649 14.3616 11.9066 15.625 11.8961L15.6291 11.896C16.8926 11.9065 18.1525 11.8649 19.4087 11.7711C20.0652 11.5902 20.6281 11.2604 21.1017 10.7801L21.5089 10.3672L21.5248 10.9468C21.5777 12.8683 21.4636 14.7804 21.1824 16.6829L21.1806 16.6951C20.7654 18.7812 20.283 20.8517 19.734 22.9067C19.567 23.7134 19.4272 24.5247 19.3143 25.3407C19.1196 27.7719 18.9499 30.2036 18.8054 32.6362L18.8043 32.6549L18.8003 32.6732C18.6632 33.3146 18.4908 33.9465 18.2833 34.569L18.2776 34.586L18.2696 34.602C17.09 36.9461 16.4759 39.4306 16.4266 42.058L16.426 42.0888L16.4179 42.1184C16.3528 42.3572 16.1892 42.5218 15.9513 42.5881C15.7387 42.6532 15.5264 42.6634 15.3289 42.5906C15.129 42.517 14.9758 42.3701 14.8625 42.18L14.8289 42.1236L14.8276 42.058C14.7782 39.4303 14.1641 36.9459 12.9846 34.602L12.9779 34.5888L12.9729 34.5749C12.5976 33.5368 12.3664 32.4671 12.2792 31.3664L12.2784 31.3568L12.2784 31.3472C12.2762 29.1145 12.1357 26.8911 11.857 24.6768L9.99159 16.3672C9.97196 16.2991 9.93866 16.267 9.86893 16.248L9.86006 16.2455C9.59476 16.1625 9.44724 16.1882 9.36556 16.2392C9.28889 16.2872 9.20727 16.3967 9.16579 16.6386L10.9849 24.7611L10.9864 24.7724C11.2716 26.9794 11.414 29.1961 11.4133 31.4224C11.5055 32.6176 11.7543 33.779 12.1598 34.907C12.6585 35.9908 13.0857 37.1021 13.4413 38.2409L13.4445 38.251L13.4468 38.2612C13.7566 39.6621 13.9557 41.0768 14.0443 42.505C14.2579 42.9892 14.5996 43.3185 15.0777 43.5056H16.1765C16.653 43.3191 16.9941 42.9913 17.2078 42.5097C17.2661 39.8327 17.8956 37.2964 19.0958 34.9031C19.5002 33.7769 19.7485 32.6175 19.8408 31.4243C19.7971 28.5782 20.0537 25.7604 20.6105 22.9713L20.6123 22.9619L20.6149 22.9528C21.1876 20.9158 21.6671 18.8571 22.0533 16.777C22.3458 14.6857 22.4583 12.5851 22.391 10.4752C22.1017 9.1987 21.5645 8.2817 20.7987 7.69262C20.0284 7.10006 18.9962 6.81576 17.676 6.86709L17.3511 6.87972L17.4259 6.56324C17.7121 5.35167 18.4488 4.50839 19.6159 4.05307L19.6407 4.0434L19.667 4.03923C20.2736 3.94284 20.8774 3.83343 21.4782 3.71097L21.9087 3.42399C22.365 2.76026 22.5015 2.21071 22.398 1.75632C22.2954 1.30604 21.941 0.879545 21.2563 0.494382H19.6488ZM27.7339 0H29.0118L29.0533 0.0152867C29.6966 0.252679 30.1578 0.699483 30.4276 1.34095L30.444 1.37981L30.4465 1.42189C30.5319 2.83541 30.7276 4.23532 31.0337 5.62174C31.3834 6.74013 31.8034 7.83149 32.2937 8.89589L32.2981 8.90552L32.3017 8.9155C32.7254 10.0914 32.985 11.3029 33.0804 12.5493L33.0811 12.5587L33.0811 12.5682C33.08 14.7727 33.2205 16.9676 33.5025 19.153L35.3368 27.3434L35.3304 27.3881C35.2821 27.7265 35.1552 28.0182 34.8964 28.18C34.6393 28.3407 34.3222 28.329 33.9962 28.2277C33.7586 28.1613 33.5952 27.9968 33.5301 27.7582L33.5272 27.7473L31.6554 19.4085L31.654 19.3968C31.3721 17.1614 31.2298 14.9169 31.2272 12.663C31.1432 11.6147 30.9233 10.5961 30.5671 9.60692C29.3691 7.22147 28.7398 4.6923 28.6795 2.02201C28.6197 1.93834 28.5586 1.89477 28.5002 1.87327C28.4299 1.84736 28.3317 1.84184 28.191 1.88538L28.1831 1.88784C28.1206 1.90487 28.0874 1.93228 28.067 1.98672C28.0115 4.66918 27.3823 7.20921 26.1801 9.60415C25.983 10.1976 25.8187 10.7997 25.6872 11.4108C25.555 14.0745 25.3567 16.7343 25.0925 19.3903L25.091 19.4052L23.3054 27.3983C23.0554 29.0925 22.94 30.7943 22.959 32.5037C23.4077 32.1516 23.9169 31.8986 24.4848 31.7455L24.5073 31.7395L24.5306 31.7377C25.8077 31.6416 27.0885 31.5989 28.3729 31.6095C29.6573 31.5989 30.938 31.6416 32.2152 31.7377L32.2384 31.7395L32.261 31.7455C32.8277 31.8983 33.3359 32.1505 33.7839 32.5015C33.7947 31.5512 33.7922 30.6012 33.7764 29.6516L33.7753 29.5903L33.803 29.5357C33.8864 29.3712 34.0048 29.2371 34.164 29.1522C34.3174 29.0704 34.4892 29.0447 34.6677 29.06C34.8578 29.0543 35.0374 29.0949 35.1916 29.1977C35.3502 29.3035 35.4593 29.4601 35.5293 29.645L35.5412 29.6765L35.5443 29.71C35.6613 30.9941 35.6898 32.28 35.63 33.5677L35.6292 33.5838L35.6264 33.5997C35.4535 34.5672 35.0886 35.3835 34.5241 36.0383C33.9597 36.693 33.2063 37.1739 32.2754 37.4868L32.2528 37.4944L32.2291 37.4975C31.6665 37.5722 31.1023 37.6373 30.5365 37.693C30.215 39.3581 29.562 40.7229 28.5678 41.774C27.5368 42.8639 26.1538 43.6006 24.4343 43.9938L24.4071 44H22.6167L22.5614 43.9698C21.7784 43.5427 21.2696 43.0102 21.1199 42.3535C20.9705 41.6977 21.1961 40.9913 21.7126 40.2545L21.7393 40.2165L22.3279 39.8241L22.3752 39.8144C22.99 39.6883 23.608 39.5758 24.2287 39.4768C25.1263 39.1199 25.7131 38.5125 26.0032 37.6406C24.9988 37.6564 24.1156 37.4464 23.3634 36.9992C22.5259 36.5012 21.8715 35.7214 21.393 34.679L21.3874 34.6669L21.3832 34.6544C21.2676 34.309 21.1795 33.9566 21.1189 33.5972L21.1163 33.5814L21.1157 33.5653C21.0241 31.0938 21.1953 28.6403 21.6292 26.2052L21.6305 26.1976C22.0034 24.427 22.4287 22.6689 22.9064 20.9235C23.4559 18.1678 23.7086 15.384 23.6647 12.572L23.6645 12.5606L23.6654 12.5493C23.7607 11.3029 24.0203 10.0914 24.444 8.9155L24.4491 8.90156L24.4557 8.88831C25.6343 6.54267 26.2485 4.05814 26.2988 1.43206L26.2997 1.38466L26.3181 1.34095C26.588 0.699483 27.0492 0.252679 27.6925 0.0152867L27.7339 0ZM27.8234 0.494382C27.3469 0.680899 27.0059 1.00871 26.7921 1.49031C26.7338 4.16726 26.1043 6.70367 24.9042 9.09692C24.4998 10.2231 24.2515 11.3825 24.1592 12.5757C24.2029 15.4218 23.9463 18.2396 23.3895 21.0287L23.3878 21.0372L23.3855 21.0456C22.9099 22.7831 22.4864 24.5332 22.1152 26.2958C21.6889 28.6897 21.5202 31.1013 21.6091 33.5309C21.6645 33.855 21.7441 34.173 21.8478 34.4848C22.2929 35.4492 22.8847 36.1393 23.6161 36.5743C24.3507 37.011 25.2466 37.2026 26.3176 37.1332L26.6509 37.1117L26.5741 37.4368C26.2879 38.6483 25.5512 39.4916 24.3841 39.9469L24.3593 39.9566L24.333 39.9608C23.7264 40.0572 23.1226 40.1666 22.5217 40.289L22.0913 40.576C21.635 41.2397 21.4984 41.7893 21.602 42.2437C21.7046 42.694 22.0589 43.1205 22.7436 43.5056H24.3511C25.9815 43.1284 27.2622 42.4348 28.2086 41.4343C29.1604 40.4281 29.7891 39.0957 30.0838 37.422L30.1164 37.2366L30.3039 37.2188C30.918 37.1606 31.5301 37.0912 32.1403 37.0106C32.9902 36.7213 33.6563 36.2878 34.1497 35.7155C34.6444 35.1415 34.9759 34.4159 35.1369 33.5285C35.1941 32.2808 35.1669 31.035 35.0552 29.7908C35.0148 29.6966 34.9663 29.6417 34.9173 29.609C34.8639 29.5734 34.7876 29.5494 34.6718 29.5545L34.6539 29.5553L34.6361 29.5535C34.526 29.5425 34.4505 29.5597 34.3966 29.5884C34.3537 29.6113 34.311 29.6486 34.2718 29.7103C34.2896 30.8232 34.2892 31.9366 34.2707 33.0505L34.2609 33.6391L33.8475 33.2199C33.3739 32.7396 32.811 32.4098 32.1545 32.2289C30.8983 32.1351 29.6384 32.0934 28.3749 32.1039H28.3708C27.1074 32.0934 25.8475 32.1351 24.5913 32.2289C23.9348 32.4098 23.3718 32.7396 22.8983 33.2199L22.4911 33.6328L22.4752 33.0532C22.4222 31.1317 22.5364 29.2196 22.8176 27.3171L22.8189 27.3081L24.602 19.3265C24.8653 16.6769 25.0629 14.0236 25.1945 11.3663L25.1954 11.3463L25.1996 11.3268C25.3368 10.6854 25.5092 10.0535 25.7167 9.43096L25.7223 9.41399L25.7304 9.39802C26.9099 7.05407 27.524 4.56963 27.5734 1.94198L27.574 1.91124L27.5821 1.88159C27.6472 1.64276 27.8108 1.4782 28.0487 1.41191C28.2612 1.34682 28.4736 1.33659 28.6711 1.40937C28.8709 1.48298 29.0241 1.62991 29.1375 1.82003L29.1711 1.87639L29.1723 1.94199C29.2217 4.56941 29.8358 7.05385 31.0154 9.39802L31.022 9.41121L31.027 9.42509C31.4023 10.4632 31.6335 11.5329 31.7208 12.6336L31.7215 12.6432L31.7215 12.6528C31.7237 14.8855 31.8643 17.1089 32.143 19.3233L34.0084 27.6328C34.028 27.7009 34.0613 27.733 34.1311 27.752L34.1399 27.7545C34.4052 27.8375 34.5527 27.8118 34.6344 27.7608C34.7111 27.7128 34.7927 27.6033 34.8342 27.3614L33.0151 19.2389L33.0136 19.2276C32.7283 17.0206 32.586 14.8039 32.5867 12.5776C32.4945 11.3824 32.2456 10.221 31.8402 9.09298C31.3415 8.00918 30.9143 6.89786 30.5586 5.75909L30.5555 5.74904L30.5532 5.73877C30.2434 4.33786 30.0442 2.92322 29.9557 1.49495C29.7421 1.01082 29.4004 0.681497 28.9223 0.494382H27.8234ZM20.6503 1.27219L20.6856 1.27873C21.0194 1.34072 21.308 1.47698 21.4525 1.74374C21.5973 2.01106 21.5525 2.32646 21.4203 2.63802L21.3939 2.70017L21.3396 2.74028C21.1716 2.86437 20.984 2.9495 20.7792 2.99514L20.7605 2.9993L20.7414 3.00054C19.5472 3.07786 18.6184 3.42626 17.9327 4.0263C17.247 4.62626 16.7805 5.49864 16.5494 6.66802L16.51 6.86728H14.8348L14.8723 6.58733C15.188 4.22579 16.4642 2.57928 18.6776 1.6753L18.6881 1.67099L18.699 1.66767C19.3363 1.47361 19.9749 1.34289 20.6147 1.27592L20.6503 1.27219ZM18.854 2.13729C16.8989 2.93911 15.7559 4.343 15.4051 6.37289H16.1065C16.3667 5.2191 16.8623 4.30594 17.6071 3.65424C18.39 2.96918 19.4247 2.59366 20.6892 2.50852C20.7983 2.48226 20.8985 2.43969 20.9909 2.38051C21.0705 2.16604 21.0536 2.04542 21.0178 1.9792C20.9798 1.90918 20.8794 1.82351 20.6295 1.77153C20.0381 1.83581 19.4463 1.95761 18.854 2.13729ZM14.9939 8.22404C14.3665 8.4218 13.8724 8.72832 13.5011 9.13807C13.1672 9.50654 12.9241 9.96775 12.7769 10.5291C12.8801 10.554 12.985 10.5708 13.0918 10.5793C14.782 10.6356 16.4722 10.6356 18.1624 10.5793C18.2658 10.5711 18.3674 10.5551 18.4674 10.5315C18.2166 9.70736 17.8194 9.11993 17.2901 8.74355C16.7182 8.3369 15.961 8.15439 14.9939 8.22404ZM17.5766 8.34065C18.2741 8.83663 18.7457 9.61312 19.0104 10.6369L19.0668 10.8552L18.8546 10.9314C18.6413 11.008 18.4213 11.0551 18.1954 11.0726L18.1845 11.0735C16.4796 11.1303 14.7746 11.1301 13.0697 11.0732L13.0588 11.0729C12.8329 11.0554 12.6129 11.008 12.3996 10.9314L12.1972 10.8587L12.2412 10.6482C12.3945 9.91445 12.6899 9.2969 13.1347 8.80609C13.5796 8.31518 14.1632 7.96289 14.8744 7.74343L14.9009 7.73528L14.9284 7.73317C15.9881 7.65192 16.8793 7.8448 17.5766 8.34065ZM18.3706 7.76686L19.0743 7.90716C19.8831 8.0684 20.5324 8.5204 21.0159 9.24437L21.1106 9.38603L21.0119 9.52489C20.7918 9.83446 20.5388 10.1172 20.253 10.3731L19.9511 10.6434L19.8489 10.2512C19.6576 9.51712 19.3209 8.87133 18.8386 8.3108L18.3706 7.76686ZM11.5812 8.59588C11.2643 8.80487 10.9874 9.06583 10.7498 9.37971C10.8434 9.5012 10.9429 9.61788 11.0486 9.72979C11.1861 9.33074 11.3637 8.95267 11.5812 8.59588ZM12.0151 7.82121C12.1473 7.79777 12.275 7.8299 12.3804 7.91234L12.5786 8.06725L12.4203 8.2627C11.9427 8.85224 11.6044 9.5151 11.4047 10.2534L11.3 10.6406L11.0012 10.3731C10.7154 10.1172 10.4624 9.83446 10.2423 9.52489L10.1423 9.38418L10.24 9.24183C10.6792 8.60155 11.2549 8.13151 11.9632 7.83642L11.9883 7.82596L12.0151 7.82121ZM19.7039 8.65763C19.9104 8.99201 20.0783 9.34883 20.2076 9.72769C20.3129 9.61596 20.4122 9.49949 20.5055 9.37823C20.2737 9.0674 20.0068 8.82814 19.7039 8.65763ZM25.8612 33.3782C25.7505 33.4115 25.636 33.4447 25.5178 33.478C25.7649 34.5244 26.3942 35.2432 27.4229 35.6546C28.4744 35.856 29.2948 35.7428 29.9143 35.3572C30.4924 34.9974 30.9324 34.3772 31.2144 33.4596C31.1418 33.4411 31.0677 33.4281 30.9922 33.4207C29.2821 33.3787 27.5717 33.3646 25.8612 33.3782ZM25.8217 32.8841C27.5524 32.8699 29.2828 32.8841 31.0131 32.9267L31.0214 32.9269L31.0298 32.9277C31.2314 32.9463 31.4259 32.9949 31.6126 33.0734L31.8111 33.1568L31.7557 33.3649C31.4581 34.4817 30.9398 35.3013 30.1755 35.777C29.4115 36.2525 28.4447 36.3577 27.3059 36.1355L27.2837 36.1312L27.2626 36.1229C25.9912 35.6222 25.2252 34.6878 24.9856 33.3447L24.9458 33.1218L25.1644 33.0626C25.372 33.0065 25.5679 32.9505 25.7521 32.8947L25.7862 32.8844L25.8217 32.8841ZM23.9766 33.3373L24.1047 33.7354C24.3382 34.4612 24.6926 35.1294 25.169 35.741L25.6139 36.3121L24.9126 36.1324C24.1032 35.9249 23.4577 35.4628 22.9842 34.7559L22.8866 34.6102L22.9919 34.4699C23.21 34.1794 23.4425 33.9033 23.6896 33.6414L23.9766 33.3373ZM32.6326 33.3793L32.9412 33.6145C33.2598 33.8572 33.5331 34.1458 33.7604 34.479L33.8545 34.6171L33.7615 34.7559C33.288 35.4628 32.6426 35.9249 31.8331 36.1324L31.0894 36.3229L31.5822 35.7342C32.0664 35.1558 32.3885 34.4982 32.5499 33.7584L32.6326 33.3793ZM32.9313 34.2569C32.8162 34.6404 32.6588 35.0032 32.4592 35.3449C32.7625 35.1633 33.0266 34.922 33.2526 34.6196C33.1541 34.4899 33.047 34.3691 32.9313 34.2569ZM23.4965 34.6241C23.7259 34.9299 23.9944 35.1729 24.3032 35.3548C24.0962 35.013 23.9202 34.6561 23.7753 34.2844C23.6799 34.3951 23.587 34.5083 23.4965 34.6241ZM27.49 37.1327H29.1684L29.1273 37.4154C28.9498 38.6377 28.5229 39.674 27.839 40.514C27.1551 41.354 26.2246 41.9851 25.0592 42.4129L25.0464 42.4176L25.0331 42.4209C24.473 42.5587 23.9103 42.6598 23.3449 42.7239L23.3018 42.7287L23.2596 42.7187C22.9392 42.6421 22.6667 42.495 22.5343 42.2301C22.4015 41.9647 22.4484 41.6591 22.5811 41.3587L22.6076 41.2987L22.6604 41.2597C22.8284 41.1356 23.0159 41.0505 23.2208 41.0049L23.2395 41.0007L23.2586 40.9995C24.4529 40.922 25.3818 40.5735 26.0675 39.9734C26.7532 39.3734 27.2196 38.5012 27.4506 37.332L27.49 37.1327ZM27.8935 37.6271C27.6334 38.7807 27.1379 39.6938 26.3931 40.3455C25.6102 41.0305 24.5755 41.4061 23.3108 41.4915C23.2011 41.5179 23.1004 41.5608 23.0076 41.6205C22.9293 41.8231 22.9425 41.9412 22.9764 42.009C23.0119 42.0799 23.105 42.1661 23.3337 42.2275C23.8583 42.1661 24.3809 42.0717 24.9016 41.9441C25.9916 41.5418 26.839 40.9593 27.4556 40.2019C28.023 39.505 28.4037 38.6494 28.5916 37.6271H27.8935Z" fill="#848D6F"/>
</g>
</g>
</svg>
