<svg width="44" height="44" viewBox="0 0 44 44" fill="none" xmlns="http://www.w3.org/2000/svg">
<path fill-rule="evenodd" clip-rule="evenodd" d="M0.247191 13.096C0.247191 12.2746 0.247191 11.4533 0.247191 10.6318C0.430711 9.57147 0.770598 8.55176 1.26685 7.57284C1.67709 7.21581 2.05946 7.24414 2.41397 7.65781C2.47063 7.88441 2.47063 8.11099 2.41397 8.33759C1.57775 10.0775 1.37948 11.8903 1.81917 13.7758C2.48545 15.4977 3.73171 16.5173 5.55794 16.8348C5.62874 16.8065 5.69956 16.7781 5.77037 16.7498C5.52938 16.3815 5.34528 15.985 5.21805 15.5602C3.91592 14.9907 3.30695 13.9852 3.39115 12.5437C3.47972 10.5594 4.41441 9.14321 6.19522 8.2951C7.02457 7.95869 7.87429 7.8454 8.74438 7.95522C9.35287 8.1938 9.73524 8.63282 9.8915 9.27228C10.3172 11.9113 10.7704 14.5455 11.2511 17.1747C11.5462 19.8921 11.8012 22.6112 12.0158 25.332C12.1535 25.5211 12.3375 25.6345 12.5681 25.6719C13.2197 25.5444 13.8712 25.4169 14.5225 25.2895C14.9377 24.7893 15.3201 24.2653 15.6696 23.7175C15.4426 22.0016 15.1736 20.288 14.8624 18.5767C14.9093 17.9921 15.2209 17.7655 15.7971 17.8969C15.9812 17.9677 16.1086 18.0952 16.1794 18.2793C16.4646 20.005 16.7903 21.7185 17.1566 23.4201C17.4513 23.5875 17.7345 23.7715 18.0063 23.9724C17.9543 22.4236 18.3509 21.0073 19.1959 19.7238C18.7617 18.2703 18.4076 16.7974 18.1338 15.3053C17.728 13.0127 17.3316 10.7184 16.9442 8.42256C16.7044 7.41607 17.0301 6.66549 17.9213 6.17081C18.6468 5.88883 19.3833 5.83219 20.1306 6.00086C20.4602 6.36604 20.4602 6.73425 20.1306 7.1055C19.6563 7.21502 19.1749 7.3 18.6861 7.36041C18.5307 7.38365 18.4032 7.45446 18.3037 7.57284C18.2545 8.09912 18.3253 8.60895 18.5162 9.10234C19.5965 8.57296 20.6161 8.67209 21.5751 9.39974C22.082 9.82111 22.4927 10.3168 22.8072 10.8867C23.0418 9.77786 22.7303 8.84317 21.8725 8.08267C21.6318 7.19047 21.9575 6.86475 22.8497 7.1055C24.1246 8.32415 24.5354 9.78288 24.0818 11.4816C23.9006 11.8582 23.6315 12.1556 23.2746 12.3738C23.3409 12.8137 23.3692 13.2527 23.3596 13.6908C25.5817 12.4742 26.3606 10.6331 25.6963 8.16764C24.4519 4.61607 21.9452 2.71836 18.1763 2.47453C14.4803 3.02915 10.7982 3.66644 7.12992 4.3864C5.92276 4.79144 4.84645 5.41456 3.90098 6.25578C3.09059 6.38051 2.79319 6.05478 3.00878 5.2786C4.30447 4.01455 5.84812 3.20732 7.63975 2.8569C11.156 2.20714 14.6823 1.62649 18.2188 1.11498C22.416 1.37116 25.3051 3.43881 26.8859 7.31793C27.8948 10.4377 27.0592 12.916 24.3792 14.753C23.964 14.9464 23.5391 15.1164 23.1046 15.2628C21.9409 15.4803 20.7797 15.7069 19.6208 15.9426C19.8005 16.7889 20.0271 17.6244 20.3006 18.4492C23.2583 15.846 26.6005 15.2087 30.3272 16.5374C32.2184 17.5513 34.0878 18.5993 35.9354 19.6813C36.3469 20.0535 36.3753 20.45 36.0204 20.8709C35.8054 20.9918 35.5788 21.0201 35.3406 20.9559C33.57 19.9148 31.7856 18.8951 29.9874 17.8969C26.8844 16.6769 24.052 17.1301 21.4902 19.2565C20.5085 20.1534 19.8429 21.2438 19.4933 22.5279C19.2416 24.1282 19.6947 25.4877 20.8529 26.6065C20.8854 26.1266 21.0129 25.6734 21.2353 25.247C20.7919 24.5139 20.7211 23.7491 21.0228 22.9528C21.8559 21.1123 23.2862 20.1493 25.3139 20.0637C26.6099 20.0941 27.7287 20.5473 28.6703 21.4233C29.1757 22.3005 29.119 23.1502 28.5004 23.9724C27.1623 26.3372 25.8027 28.6881 24.4217 31.0251C24.1526 31.4075 23.8836 31.7898 23.6145 32.1722C22.8429 32.4454 22.4888 32.1763 22.5523 31.365C22.8609 30.8749 23.1583 30.3793 23.4445 29.878C23.4162 29.8355 23.3878 29.793 23.3596 29.7505C22.2267 29.1277 21.1221 28.462 20.0456 27.7537C19.4666 27.2033 18.9851 26.5802 18.6011 25.8843C17.9314 25.5565 17.2941 25.1741 16.6893 24.7372C16.3149 25.3384 15.8759 25.8907 15.3722 26.3941C15.1838 26.5025 14.9855 26.5874 14.7774 26.649C14.0291 26.7903 13.2786 26.9177 12.5256 27.0314C11.3583 26.9441 10.7069 26.3209 10.5713 25.162C10.4417 23.2068 10.3001 21.2525 10.1464 19.299C10.1141 18.7184 10.015 18.1519 9.84902 17.5995C8.31528 17.9998 6.75746 18.184 5.17556 18.1518C2.39255 17.5641 0.749759 15.8788 0.247191 13.096ZM8.06461 9.18731C8.28964 9.20753 8.44543 9.32088 8.53195 9.5272C8.64481 9.97687 8.70146 10.4301 8.7019 10.8867C7.38331 10.6458 6.4203 11.1272 5.81285 12.3313C5.54968 12.8459 5.35141 13.3842 5.21805 13.9457C4.75871 13.2697 4.64541 12.5332 4.87816 11.7365C5.40258 10.2059 6.46473 9.35615 8.06461 9.18731ZM19.4508 10.122C20.1734 10.0938 20.7541 10.377 21.1928 10.9717C22.6393 13.2051 22.0304 14.3947 19.3659 14.5405C19.1998 13.3884 19.0015 12.2413 18.7711 11.0992C18.8527 10.6649 19.0793 10.3392 19.4508 10.122ZM7.80969 12.1613C8.36493 12.0765 8.77563 12.2748 9.04178 12.7561C9.32457 13.9281 9.5087 15.1036 9.5941 16.2825C9.06447 16.3714 8.54048 16.4706 8.02212 16.5799C7.03265 16.3826 6.53698 15.7737 6.53511 14.753C6.59387 14.0385 6.8063 13.3729 7.1724 12.7561C7.32046 12.4803 7.53289 12.2821 7.80969 12.1613ZM24.889 21.4233C25.8877 21.3738 26.7799 21.657 27.5657 22.273C27.6081 22.358 27.6506 22.4429 27.6931 22.5279C27.4836 22.9494 27.257 23.3601 27.0133 23.76C26.9567 23.8167 26.9001 23.8167 26.8434 23.76C26.0189 22.8535 25.0275 22.6269 23.8694 23.0802C23.3005 23.3237 22.7624 23.6211 22.2549 23.9724C22.3098 23.227 22.6497 22.6181 23.2746 22.1455C23.7798 21.8075 24.3179 21.5667 24.889 21.4233ZM24.7191 24.2273C25.9614 24.3608 26.2871 24.9839 25.6963 26.0967C25.1864 26.9464 24.6766 27.7962 24.1668 28.6459C23.6428 28.3556 23.1329 28.0441 22.6373 27.7112C22.1637 27.0811 22.1354 26.4297 22.5523 25.7568C23.1011 24.9948 23.8233 24.485 24.7191 24.2273Z" fill="#848D6F"/>
<path fill-rule="evenodd" clip-rule="evenodd" d="M14.2676 11.9914C14.5311 11.962 14.7719 12.0187 14.9898 12.1613C15.2847 12.9559 15.4263 13.7773 15.4147 14.6255C14.9503 15.2105 14.5254 15.1822 14.1401 14.5405C13.9547 13.813 13.8697 13.0766 13.8852 12.3313C14.0039 12.1979 14.1313 12.0845 14.2676 11.9914Z" fill="#848D6F"/>
<path fill-rule="evenodd" clip-rule="evenodd" d="M43.7528 28.306C43.7528 29.1557 43.7528 30.0054 43.7528 30.8551C43.4562 32.6523 42.6914 34.2243 41.4586 35.5711C39.314 37.257 37.0197 37.4836 34.5758 36.2509C33.7971 35.8191 33.0323 35.3659 32.2816 34.8913C32.1852 34.8277 32.1002 34.8418 32.0267 34.9338C30.8911 37.2617 29.8007 39.6126 28.7553 41.9865C28.1634 42.7787 27.3844 43.0477 26.4185 42.7937C25.6167 42.5283 25.0078 42.0326 24.5916 41.3067C24.4217 40.7402 24.2518 40.1738 24.0818 39.6073C23.3918 39.9224 22.6696 40.0782 21.915 40.0746C21.1321 39.7964 20.3956 39.4282 19.7058 38.97C18.8752 38.4057 18.5778 37.6268 18.8136 36.6332C19.491 35.5189 20.2416 34.4568 21.0653 33.4468C21.9008 33.2627 22.2266 33.5884 22.0425 34.424C21.4194 35.2737 20.7962 36.1234 20.1731 36.9731C20.1164 37.1714 20.1164 37.3697 20.1731 37.5679C20.8124 38.0294 21.4922 38.4259 22.2124 38.7575C22.8606 38.592 23.4979 38.3937 24.1243 38.1627C24.9882 36.6615 25.852 35.1604 26.7159 33.6592C27.3471 33.3135 27.7578 33.4834 27.948 34.169C27.0698 35.7556 26.1917 37.3418 25.3139 38.9275C25.498 39.5506 25.6821 40.1738 25.8662 40.7969C26.1835 41.0902 26.5375 41.3309 26.9284 41.5191C27.1127 41.5556 27.2826 41.5131 27.4382 41.3917C28.5593 38.9508 29.7064 36.5149 30.8796 34.0841C32.2674 31.7049 33.6553 29.3256 35.0432 26.9464C35.9355 25.9664 36.9127 25.8672 37.9747 26.649C39.9972 28.0471 40.6629 29.9306 39.9716 32.2997C39.5378 33.6424 38.6173 34.3647 37.21 34.4664C36.9426 34.833 36.631 35.1588 36.2753 35.4436C38.3913 35.9786 40.0765 35.3555 41.3311 33.5742C42.6166 31.1645 42.73 28.7003 41.671 26.1817C40.7318 24.4211 39.3723 23.0898 37.5923 22.188C37.3786 21.3255 37.7043 20.9998 38.5695 21.2108C41.4709 22.724 43.1987 25.0891 43.7528 28.306ZM36.5302 27.4563C38.3685 28.2156 39.1191 29.5751 38.782 31.5349C38.622 32.1408 38.2963 32.6223 37.8048 32.9794C37.8111 32.3993 37.7969 31.8045 37.7623 31.195C37.5908 29.8771 36.8686 29.0557 35.5955 28.7308C35.8476 28.2517 36.1592 27.8268 36.5302 27.4563ZM35.0857 30.1754C35.8856 30.168 36.3246 30.5645 36.4027 31.365C36.5971 32.501 36.2997 33.4782 35.5105 34.2965C35.0701 34.5357 34.617 34.564 34.151 34.3815C33.6838 34.1338 33.2306 33.8648 32.7914 33.5742C33.3268 32.6003 33.8791 31.6372 34.4484 30.6852C34.6297 30.4598 34.8421 30.2898 35.0857 30.1754Z" fill="#848D6F"/>
<path fill-rule="evenodd" clip-rule="evenodd" d="M29.9874 28.306C30.6347 28.2312 30.9321 28.5144 30.8796 29.1557C30.5506 29.8282 30.1683 30.4655 29.7324 31.0676C28.8969 31.2517 28.5711 30.9259 28.7553 30.0904C29.0599 29.6229 29.3432 29.1413 29.605 28.6459C29.7237 28.5125 29.8511 28.3991 29.9874 28.306Z" fill="#848D6F"/>
<path fill-rule="evenodd" clip-rule="evenodd" d="M18.2085 0.866699L18.2338 0.868245C20.3702 0.99864 22.1886 1.59134 23.6774 2.65684C25.1662 3.72237 26.31 5.24971 27.1148 7.22464L27.1183 7.23313L27.1211 7.24186C27.6377 8.83922 27.6888 10.2945 27.2502 11.5955C26.8115 12.8967 25.8923 14.0156 24.519 14.9569L24.5021 14.9684L24.4836 14.977C24.0601 15.1744 23.6267 15.3477 23.1836 15.497L23.1671 15.5026L23.1501 15.5058C22.0699 15.7077 20.9918 15.9175 19.9157 16.135C20.0576 16.7695 20.2263 17.3979 20.4218 18.0202C21.8467 16.835 23.3661 16.0836 24.9792 15.776C26.7002 15.4479 28.5123 15.6278 30.4103 16.3045L30.4277 16.3108L30.4441 16.3195C32.3379 17.335 34.21 18.3844 36.0603 19.468L36.0823 19.4809L36.1012 19.498C36.3353 19.7098 36.4916 19.9568 36.5119 20.2402C36.5321 20.5241 36.4121 20.7898 36.2093 21.0303L36.1805 21.0645L36.1415 21.0864C35.8701 21.239 35.5769 21.2756 35.2763 21.1946L35.2441 21.1859L35.2153 21.169C33.4512 20.1316 31.6734 19.1157 29.8818 18.121C28.3702 17.5293 26.9363 17.3481 25.5749 17.5659C24.2107 17.7841 22.9036 18.4056 21.6526 19.4429C20.7112 20.3044 20.0731 21.3483 19.7354 22.5797C19.5271 23.9245 19.8402 25.0795 20.6798 26.0628C20.7393 25.7847 20.831 25.5155 20.9548 25.2556C20.5345 24.4932 20.4792 23.6899 20.7917 22.8652L20.7944 22.8579L20.7976 22.8508C21.2298 21.8961 21.823 21.1563 22.5823 20.6451C23.3416 20.1339 24.2522 19.8611 25.3035 19.8167L25.3116 19.8164L25.3197 19.8166C26.6756 19.8484 27.8524 20.3247 28.8387 21.2423L28.8659 21.2676L28.8845 21.2999C29.1569 21.7727 29.2857 22.2527 29.2535 22.7349C29.2217 23.2121 29.0338 23.6705 28.7077 24.1079C27.3714 26.4694 26.0137 28.8171 24.6345 31.1508L24.6295 31.1593L23.7713 32.3789L23.697 32.4052C23.2966 32.547 22.9042 32.5875 22.6207 32.3721C22.3364 32.156 22.2729 31.7674 22.3059 31.3457L22.3106 31.2849L22.3432 31.2332C22.6177 30.7972 22.8834 30.3568 23.1401 29.9118C22.0366 29.3018 20.9599 28.6512 19.9098 27.9602L19.8913 27.948L19.8753 27.9328C19.2971 27.3832 18.8127 26.7627 18.4228 26.072C17.8437 25.7844 17.2886 25.4565 16.7576 25.0883C16.4053 25.6208 16.0018 26.1144 15.5469 26.569L15.5238 26.5921L15.4954 26.6084C15.2903 26.7264 15.0742 26.819 14.8476 26.8861L14.8355 26.8896L14.8232 26.8919C14.072 27.0337 13.3185 27.1617 12.5625 27.2758L12.535 27.28L12.5072 27.2779C11.8837 27.2313 11.3688 27.0389 10.9907 26.6772C10.6125 26.3154 10.3983 25.8102 10.3258 25.1908L10.3243 25.1784C10.1948 23.2242 10.0536 21.2708 9.89999 19.3184L9.89954 19.3127C9.87275 18.8309 9.79844 18.3596 9.67654 17.8983C8.19671 18.263 6.69452 18.4299 5.17054 18.399L5.14726 18.3985L5.12448 18.3937C3.69519 18.0918 2.54136 17.5041 1.6792 16.6196C0.816964 15.7351 0.262187 14.5699 0.00393506 13.1399L0 13.1182V10.6106L0.00362104 10.5897C0.191416 9.50461 0.539226 8.46148 1.04638 7.46107L1.06819 7.41805L1.10457 7.38638C1.33839 7.18288 1.59919 7.05903 1.87957 7.07979C2.15984 7.10056 2.3998 7.2614 2.60167 7.49696L2.63963 7.54126L2.65378 7.59786C2.72028 7.86382 2.72028 8.13159 2.65378 8.39754L2.64768 8.42197L2.63677 8.44467C1.82753 10.1284 1.63416 11.878 2.05597 13.7027C2.66245 15.2571 3.75617 16.1985 5.36019 16.5446C5.22114 16.2881 5.10612 16.0198 5.01515 15.7397C4.37847 15.4423 3.89218 15.0336 3.57329 14.507C3.23772 13.953 3.10024 13.2895 3.14428 12.531C3.19043 11.5026 3.45669 10.608 3.95229 9.85715C4.44822 9.10574 5.16459 8.51214 6.08894 8.07193L6.09554 8.06879L6.10231 8.06604C6.97003 7.71406 7.86236 7.59474 8.77534 7.70997L8.80592 7.71383L8.83462 7.72508C9.51862 7.99328 9.95644 8.49668 10.1316 9.2136L10.134 9.22318L10.1355 9.23291C10.561 11.8703 11.0138 14.5027 11.4942 17.1302L11.4958 17.139L11.4968 17.148C11.7895 19.8427 12.0427 22.5392 12.2563 25.2373C12.3402 25.3327 12.4419 25.3923 12.5673 25.4201L14.3882 25.0639C14.7563 24.6153 15.0978 24.1474 15.4126 23.6602C15.1887 21.9782 14.9243 20.2985 14.6192 18.6209L14.6134 18.5891L14.616 18.5569C14.6421 18.2305 14.7468 17.9422 14.9858 17.7684C15.2243 17.5949 15.5315 17.5828 15.852 17.6559L15.8693 17.6599L15.8857 17.6662C16.1352 17.7621 16.3143 17.9412 16.4102 18.1906L16.4192 18.2141L16.4233 18.239C16.7018 19.9245 17.0191 21.5984 17.3752 23.2608C17.5047 23.3366 17.6321 23.4155 17.7573 23.4977C17.7927 22.1231 18.1827 20.8506 18.9265 19.685C18.5046 18.2585 18.1593 16.8134 17.8906 15.3499L17.8904 15.3484C17.485 13.0577 17.0888 10.7655 16.7018 8.47167C16.5749 7.9335 16.5936 7.44017 16.7819 7.00635C16.9712 6.56992 17.3201 6.22181 17.8014 5.95467L17.8161 5.9465L17.8318 5.9404C18.6024 5.64091 19.3889 5.58005 20.185 5.75974L20.2616 5.77701L20.3141 5.83524C20.5059 6.04773 20.625 6.28751 20.625 6.5509C20.625 6.81386 20.5063 7.05469 20.3155 7.26961L20.2631 7.3286L20.1862 7.34635C19.7046 7.45757 19.2159 7.54388 18.7199 7.60531C18.6496 7.61623 18.5921 7.6413 18.5429 7.68196C18.5181 8.05246 18.5579 8.41336 18.6623 8.76598C19.1504 8.5673 19.6356 8.48701 20.1151 8.53362C20.6779 8.58834 21.2151 8.81623 21.7246 9.20282L21.7333 9.20947C22.0758 9.49416 22.3765 9.81187 22.6355 10.162C22.6261 9.43559 22.3194 8.80923 21.7086 8.26764L21.6532 8.21853L21.6339 8.14707C21.5698 7.90966 21.5384 7.6925 21.5516 7.50253C21.565 7.31044 21.6258 7.13011 21.7615 6.99444C21.8972 6.85877 22.0775 6.79796 22.2696 6.78456C22.4596 6.7713 22.6767 6.80278 22.9141 6.86684L22.975 6.88326L23.0205 6.92681C23.6846 7.56162 24.1327 8.26806 24.3519 9.04652C24.5711 9.82503 24.557 10.6601 24.3206 11.5453L24.3146 11.5678L24.3046 11.5887C24.1267 11.9585 23.8713 12.2613 23.5412 12.4942C23.5747 12.75 23.5957 13.0056 23.6042 13.261C24.4768 12.7127 25.0627 12.0575 25.3827 11.3012C25.7444 10.4462 25.7793 9.43138 25.46 8.24076C24.8506 6.50595 23.9393 5.1904 22.7338 4.27777C21.532 3.36792 20.0208 2.84561 18.1866 2.72293C14.5085 3.27528 10.8441 3.90958 7.1934 4.62584C6.02382 5.02046 4.98173 5.62507 4.0653 6.44045L4.01075 6.48898L3.93859 6.50009C3.51912 6.56465 3.12614 6.53298 2.88759 6.27171C2.64682 6.00801 2.65847 5.61615 2.7706 5.21245L2.78844 5.14821L2.83616 5.10166C4.16661 3.80371 5.75388 2.97388 7.5923 2.61431L7.59483 2.61381C11.1142 1.96346 14.6437 1.38231 18.1834 0.870332L18.2085 0.866699ZM18.2289 1.36327C14.7045 1.87337 11.1902 2.4522 7.68594 3.09974C5.96416 3.43673 4.48078 4.20551 3.23032 5.40815C3.14968 5.73557 3.19937 5.87997 3.25268 5.93836C3.30788 5.99881 3.45286 6.0631 3.79318 6.02121C4.75005 5.18289 5.83668 4.55959 7.05128 4.15204L7.06653 4.14693L7.08231 4.14383C10.7543 3.42316 14.44 2.78524 18.1396 2.23007L18.1658 2.22614L18.1922 2.22785C20.1151 2.35226 21.733 2.90009 23.0322 3.8836C24.3313 4.86716 25.2945 6.27342 25.9296 8.08591L25.9326 8.09452L25.935 8.10333C26.2774 9.37437 26.2543 10.5099 25.838 11.4939C25.4216 12.4781 24.6249 13.2799 23.4783 13.9076L23.103 14.1131L23.1124 13.6854C23.1218 13.2616 23.0944 12.8368 23.0302 12.4106L23.0057 12.2484L23.1457 12.1628C23.4555 11.9735 23.6887 11.7189 23.849 11.3949C24.0603 10.5904 24.0657 9.85432 23.876 9.18051C23.6893 8.51747 23.3095 7.90001 22.7248 7.32853C22.5457 7.28451 22.4072 7.27054 22.304 7.27774C22.1916 7.28558 22.1383 7.31683 22.1111 7.34402C22.0839 7.37121 22.0526 7.42455 22.0448 7.53694C22.0377 7.63845 22.0511 7.77423 22.0935 7.94914C22.9739 8.75912 23.2971 9.76577 23.0491 10.9379L22.9116 11.5875L22.5908 11.0062C22.2922 10.4651 21.9029 9.99452 21.4214 9.59337C20.9733 9.25441 20.5226 9.06995 20.0672 9.02568C19.6104 8.98128 19.1312 9.07622 18.6249 9.32431L18.3829 9.44293L18.2856 9.19151C18.081 8.66246 18.0048 8.11422 18.0576 7.54983L18.0648 7.47292L18.1145 7.41379C18.2535 7.24846 18.4356 7.14793 18.6495 7.11594L18.6558 7.11501C19.1084 7.05906 19.5546 6.98177 19.9944 6.88301C20.0955 6.75263 20.1306 6.64276 20.1306 6.5509C20.1306 6.45975 20.0961 6.35188 19.9964 6.22488C19.3308 6.08973 18.676 6.14591 18.0267 6.39511C17.6252 6.62104 17.3701 6.89276 17.2354 7.20316C17.0989 7.51773 17.0738 7.90012 17.1846 8.36527L17.1865 8.3733L17.1879 8.38143C17.5751 10.6763 17.9714 12.9695 18.377 15.2612C18.6492 16.7443 19.0012 18.2083 19.4328 19.6531L19.4658 19.7635L19.4024 19.8598C18.5857 21.1002 18.2031 22.4659 18.2534 23.9641L18.2705 24.475L17.8594 24.1712C17.5956 23.9762 17.3206 23.7976 17.0345 23.635L16.9382 23.5804L16.9149 23.4721C16.5497 21.7756 16.2248 20.0672 15.94 18.3468C15.8958 18.2451 15.8268 18.1772 15.7238 18.1339C15.4798 18.0813 15.3479 18.1163 15.2766 18.1682C15.2071 18.2188 15.1356 18.3288 15.1116 18.5655C15.421 20.2698 15.6886 21.9762 15.9146 23.6851L15.9265 23.7745L15.878 23.8505C15.523 24.407 15.1345 24.9393 14.7127 25.4474L14.6564 25.5152L12.5722 25.9229L12.5286 25.9159C12.2334 25.868 11.9918 25.7191 11.8159 25.4774L11.7749 25.421L11.7694 25.3514C11.5552 22.636 11.3008 19.9223 11.0063 17.2103C10.5265 14.5856 10.0741 11.9561 9.64908 9.32165C9.5129 8.77477 9.19575 8.40649 8.68234 8.19664C7.86835 8.09906 7.07379 8.20672 6.2949 8.52143C5.44174 8.92894 4.80253 9.46641 4.3649 10.1295C3.92608 10.7943 3.68073 11.5995 3.6381 12.5547L3.63792 12.5581C3.59807 13.2405 3.72302 13.7999 3.99616 14.2509C4.26912 14.7016 4.7028 15.0651 5.3171 15.3337L5.42199 15.3796L5.45484 15.4893C5.57529 15.8914 5.74935 16.2662 5.97722 16.6145L6.1426 16.8673L5.58462 17.0903L5.5156 17.0783C3.60433 16.7461 2.28638 15.6682 1.58864 13.865L1.58238 13.8488L1.57844 13.8319C1.12801 11.9004 1.32867 10.038 2.17973 8.25442C2.21653 8.09408 2.21895 7.93498 2.18699 7.77481C2.05148 7.63048 1.93628 7.57973 1.84305 7.57283C1.74803 7.56579 1.62394 7.60045 1.46478 7.72935C0.99489 8.66665 0.671635 9.6411 0.494382 10.6532V13.0737C0.740298 14.4163 1.25683 15.4781 2.03322 16.2745C2.80949 17.0709 3.86108 17.6179 5.20393 17.9052C6.75502 17.9345 8.28237 17.7529 9.78659 17.3603L10.0172 17.3002L10.0858 17.5284C10.2571 18.0987 10.3595 18.6835 10.3931 19.2824C10.5466 21.2339 10.688 23.1862 10.8175 25.1394C10.8813 25.6756 11.0602 26.0595 11.3324 26.3199C11.6011 26.5769 11.987 26.7387 12.5168 26.7827C13.2531 26.6712 13.9871 26.5465 14.719 26.4085C14.894 26.3558 15.0613 26.2849 15.221 26.1957C15.7015 25.712 16.1209 25.1823 16.4794 24.6065L16.6194 24.3817L16.834 24.5368C17.4275 24.9655 18.0527 25.3406 18.7098 25.6623L18.7799 25.6966L18.8176 25.7649C19.1857 26.4321 19.6464 27.0301 20.2001 27.5594C21.2652 28.2595 22.358 28.9178 23.4786 29.5339L23.5317 29.5631L23.7349 29.868L23.6592 30.0005C23.3816 30.4869 23.0935 30.9679 22.7949 31.4436C22.7768 31.7895 22.8537 31.9282 22.9198 31.9785C22.9856 32.0285 23.1381 32.0653 23.4589 31.9637L24.2139 30.8909C25.5924 28.558 26.9495 26.2113 28.2852 23.8507L28.2931 23.8367L28.3028 23.8238C28.5894 23.443 28.7357 23.0698 28.7602 22.702C28.7841 22.3443 28.6941 21.9714 28.4743 21.5788C27.5853 20.7629 26.5362 20.3414 25.3162 20.311C24.3434 20.3533 23.5276 20.6046 22.8584 21.0552C22.1892 21.5057 21.6518 22.1654 21.2513 23.0475C20.9798 23.7697 21.0438 24.4527 21.4468 25.1191L21.5187 25.238L21.4544 25.3613C21.2479 25.7574 21.1297 26.1774 21.0995 26.6233L21.0635 27.1537L20.6811 26.7843C19.4646 25.6091 18.9849 24.1687 19.2491 22.4895L19.2513 22.4761L19.2548 22.463C19.6167 21.1337 20.3071 20.0025 21.3234 19.074L21.3321 19.0661C22.6415 17.9792 24.0303 17.3123 25.4968 17.0777C26.9633 16.8431 28.492 17.0434 30.0778 17.6669L30.093 17.6729L30.1073 17.6808C31.897 18.6742 33.6729 19.6888 35.4351 20.7247C35.5849 20.7588 35.7237 20.7429 35.8605 20.6758C35.9891 20.5121 36.0262 20.3806 36.0187 20.2755C36.0109 20.1663 35.9513 20.0346 35.7876 19.8812C33.9554 18.8087 32.1019 17.7696 30.2268 16.764C28.4046 16.1172 26.688 15.9535 25.0718 16.2616C23.4506 16.5708 21.9149 17.3577 20.4639 18.6348L20.1835 18.8816L20.0659 18.527C19.7896 17.6936 19.5606 16.8492 19.379 15.9939L19.3272 15.75L19.5715 15.7003C20.726 15.4656 21.8828 15.2398 23.0421 15.023C23.4557 14.883 23.8604 14.7211 24.2563 14.5375C25.5534 13.6445 26.3865 12.6096 26.7817 11.4375C27.1779 10.2624 27.1432 8.9215 26.6535 7.40271C25.8777 5.50271 24.7878 4.05949 23.3896 3.05886C21.9951 2.0608 20.2787 1.49215 18.2289 1.36327ZM8.06268 8.93895L8.08673 8.94111C8.236 8.95452 8.37575 9.00038 8.49562 9.08757C8.61561 9.17484 8.70204 9.29362 8.75991 9.43159L8.76715 9.44886L8.77171 9.46702C8.88941 9.93599 8.94863 10.4094 8.94909 10.8865L8.94937 11.1833L8.65746 11.1299C8.03773 11.0167 7.52414 11.0768 7.10124 11.2882C6.67818 11.4997 6.31945 11.8759 6.03355 12.4426L6.03294 12.4438C5.77876 12.9409 5.58734 13.4605 5.45855 14.0028L5.32891 14.5487L5.01359 14.0847C4.51203 13.3465 4.38782 12.5335 4.64088 11.6672L4.64407 11.6563C4.91858 10.8551 5.33948 10.2176 5.91367 9.7582C6.48794 9.29879 7.20045 9.02994 8.03866 8.94148L8.06268 8.93895ZM8.06443 9.43596C7.31473 9.51904 6.7048 9.75842 6.22251 10.1443C5.73575 10.5337 5.36377 11.0844 5.11386 11.8112C4.96202 12.3346 4.97341 12.8231 5.148 13.2847C5.26798 12.9194 5.41615 12.5642 5.59246 12.2193C5.91397 11.5823 6.34037 11.1159 6.88015 10.846C7.34188 10.6152 7.86727 10.5377 8.44666 10.5999C8.42829 10.2673 8.37849 9.93646 8.29714 9.6072C8.26988 9.54811 8.2378 9.51137 8.20482 9.48737C8.17249 9.46386 8.12821 9.44455 8.06443 9.43596ZM19.5235 10.3674C19.2591 10.5382 19.094 10.7775 19.0233 11.0994C19.2353 12.1548 19.4201 13.2145 19.5774 14.2784C20.1218 14.234 20.5555 14.1412 20.8855 14.0066C21.2578 13.8547 21.4833 13.6561 21.6009 13.4263C21.7185 13.1967 21.7473 12.8987 21.6522 12.5098C21.5569 12.1203 21.3405 11.6555 20.9894 11.1125C20.6118 10.6036 20.13 10.3606 19.5235 10.3674ZM19.4412 9.875C20.2478 9.84351 20.9057 10.1661 21.3917 10.825L21.3962 10.831L21.4002 10.8373C21.77 11.4083 22.0187 11.9276 22.1324 12.3923C22.2466 12.8592 22.2279 13.2864 22.041 13.6516C21.8542 14.0167 21.5183 14.2824 21.0722 14.4643C20.6281 14.6455 20.0604 14.7501 19.3794 14.7874L19.1535 14.7997L19.1212 14.5758C18.9558 13.4282 18.7583 12.2857 18.5288 11.1481L18.5192 11.1008L18.5281 11.0535C18.6226 10.551 18.8909 10.163 19.3261 9.9086L19.3794 9.87741L19.4412 9.875ZM14.3555 12.2322C14.2781 12.2895 14.2032 12.3553 14.1309 12.4298C14.1247 13.1086 14.2045 13.7797 14.3706 14.4436C14.5438 14.7213 14.681 14.7909 14.7642 14.7964C14.8429 14.8017 14.9773 14.7564 15.1681 14.5358C15.1689 13.7774 15.0421 13.0419 14.7875 12.3283C14.6543 12.2565 14.5119 12.2244 14.3555 12.2322ZM14.2402 11.7457C14.5598 11.7101 14.8582 11.7798 15.1252 11.9545L15.1933 11.9991L15.2216 12.0753C15.527 12.8985 15.6739 13.7502 15.6618 14.6289L15.6607 14.7132L15.6083 14.7792C15.363 15.0882 15.0704 15.3123 14.7313 15.2897C14.3926 15.2671 14.1316 15.0065 13.9282 14.6678L13.9095 14.6367L13.9006 14.6016C13.7097 13.8526 13.6221 13.0939 13.638 12.3261L13.6399 12.235L13.7005 12.167C13.8315 12.0198 13.9739 11.8927 14.128 11.7873L14.1789 11.7525L14.2402 11.7457ZM7.87941 12.4011C7.66959 12.4996 7.50767 12.6542 7.3902 12.873L7.38517 12.8824C7.03999 13.464 6.83922 14.0898 6.78234 14.7628C6.78484 15.2284 6.89894 15.5722 7.09998 15.8192C7.29495 16.0587 7.59332 16.2338 8.02192 16.3273C8.45415 16.2368 8.89023 16.1533 9.33016 16.0768C9.24042 14.9979 9.06691 13.9216 8.80958 12.8478C8.69944 12.6587 8.57019 12.5383 8.42667 12.4691C8.28262 12.3995 8.10392 12.3716 7.87941 12.4011ZM8.64162 12.0238C8.90185 12.1495 9.10547 12.3605 9.2581 12.6365L9.27425 12.6657L9.28208 12.6981C9.56798 13.8831 9.75425 15.0719 9.84065 16.2646L9.8569 16.489L9.63505 16.5262C9.10875 16.6146 8.58811 16.7132 8.07311 16.8217L8.02351 16.8322L7.9738 16.8223C7.43903 16.7157 7.00998 16.4918 6.71655 16.1313C6.4234 15.7711 6.28893 15.3033 6.28792 14.7534L6.2879 14.743L6.28875 14.7327C6.35045 13.9826 6.57356 13.2822 6.95719 12.6344C7.13038 12.3141 7.3829 12.0778 7.71086 11.9348L7.74045 11.9218L7.77237 11.917C8.08781 11.8688 8.38184 11.8984 8.64162 12.0238ZM37.808 22.0209C39.5824 22.9446 40.9444 24.2943 41.8891 26.0653L41.8945 26.0754L41.8989 26.0859C42.9867 28.6731 42.8698 31.2152 41.5492 33.6906L41.542 33.7041L41.5332 33.7166C40.8833 34.6393 40.1107 35.2771 39.2119 35.6094C38.3132 35.9417 37.3106 35.9604 36.2147 35.6833L35.7327 35.5614L36.1208 35.2507C36.4594 34.9795 36.7558 34.6696 37.0103 34.3208L37.0778 34.2282L37.1921 34.2199C37.8569 34.1718 38.3891 33.9789 38.8032 33.6539C39.2167 33.3296 39.5303 32.8597 39.7352 32.227C40.0689 31.0818 40.0693 30.0741 39.7578 29.1926C39.4459 28.3102 38.8126 27.5287 37.8342 26.8524L37.8281 26.8482C37.3293 26.481 36.8795 26.3414 36.4702 26.383C36.0664 26.4239 35.6571 26.6457 35.2433 27.0939L31.098 34.2002C29.927 36.6267 28.782 39.0583 27.6628 41.4948L27.6377 41.5495L27.5903 41.5865C27.3814 41.7496 27.1391 41.8128 26.8804 41.7616L26.8495 41.7555L26.8211 41.7418C26.4082 41.543 26.0338 41.2884 25.6984 40.9784L25.6485 40.9322L25.0475 38.8983L27.681 34.1411C27.5977 33.896 27.4934 33.7933 27.4028 33.7558C27.3074 33.7163 27.1493 33.7167 26.8944 33.8446L24.2939 38.3637L24.2098 38.3947C23.5754 38.6286 22.93 38.8294 22.2736 38.997L22.1887 39.0187L22.109 38.9821C21.3744 38.6438 20.6808 38.2392 20.0284 37.7684L19.959 37.7182L19.9354 37.6359C19.8661 37.3932 19.8661 37.1478 19.9354 36.9052L19.9476 36.8626L21.8116 34.3209C21.8848 33.9526 21.8252 33.7915 21.7615 33.7278C21.6997 33.666 21.5463 33.6081 21.2013 33.6714C20.4149 34.6418 19.6963 35.6606 19.0454 36.7277C18.9462 37.171 18.9669 37.5499 19.0908 37.8744C19.2179 38.2074 19.4622 38.5054 19.8438 38.7649C20.5047 39.2038 21.2093 39.5579 21.958 39.8274C22.6613 39.8251 23.3343 39.6769 23.9791 39.3824L24.2371 39.2646L24.8201 41.2079C25.2039 41.8651 25.7569 42.3126 26.4889 42.5566C26.9315 42.6718 27.3141 42.6635 27.6464 42.5487C27.9736 42.4357 28.2725 42.2123 28.5406 41.8605C29.5838 39.4927 30.6717 37.1476 31.8045 34.8254L31.8165 34.8009L31.8335 34.7795C31.8943 34.7035 31.9833 34.6306 32.1049 34.6103C32.2264 34.5901 32.3336 34.63 32.4154 34.6835C33.1602 35.1542 33.9189 35.6039 34.6914 36.0323C35.8779 36.63 37.0141 36.8672 38.1051 36.7595C39.1918 36.6522 40.2528 36.2006 41.2899 35.3892C42.4779 34.086 43.2156 32.5696 43.5056 30.8348V28.3272C42.9626 25.2072 41.2928 22.919 38.4822 21.4441C38.0793 21.3505 37.9118 21.4109 37.8511 21.4716C37.7948 21.5279 37.7387 21.6763 37.808 22.0209ZM37.5015 21.1221C37.7651 20.8585 38.1865 20.863 38.6281 20.9707L38.6572 20.9778L38.6838 20.9917C41.6534 22.5404 43.4292 24.9709 43.9964 28.264L44 28.2849V30.8754L43.9967 30.8954C43.6922 32.74 42.906 34.3559 41.6409 35.738L41.6272 35.7529L41.6113 35.7654C40.5089 36.6321 39.3557 37.1328 38.1537 37.2515C36.9518 37.3702 35.7204 37.1051 34.4645 36.4716L34.4559 36.4672C33.6918 36.0436 32.9411 35.5992 32.2038 35.1345C31.0859 37.4293 30.0118 39.7466 28.9815 42.0861L28.9701 42.1119L28.9533 42.1344C28.6337 42.5621 28.2528 42.8623 27.8078 43.016C27.3631 43.1697 26.8758 43.1695 26.3557 43.0328L26.3482 43.0308L26.3409 43.0284C25.4819 42.7441 24.824 42.2089 24.3772 41.4296L24.363 41.405L23.9245 39.9431C23.2809 40.1987 22.6101 40.3252 21.9138 40.3218L21.8718 40.3216L21.8323 40.3075C21.0304 40.0226 20.2758 39.6453 19.569 39.1759L19.5669 39.1744C19.1184 38.8698 18.7991 38.4965 18.6289 38.0508C18.4589 37.6055 18.4463 37.1103 18.573 36.5762L18.5821 36.5382L18.6023 36.5048C19.2857 35.3808 20.0428 34.3093 20.8738 33.2906L20.9281 33.2239L21.0121 33.2054C21.4439 33.1102 21.8519 33.119 22.1111 33.3782C22.3703 33.6374 22.379 34.0454 22.2839 34.4772L22.2727 34.5281L20.4002 37.0814C20.3734 37.1949 20.3706 37.3073 20.3919 37.4206C20.9729 37.8332 21.5877 38.1917 22.2364 38.4961C22.8181 38.3447 23.391 38.1665 23.9549 37.9615L26.5363 33.4758L26.5972 33.4424C26.9381 33.2557 27.2838 33.1715 27.5918 33.299C27.9011 33.4269 28.083 33.7309 28.1862 34.103L28.2132 34.2003L25.5803 38.9567L26.0837 40.6605C26.3615 40.9091 26.6682 41.1159 27.0045 41.2813C27.0872 41.2921 27.1636 41.2766 27.2412 41.2283C28.3542 38.8061 29.4928 36.3889 30.6569 33.9766L30.6612 33.9679L34.8428 26.7993L34.8604 26.78C35.3331 26.2609 35.8527 25.9487 36.4203 25.8911C36.9873 25.8336 37.556 26.0346 38.1183 26.4478C39.1607 27.169 39.8704 28.0276 40.2239 29.0278C40.5777 30.0289 40.5656 31.1465 40.2089 32.3689L40.2069 32.3757C39.978 33.0841 39.6148 33.6456 39.1084 34.0429C38.6281 34.4197 38.035 34.6362 37.3416 34.7034C37.1784 34.9175 37.0002 35.118 36.8072 35.3045C37.6351 35.4474 38.3774 35.3909 39.0405 35.1457C39.8231 34.8563 40.5176 34.2959 41.1202 33.4443C42.3622 31.108 42.471 28.7297 41.4475 26.288C40.5324 24.5772 39.2118 23.2856 37.4806 22.4085L37.3797 22.3574L37.3524 22.2475C37.2433 21.8071 37.2376 21.386 37.5015 21.1221ZM24.9256 21.669C25.8367 21.629 26.6482 21.883 27.3698 22.434L27.4163 22.5269C27.255 22.8453 27.0841 23.1582 26.9029 23.4639C26.4948 23.0542 26.0396 22.7842 25.5366 22.6692C24.9827 22.5426 24.3942 22.6094 23.7793 22.85L23.7721 22.853C23.3677 23.026 22.9783 23.2257 22.6041 23.4519C22.7421 23.0229 23.0113 22.656 23.418 22.347C23.8917 22.031 24.3939 21.8054 24.9256 21.669ZM24.8768 21.1764C25.9348 21.124 26.8855 21.4257 27.7182 22.0784L27.7619 22.1127L27.9693 22.5276L27.9145 22.6379C27.7018 23.0657 27.4718 23.4826 27.2244 23.8886L27.2091 23.9139L27.1881 23.9348C27.1329 23.99 27.0454 24.0497 26.9284 24.0497C26.8113 24.0497 26.7238 23.99 26.6686 23.9348L26.6603 23.9265C26.275 23.5028 25.8635 23.2511 25.4264 23.1512C24.99 23.0514 24.5049 23.0975 23.9631 23.309C23.4107 23.5456 22.8883 23.8345 22.3956 24.1756L21.9704 24.4701L22.0084 23.9543C22.0688 23.1342 22.447 22.4614 23.1255 21.9484L23.1312 21.944L23.1371 21.9401C23.6652 21.5868 24.2293 21.3341 24.8288 21.1835L24.8525 21.1776L24.8768 21.1764ZM24.6973 23.9764L24.7455 23.9816C25.3861 24.0504 25.891 24.2533 26.1142 24.6803C26.3367 25.106 26.2188 25.6397 25.9146 26.2126L25.9085 26.2241L24.2559 28.9778L24.047 28.8621C23.5169 28.5684 23.001 28.2533 22.4995 27.9164L22.4648 27.8931L22.4397 27.8597C22.1793 27.5132 22.0306 27.146 22.0139 26.7608C21.9971 26.3757 22.1132 25.9961 22.3422 25.6266L22.3467 25.6193L22.3517 25.6124C22.9326 24.8057 23.7013 24.2629 24.6508 23.9898L24.6973 23.9764ZM24.7408 24.4786C23.9231 24.724 23.2644 25.194 22.758 25.8942C22.5732 26.1949 22.4963 26.4751 22.5078 26.7393C22.5189 26.9953 22.6139 27.2579 22.8106 27.5298C23.2233 27.8057 23.6458 28.0667 24.0784 28.3128L25.4809 25.9752C25.7647 25.4386 25.7789 25.106 25.676 24.9093C25.5763 24.7184 25.3093 24.5473 24.7408 24.4786ZM36.4722 27.1648L36.6246 27.2278C37.5808 27.6228 38.279 28.1847 38.6883 28.9259C39.0975 29.6672 39.201 30.5574 39.0256 31.5768L39.0237 31.5875L39.021 31.598C38.847 32.257 38.4893 32.7877 37.9501 33.1794L37.5523 33.4684L37.5576 32.9768C37.5638 32.4054 37.5499 31.8192 37.516 31.2181C37.4344 30.6015 37.2271 30.1185 36.9064 29.7538C36.5842 29.3874 36.1325 29.123 35.5344 28.9704L35.2309 28.8929L35.3767 28.6157C35.6401 28.1153 35.9663 27.6701 36.3555 27.2814L36.4722 27.1648ZM36.5892 27.7507C36.3537 28.0026 36.1449 28.2796 35.9629 28.5819C36.4983 28.7634 36.9399 29.0432 37.2776 29.4273C37.6776 29.8822 37.9167 30.4661 38.0074 31.1631L38.0086 31.1721L38.0091 31.181C38.0329 31.6013 38.0472 32.0149 38.0518 32.4218C38.2798 32.1593 38.4424 31.847 38.5402 31.4822C38.6993 30.5468 38.5955 29.7808 38.2555 29.1649C37.9343 28.5832 37.3875 28.1083 36.5892 27.7507ZM30.0769 28.5456C29.9839 28.6143 29.8946 28.6952 29.8091 28.7886C29.5551 29.2675 29.2812 29.7335 28.9876 30.1865C28.9122 30.5597 28.9721 30.7224 29.0363 30.7866C29.0976 30.8479 29.249 30.9054 29.5884 30.8444C29.9834 30.2899 30.3327 29.7052 30.6363 29.0903C30.6502 28.8322 30.5916 28.7043 30.5254 28.6413C30.4596 28.5787 30.3296 28.5258 30.0769 28.5456ZM30.8664 28.2833C31.0939 28.5 31.1548 28.8232 31.1259 29.1759L31.1221 29.2224L31.1016 29.2643C30.7665 29.9494 30.3769 30.5989 29.9327 31.2125L29.8775 31.2887L29.7856 31.309C29.3539 31.4041 28.9459 31.3953 28.6867 31.1361C28.4275 30.877 28.4187 30.469 28.5139 30.0372L28.5236 29.9932L28.5482 29.9555C28.8487 29.4943 29.1281 29.0192 29.3864 28.5304L29.4004 28.5039L29.4203 28.4816C29.5513 28.3344 29.6937 28.2073 29.8478 28.1019L29.8983 28.0674L29.959 28.0604C30.313 28.0195 30.6399 28.0676 30.8664 28.2833ZM35.1428 30.4228C34.9598 30.5171 34.796 30.6507 34.6515 30.8272C34.1261 31.7062 33.6152 32.5947 33.1188 33.4925C33.4873 33.7287 33.8657 33.95 34.2539 34.1563C34.6356 34.3022 34.9981 34.2829 35.3595 34.0968C36.0729 33.342 36.3382 32.4535 36.1591 31.4067L36.1576 31.3979L36.1567 31.389C36.1215 31.0277 36.0087 30.7947 35.8492 30.6506C35.6981 30.5142 35.4728 30.4284 35.1428 30.4228ZM36.6479 31.332C36.6039 30.8967 36.4582 30.5345 36.1806 30.2838C35.9009 30.0311 35.5232 29.9241 35.0834 29.9282L35.0294 29.9287L34.9805 29.9517C34.7005 30.0833 34.4588 30.2778 34.2558 30.5303L34.245 30.5436L34.2362 30.5583C33.6654 31.5129 33.1116 32.4786 32.5748 33.4552L32.4651 33.6548L32.655 33.7804C33.1009 34.0754 33.561 34.3485 34.0352 34.5999L34.0477 34.6065L34.0608 34.6116C34.5948 34.8208 35.1241 34.7877 35.6285 34.5137L35.662 34.4955L35.6885 34.4681C36.5311 33.5944 36.8522 32.5406 36.6479 31.332Z" fill="#848D6F"/>
</svg>
