<svg width="44" height="44" viewBox="0 0 44 44" fill="none" xmlns="http://www.w3.org/2000/svg">
<g id="olives">
<g id="Vector">
<path fill-rule="evenodd" clip-rule="evenodd" d="M39.3154 0.247191C39.7119 0.247191 40.1084 0.247191 40.505 0.247191C42.0983 0.99995 42.4807 2.16123 41.6521 3.73104C41.349 4.0867 40.9949 4.36993 40.59 4.58076C41.7399 10.8739 40.0404 16.2555 35.4916 20.7254C36.6518 21.7713 37.5865 22.9892 38.2957 24.3792C38.1298 25.0428 37.7332 25.2268 37.1061 24.9315C36.3753 23.683 35.4547 22.5926 34.3445 21.6601C33.2614 22.4217 32.1143 23.0873 30.9032 23.657C30.6088 23.7264 30.3255 23.698 30.0534 23.572C29.5621 22.3003 29.2505 20.9832 29.1188 19.6208C28.8852 19.6016 28.6585 19.6299 28.439 19.7058C28.3218 20.0884 28.166 20.4566 27.9716 20.8104C27.8551 20.9413 27.7277 21.0547 27.5893 21.1503C27.5948 21.1131 27.5807 21.0847 27.5468 21.0653C27.3964 21.1963 27.2972 21.3096 27.2494 21.4052C26.3895 21.8844 25.5539 21.8278 24.7427 21.2353C22.9416 22.9981 22.0494 25.1508 22.0661 27.6931C22.2236 31.8486 24.0363 35.035 27.5043 37.2525C30.2752 38.7706 32.966 38.6573 35.5766 36.9126C37.9541 34.6518 38.8746 31.8902 38.3382 28.6278C38.2171 28.0163 38.0897 27.4073 37.9558 26.8009C38.0362 26.1005 38.4045 25.9023 39.0605 26.2061C39.3838 26.8893 39.5962 27.6115 39.6978 28.3729C40.1841 31.3831 39.561 34.1306 37.8284 36.6152C35.8446 38.9725 33.3097 39.978 30.2234 39.6317C26.3303 38.7981 23.5404 36.5746 21.8537 32.9614C20.3971 29.6672 20.3404 26.3533 21.6837 23.0197C22.2834 21.867 23.0623 20.8474 24.0204 19.9607C23.5811 18.3712 23.4254 16.7567 23.5531 15.1173C20.5189 18.0529 18.2106 21.4801 16.6279 25.3989C18.9118 27.0189 20.243 29.2281 20.6216 32.0267C20.5098 32.2924 20.5381 32.5473 20.7065 32.7914C20.8542 36.6735 19.4381 39.8317 16.4579 42.2658C15.3914 42.9977 14.2301 43.4934 12.9741 43.7528C12.2376 43.7528 11.5013 43.7528 10.7648 43.7528C10.3041 43.6376 9.85093 43.4959 9.40527 43.3279C9.344 43.168 9.25903 43.1397 9.15035 43.243C7.13545 42.3468 5.70509 40.8739 4.85927 38.8244C3.36905 34.5539 4.04882 30.6735 6.8986 27.1833C8.36759 25.5636 10.1945 24.6573 12.3793 24.4642C12.9368 22.5702 13.7582 20.8 14.8435 19.1534C10.8273 20.8551 6.66364 21.3083 2.3526 20.513C2.03499 20.3941 1.89337 20.1675 1.92774 19.8332C2.52628 17.4975 3.53178 15.359 4.94424 13.4178C5.42779 12.8353 5.89514 12.2405 6.34628 11.6334C5.63237 11.2695 4.93843 10.8729 4.26447 10.4438C4.08434 10.1153 4.11266 9.80373 4.34944 9.50913C6.39591 6.76755 8.95922 4.67158 12.0394 3.22121C12.1481 3.32447 12.233 3.29614 12.2943 3.13624C17.8468 0.645029 23.455 0.545895 29.1188 2.83883C29.8432 3.13732 30.5371 3.49137 31.2006 3.90098C31.7633 3.55593 32.3439 3.24436 32.9425 2.96629C33.1133 3.03844 33.2549 2.98179 33.3673 2.79635C35.2909 1.8062 37.2735 0.95649 39.3154 0.247191ZM39.5703 1.60674C40.2189 1.50587 40.5871 1.77495 40.6749 2.41397C40.6828 2.65308 40.5978 2.85135 40.42 3.00878C40.3394 3.06122 40.2686 3.04707 40.2076 2.96629C40.1316 2.56435 39.8908 2.36608 39.4853 2.37149C37.5578 3.06649 35.8584 4.12864 34.387 5.55794C28.2811 8.60338 23.1403 12.8378 18.9646 18.2612C17.0349 20.818 15.647 23.6504 14.801 26.7584C14.3761 27.2116 13.9513 27.2116 13.5264 26.7584C13.3972 26.4292 13.3689 26.0893 13.4414 25.7388C14.2649 22.9024 15.5395 20.2966 17.2652 17.9213C18.3659 17.137 19.428 16.3014 20.4516 15.4147C21.643 14.2949 22.691 13.0628 23.5956 11.7184C26.8415 10.2376 29.5322 8.07078 31.6679 5.21805C34.2224 3.8244 36.8565 2.62063 39.5703 1.60674ZM7.96074 12.2282C8.02099 12.305 8.10596 12.3333 8.21566 12.3132C8.87396 12.6689 9.58206 12.8247 10.34 12.7805C10.8094 12.2898 10.7528 11.865 10.17 11.506C8.67634 11.1272 7.26014 10.5607 5.92142 9.80653C10.3516 4.55151 16.0164 2.1723 22.9158 2.66889C25.4787 2.93319 27.8862 3.68377 30.1384 4.92065C25.5299 10.3477 19.6668 12.6986 12.5492 11.9733C11.7343 12.2004 11.5927 12.6393 12.1244 13.2904C15.119 13.7367 18.0647 13.5243 20.9614 12.6531C20.9897 12.6814 21.0181 12.7098 21.0464 12.7381C16.3235 17.9891 10.4887 20.1275 3.5422 19.1534C4.4553 16.5609 5.84317 14.2666 7.70583 12.2707C7.78638 12.2297 7.87135 12.2156 7.96074 12.2282ZM38.9755 3.98595C40.5629 10.7373 38.6653 16.303 33.2824 20.6829C32.5532 21.1822 31.8026 21.6496 31.0306 22.085C29.6399 16.4316 30.8862 11.4466 34.7694 7.12992C36.019 5.86455 37.421 4.81656 38.9755 3.98595ZM31.7529 8.65941C29.9359 11.5925 29.0296 14.793 29.0338 18.2612C28.7441 18.2399 28.4609 18.2683 28.1841 18.3462C27.5727 15.3875 28.0966 12.6401 29.756 10.1039C30.3565 9.52799 31.0221 9.04646 31.7529 8.65941ZM27.2494 11.8034C26.6064 13.7977 26.394 15.8371 26.6121 17.9213C26.6801 18.4743 26.8076 19.0126 26.9945 19.5358C26.714 20.3782 26.2183 20.5482 25.5074 20.0456C24.814 17.9267 24.7006 15.7741 25.1676 13.5878C25.8257 12.9434 26.5195 12.3486 27.2494 11.8034ZM10.5949 26.2486C10.6792 26.2632 10.7358 26.2348 10.7648 26.1636C11.1808 26.024 11.6057 25.9531 12.0394 25.9512C11.8932 27.2515 12.4598 28.0729 13.7388 28.4154C14.9603 28.5553 15.81 28.0596 16.288 26.9284C17.6021 27.9686 18.4943 29.2999 18.9646 30.9221C19.8866 34.8405 18.8811 38.1686 15.9481 40.9062C13.7398 42.6184 11.3889 42.845 8.89544 41.586C7.23685 40.4675 6.1747 38.9239 5.70899 36.9551C4.97448 33.2109 5.97998 30.0245 8.72549 27.3957C9.31424 26.9461 9.93737 26.5638 10.5949 26.2486Z" fill="#848D6F"/>
<path fill-rule="evenodd" clip-rule="evenodd" d="M32.9425 2.96629C33.1133 3.03844 33.2549 2.98179 33.3673 2.79635C33.2158 2.8297 33.0742 2.88635 32.9425 2.96629Z" fill="#848D6F"/>
<path fill-rule="evenodd" clip-rule="evenodd" d="M12.0394 3.22121C12.1481 3.32447 12.233 3.29614 12.2943 3.13624C12.2001 3.14107 12.1151 3.16939 12.0394 3.22121Z" fill="#848D6F"/>
<path fill-rule="evenodd" clip-rule="evenodd" d="M8.21566 12.3132C8.10596 12.3333 8.02099 12.305 7.96074 12.2282C7.95519 12.191 7.96934 12.1626 8.00323 12.1433C8.08775 12.1914 8.15856 12.248 8.21566 12.3132Z" fill="#848D6F"/>
<path fill-rule="evenodd" clip-rule="evenodd" d="M27.5893 21.1503C27.5245 21.3 27.4112 21.385 27.2494 21.4052C27.2972 21.3096 27.3964 21.1963 27.5468 21.0653C27.5807 21.0847 27.5948 21.1131 27.5893 21.1503Z" fill="#848D6F"/>
<path fill-rule="evenodd" clip-rule="evenodd" d="M10.7648 26.1636C10.7358 26.2348 10.6792 26.2632 10.5949 26.2486C10.5577 26.2541 10.5293 26.24 10.5099 26.2061C10.5877 26.1743 10.6586 26.1318 10.7223 26.0787C10.7562 26.098 10.7703 26.1264 10.7648 26.1636Z" fill="#848D6F"/>
<path fill-rule="evenodd" clip-rule="evenodd" d="M20.6216 32.0267C20.6389 32.2831 20.6672 32.538 20.7065 32.7914C20.5381 32.5473 20.5098 32.2924 20.6216 32.0267Z" fill="#848D6F"/>
<path fill-rule="evenodd" clip-rule="evenodd" d="M9.40527 43.3279C9.344 43.168 9.25903 43.1397 9.15035 43.243C9.22606 43.2948 9.31103 43.3231 9.40527 43.3279Z" fill="#848D6F"/>
<path fill-rule="evenodd" clip-rule="evenodd" d="M39.2737 0H40.5604L40.6106 0.0236886C41.4412 0.416093 42.0012 0.936395 42.2215 1.60541C42.4417 2.27394 42.3021 3.02916 41.8707 3.84642L41.858 3.87058L41.8402 3.89137C41.5575 4.2232 41.232 4.49699 40.8645 4.71155C41.9509 10.9244 40.2767 16.2687 35.8493 20.7185C36.9433 21.7444 37.8325 22.9275 38.5159 24.2669L38.558 24.3493L38.5355 24.4392C38.4447 24.8023 38.2747 25.1013 37.9779 25.2391C37.6824 25.3763 37.342 25.3158 37.0008 25.1552L36.9315 25.1225L36.8928 25.0564C36.2081 23.8867 35.3538 22.8589 34.3293 21.972C33.2808 22.6963 32.1738 23.3325 31.0084 23.8806L30.985 23.8916L30.9599 23.8975C30.6122 23.9796 30.2723 23.9457 29.9496 23.7963L29.8589 23.7543L29.8229 23.6611C29.3498 22.4369 29.0407 21.1712 28.8956 19.8645C28.8074 19.8697 28.7206 19.8831 28.635 19.9049C28.5182 20.2585 28.3692 20.6001 28.1883 20.9294L28.1748 20.9539L28.1563 20.9747C28.0422 21.1029 27.9178 21.2168 27.7832 21.3156C27.686 21.4913 27.5299 21.6041 27.3309 21.6424C26.8792 21.8865 26.4212 22 25.9611 21.9688C25.5512 21.941 25.1545 21.7994 24.7723 21.555C23.1166 23.2422 22.2984 25.2817 22.3132 27.6876C22.4686 31.7584 24.2372 34.8673 27.6304 37.0397C28.9807 37.7781 30.2994 38.1135 31.5902 38.0591C32.8772 38.0049 34.1535 37.5625 35.4216 36.7188C37.7269 34.5186 38.6157 31.8455 38.0949 28.6718C37.9744 28.0634 37.8476 27.4575 37.7144 26.8542L37.7055 26.8138L37.7102 26.7727C37.7533 26.3972 37.882 26.0671 38.1751 25.9093C38.465 25.7532 38.8159 25.8204 39.1644 25.9818L39.2456 26.0194L39.2839 26.1004C39.6178 26.806 39.8373 27.5518 39.9423 28.3368C40.4379 31.4086 39.8001 34.2199 38.0311 36.7566L38.0247 36.7658L38.0175 36.7743C35.98 39.1956 33.3634 40.2328 30.1958 39.8773L30.1836 39.8759L30.1716 39.8734C26.2027 39.0236 23.3491 36.7492 21.6297 33.0659L21.6275 33.0614C20.144 29.7063 20.0861 26.323 21.4544 22.9273L21.4589 22.9162L21.4644 22.9056C22.0543 21.7718 22.8141 20.7637 23.743 19.8819C23.3816 18.5207 23.2241 17.141 23.2707 15.7436C20.5296 18.5083 18.4164 21.6973 16.9301 25.3122C19.1733 26.9615 20.4878 29.1934 20.8665 31.9935L20.8676 32.0018L20.8682 32.01C20.885 32.2594 20.9126 32.5072 20.9508 32.7535L20.953 32.7677L20.9535 32.782C21.1041 36.7407 19.6552 39.9735 16.6143 42.4572L16.6063 42.4638L16.5978 42.4696C15.5044 43.22 14.3125 43.7288 13.0241 43.9949L12.9993 44H10.7344L10.7048 43.9926C10.2462 43.8779 9.79486 43.7375 9.3509 43.5716C9.23642 43.5596 9.12875 43.5227 9.03122 43.4605C6.96779 42.5376 5.49804 41.0201 4.63077 38.9187L4.62552 38.906C3.10711 34.5547 3.80273 30.5841 6.70712 27.0269L6.71525 27.017C8.18847 25.3927 10.0172 24.4637 12.19 24.2342C12.6782 22.6242 13.3563 21.1029 14.2241 19.6707C10.3844 21.1511 6.41061 21.513 2.30775 20.7561L2.28634 20.7521L2.26595 20.7445C2.07009 20.6712 1.90516 20.5555 1.79856 20.3849C1.69181 20.2141 1.66051 20.0154 1.68184 19.8079L1.68372 19.7897L1.68828 19.7719C2.29455 17.406 3.31343 15.239 4.74436 13.2724L4.749 13.266L4.75403 13.26C5.17274 12.7555 5.57922 12.2418 5.97348 11.7189C5.34399 11.3889 4.73006 11.0333 4.13171 10.6523L4.07821 10.6183L4.04772 10.5627C3.93877 10.364 3.88501 10.1551 3.90444 9.94138C3.92372 9.72929 4.01309 9.53417 4.15388 9.35788C6.22047 6.59045 8.80933 4.47206 11.9179 3.00521C12.0136 2.94367 12.1192 2.90653 12.2315 2.89355C17.8332 0.391353 23.4986 0.296882 29.2115 2.60971L29.2129 2.61028C29.9027 2.89447 30.5653 3.22826 31.2009 3.61159C31.7274 3.295 32.2692 3.00701 32.8264 2.74767C32.9685 2.66306 33.1205 2.60125 33.2817 2.56243C35.2069 1.57301 37.1911 0.723426 39.2343 0.0136873L39.2737 0ZM32.9607 3.23067C32.401 3.49447 31.8574 3.78815 31.3298 4.11171L31.2001 4.19122L31.0707 4.11132C30.4189 3.7089 29.7372 3.36103 29.0253 3.06769C23.452 0.811555 17.9415 0.897434 12.478 3.32491C12.4349 3.39955 12.368 3.47685 12.2628 3.51191C12.1724 3.54205 12.0908 3.53053 12.0228 3.50272C9.03373 4.93337 6.54281 6.98399 4.54753 9.65699L4.54223 9.66408C4.44791 9.78144 4.4057 9.8881 4.39679 9.98614C4.38914 10.0703 4.40443 10.1642 4.45409 10.2714C5.10355 10.6824 5.7717 11.0631 6.45854 11.4132L6.71918 11.5461L6.54468 11.7809C6.09247 12.3893 5.62408 12.9856 5.13952 13.5696C3.75177 15.4785 2.76281 17.58 2.17207 19.8756C2.16267 19.9927 2.18453 20.0696 2.2178 20.1229C2.25095 20.1759 2.31068 20.2298 2.42025 20.2741C6.67582 21.0549 10.7827 20.6055 14.747 18.9258L15.4997 18.6069L15.0499 19.2895C13.9781 20.9156 13.167 22.6635 12.6164 24.534L12.5688 24.6956L12.4011 24.7104C10.2801 24.8979 8.51233 25.7742 7.08601 27.3446C4.29572 30.7648 3.63202 34.5513 5.09038 38.7365C5.89553 40.6834 7.23955 42.0889 9.13078 42.9627C9.19937 42.934 9.28201 42.9217 9.37374 42.9523C9.47493 42.986 9.54071 43.0588 9.58396 43.1307C9.98175 43.277 10.3855 43.402 10.7954 43.5056H12.9482C14.1589 43.2522 15.2792 42.7733 16.3096 42.0678C19.2063 39.6983 20.5878 36.6393 20.4619 32.8683C20.2961 32.5944 20.2623 32.2976 20.368 31.9974C19.9873 29.2957 18.6954 27.1684 16.4849 25.6005L16.3255 25.4875L16.3987 25.3063C17.9943 21.3555 20.3222 17.8993 23.3812 14.9396L23.8502 14.4859L23.7995 15.1365C23.6741 16.7472 23.827 18.3329 24.2587 19.8948L24.2988 20.0399L24.1883 20.1421C23.2539 21.0068 22.4943 22.0002 21.9085 23.1232C20.5951 26.3902 20.6517 29.6302 22.0787 32.8591C23.7312 36.3973 26.453 38.5682 30.2631 39.3874C33.2587 39.7202 35.7057 38.7489 37.632 36.4646C39.3228 34.0354 39.9293 31.3559 39.4537 28.4123L39.4526 28.4056C39.3585 27.7001 39.1663 27.0302 38.8758 26.3952C38.6202 26.2908 38.4806 26.3062 38.4095 26.3446C38.3375 26.3833 38.2467 26.4944 38.2064 26.7893C38.3373 27.3837 38.462 27.9805 38.5807 28.5798L38.5822 28.5877C39.1318 31.9301 38.1843 34.774 35.7469 37.0917L35.7316 37.1063L35.714 37.1181C34.3773 38.0114 33.0088 38.4942 31.611 38.5531C30.2133 38.6119 28.8036 38.2461 27.3855 37.4692L27.3782 37.4652L27.3711 37.4607C23.8341 35.1991 21.9796 31.9379 21.8191 27.7025L21.8188 27.6947C21.8017 25.086 22.7203 22.8688 24.5698 21.0586L24.7194 20.9121L24.8885 21.0356C25.264 21.3099 25.6319 21.4509 25.9945 21.4755C26.3388 21.4989 26.6961 21.4184 27.0704 21.2211C27.1444 21.1061 27.2547 20.9918 27.3845 20.8789L27.5169 20.7635L27.6133 20.8186C27.6671 20.7716 27.7188 20.7209 27.7686 20.6664C27.9486 20.335 28.0932 19.9907 28.2026 19.6334L28.2394 19.5132L28.3582 19.4721C28.6105 19.3849 28.8716 19.3524 29.139 19.3744L29.3449 19.3914L29.3648 19.597C29.491 20.9021 29.7848 22.1644 30.2464 23.3845C30.4322 23.4522 30.6224 23.4647 30.8223 23.4218C32.0117 22.8607 33.1383 22.2061 34.2023 21.4579L34.3579 21.3485L34.5035 21.4708C35.6149 22.4043 36.5404 23.4937 37.279 24.738C37.5247 24.8414 37.677 24.8338 37.7698 24.7907C37.8592 24.7492 37.958 24.6445 38.0317 24.4064C37.3416 23.0787 36.4401 21.9133 35.3261 20.909L35.1311 20.7332L35.3184 20.5491C39.8085 16.1368 41.482 10.838 40.3468 4.62519L40.314 4.44574L40.4758 4.3615C40.8441 4.16979 41.1673 3.91361 41.4463 3.59132C41.8325 2.84995 41.9125 2.24747 41.752 1.76003C41.5934 1.2785 41.1807 0.850126 40.4488 0.494382H39.3572C37.3604 1.19007 35.4205 2.02087 33.5375 2.98682C33.4696 3.08092 33.3819 3.1621 33.2686 3.20743C33.1653 3.24876 33.0604 3.25247 32.9607 3.23067ZM12.1666 3.08731L12.2076 3.0442C12.207 3.04395 12.2063 3.0437 12.2057 3.04344C12.1852 3.03553 12.1483 3.02897 12.1065 3.0429C12.0964 3.04625 12.0878 3.05023 12.0805 3.05431L12.1666 3.08731ZM9.27755 43.3769L9.19143 43.4099C9.19873 43.414 9.20737 43.4179 9.21744 43.4213C9.25924 43.4352 9.29619 43.4286 9.31662 43.4207C9.31727 43.4205 9.3179 43.4202 9.31851 43.42L9.27755 43.3769ZM39.6324 1.84741C36.955 2.84905 34.3553 4.03637 31.8334 5.40939C31.065 6.43061 30.2258 7.36466 29.3159 8.21144C30.882 7.16513 32.5242 6.21258 34.2424 5.35384C35.7326 3.91359 37.4529 2.84154 39.4015 2.13895L39.4405 2.12487L39.482 2.12432C39.7254 2.12108 39.9495 2.17906 40.1272 2.32532C40.2396 2.41794 40.3212 2.53593 40.3775 2.67105C40.4129 2.60136 40.4295 2.52354 40.4282 2.43437C40.3884 2.16175 40.296 2.01212 40.187 1.93248C40.0785 1.85317 39.9064 1.80874 39.6324 1.84741ZM25.7085 10.8983C25.0832 11.2662 24.4342 11.6049 23.7616 11.9142C22.8555 13.2516 21.8085 14.4786 20.6209 15.5948L20.6136 15.6017C19.5944 16.4847 18.5369 17.3171 17.4416 18.0992C15.7467 20.4397 14.4935 23.0056 13.6816 25.7981C13.6242 26.083 13.6438 26.3565 13.7398 26.6235C13.9121 26.7964 14.053 26.8511 14.1637 26.8511C14.2726 26.8511 14.4108 26.7982 14.5794 26.6318C15.4351 23.5178 16.8313 20.6774 18.7673 18.1123L18.7687 18.1104C20.8446 15.4143 23.1579 13.0102 25.7085 10.8983ZM40.4787 1.53332C40.7362 1.72148 40.8706 2.02234 40.9198 2.3803L40.9216 2.39304L40.922 2.4059C40.9322 2.7179 40.8172 2.98719 40.5839 3.19383L40.5702 3.206L40.5548 3.216C40.4789 3.26538 40.3755 3.30339 40.258 3.27988C40.1431 3.25691 40.0627 3.1846 40.0103 3.11528L39.9754 3.06908L39.9647 3.0122C39.9341 2.85016 39.8763 2.75918 39.8129 2.70695C39.755 2.65929 39.6671 2.62302 39.528 2.61895C37.6506 3.30225 35.9949 4.3406 34.5592 5.73524L34.5317 5.762L34.4973 5.77914C28.4254 8.80764 23.3141 13.0176 19.1613 18.411C17.2509 20.9422 15.8772 23.7459 15.0395 26.8233L15.0234 26.8827L14.9813 26.9275C14.7439 27.1807 14.4708 27.3455 14.1637 27.3455C13.8566 27.3455 13.5835 27.1807 13.3461 26.9275L13.3136 26.8929L13.2963 26.8487C13.1494 26.4743 13.1172 26.0856 13.1994 25.6887L13.2013 25.6792L13.204 25.6698C14.0354 22.8062 15.3226 20.1745 17.0652 17.7761L17.0889 17.7434L17.1217 17.72C18.2147 16.9412 19.2695 16.1116 20.286 15.2311C21.4625 14.1248 22.4972 12.908 23.3905 11.5804L23.4295 11.5225L23.493 11.4935C26.7013 10.0299 29.3592 7.88943 31.47 5.0699L31.5023 5.02682L31.5495 5.00105C34.1143 3.60182 36.759 2.39318 39.4838 1.37518L39.5074 1.36636L39.5323 1.36249C39.8928 1.30642 40.2222 1.34585 40.4787 1.53332ZM6.30613 9.73653C7.54774 10.4077 8.85581 10.9177 10.2308 11.2664L10.2675 11.2757L10.2997 11.2955C10.6167 11.4908 10.8518 11.7405 10.8946 12.0612C10.9375 12.3828 10.7748 12.6836 10.5186 12.9514L10.4514 13.0217L10.3543 13.0273C9.57711 13.0726 8.84597 12.9189 8.16576 12.5665C8.1084 12.568 8.04962 12.561 7.9915 12.5416C7.94394 12.5257 7.9009 12.503 7.86252 12.4747C7.85862 12.4756 7.85473 12.4766 7.85085 12.4777C6.09822 14.3656 4.77441 16.5221 3.87865 18.9491C10.3883 19.7802 15.8894 17.8233 20.4048 13.0682C17.6754 13.7988 14.9025 13.9544 12.0879 13.5349L11.9934 13.5208L11.9329 13.4467C11.6566 13.1083 11.4846 12.7441 11.5966 12.3969C11.7082 12.0509 12.0601 11.853 12.4829 11.7352L12.5278 11.7227L12.5743 11.7274C19.5092 12.4341 25.2262 10.192 29.7507 4.99247C27.6062 3.85822 25.3213 3.16593 22.8942 2.91517C16.1761 2.43263 10.6545 4.7037 6.30613 9.73653ZM8.36882 12.1148C8.94699 12.4195 9.56452 12.5608 10.2258 12.5384C10.3835 12.3529 10.4168 12.2184 10.4045 12.1265C10.3912 12.0266 10.3127 11.8914 10.0713 11.7359C8.57045 11.3518 7.14655 10.7804 5.8001 10.0219L5.54004 9.87541L5.73243 9.6472C10.214 4.33125 15.9559 1.92011 22.9335 2.42234L22.9412 2.42289C25.5368 2.69056 27.9762 3.45116 30.2574 4.70398L30.5229 4.84978L30.3268 5.08065C25.6756 10.558 19.7485 12.9422 12.5719 12.224C12.214 12.3309 12.0959 12.4593 12.0671 12.5487C12.0399 12.6331 12.0571 12.7925 12.2579 13.0601C15.1831 13.4822 18.0597 13.2677 20.8903 12.4164L21.0318 12.3738L21.1636 12.5057L21.1644 12.5065L21.18 12.5221L21.181 12.5231L21.189 12.5311C21.1884 12.5305 21.1896 12.5317 21.189 12.5311L21.1937 12.5357C21.1943 12.5363 21.1941 12.5361 21.1947 12.5367L21.2111 12.5532L21.2156 12.5576L21.2192 12.5613L21.387 12.7291L21.2302 12.9034C16.4528 18.215 10.5365 20.3838 3.50788 19.3982L3.20869 19.3563L3.30905 19.0713C4.23339 16.4468 5.63903 14.1231 7.52511 12.1021L7.55482 12.0702L7.59361 12.0505C7.66264 12.0153 7.73478 11.9926 7.80888 11.9826C7.83169 11.9602 7.85636 11.9425 7.88054 11.9287L8.00294 11.8587L8.12548 11.9284C8.21662 11.9803 8.29844 12.0421 8.36882 12.1148ZM8.20335 12.2462C8.20781 12.2243 8.20724 12.2052 8.20522 12.1917L8.19368 12.1934L8.20335 12.2462ZM39.1425 3.61643L39.2161 3.92938C40.0185 7.34201 39.9431 10.4694 38.9768 13.3035C38.0104 16.1376 36.1592 18.6608 33.4384 20.8747L33.4305 20.8811L33.422 20.8869C32.687 21.3902 31.9302 21.8614 31.1521 22.3003L30.8684 22.4603L30.7906 22.144C29.3804 16.4114 30.6475 11.3423 34.5856 6.9646L34.5933 6.95604C35.8602 5.67315 37.2824 4.61035 38.859 3.76794L39.1425 3.61643ZM34.9493 7.29955C31.1973 11.4727 29.9477 16.2663 31.1948 21.7066C31.8574 21.3233 32.504 20.9161 33.1343 20.4847C35.7919 18.3203 37.5784 15.8728 38.5088 13.1439C39.4106 10.4991 39.514 7.57346 38.807 4.35967C37.3895 5.15153 36.1037 6.13131 34.9493 7.29955ZM32.4436 8.01387L31.963 8.78959C30.1705 11.6832 29.2769 14.8386 29.281 18.2609L29.2813 18.5273L29.0156 18.5078C28.7544 18.4885 28.5 18.5141 28.251 18.5842L27.9957 18.656L27.942 18.3962C27.3173 15.3733 27.8541 12.5593 29.5492 9.96859L29.5646 9.94503L29.5849 9.92553C30.2018 9.33385 30.8861 8.8388 31.6372 8.44097L32.4436 8.01387ZM29.9475 10.2629C28.3821 12.667 27.8599 15.2578 28.3776 18.0485C28.513 18.0245 28.6499 18.0109 28.7879 18.0079C28.8234 14.9189 29.5776 12.0388 31.0499 9.37113C30.6604 9.63635 30.293 9.93358 29.9475 10.2629ZM27.7225 11.1414L27.4846 11.8792C26.8524 13.8401 26.6435 15.8441 26.8577 17.8934C26.9236 18.4276 27.0468 18.9473 27.2272 19.4527L27.2559 19.533L27.229 19.6139C27.081 20.0584 26.8516 20.4058 26.4925 20.5289C26.1309 20.6529 25.7422 20.5143 25.3648 20.2475L25.298 20.2003L25.2725 20.1225C24.5654 17.962 24.4498 15.7651 24.9258 13.5362L24.9414 13.4633L24.9946 13.4112C25.6605 12.7591 26.3627 12.1572 27.1014 11.6053L27.7225 11.1414ZM25.394 13.7122C24.9597 15.8035 25.0673 17.861 25.7166 19.8891C26.0124 20.0829 26.2073 20.1041 26.3322 20.0613C26.4594 20.0176 26.6059 19.8767 26.7325 19.5358C26.5553 19.0215 26.4334 18.4933 26.3667 17.9515L26.3662 17.9471C26.1715 16.0863 26.3145 14.2599 26.795 12.4694C26.3112 12.8603 25.8442 13.2745 25.394 13.7122ZM12.3161 25.7028L12.285 25.9788C12.2165 26.5885 12.3181 27.0541 12.5581 27.4022C12.7961 27.7472 13.1933 28.0103 13.7851 28.1718C14.3479 28.2334 14.8033 28.1476 15.1677 27.9351C15.5359 27.7202 15.8369 27.361 16.0603 26.8322L16.1867 26.5329L16.4414 26.7346C17.7962 27.807 18.7175 29.1821 19.202 30.8532L19.2055 30.8654C20.1477 34.8698 19.1148 38.2886 16.1168 41.087L16.1085 41.0947L16.0996 41.1016C14.9653 41.981 13.7823 42.4878 12.5524 42.6063C11.3225 42.7249 10.0648 42.4533 8.78402 41.8067L8.77013 41.7997L8.75722 41.791C7.0465 40.6372 5.94827 39.0405 5.46844 37.012L5.46624 37.0027C4.71559 33.1763 5.74791 29.9045 8.55454 27.2172L8.5645 27.2076L8.57547 27.1993C9.09186 26.8049 9.63444 26.4609 10.2031 26.1675L10.1553 26.0839L10.4165 25.9773C10.4712 25.9549 10.52 25.9255 10.5639 25.8889L10.6958 25.7788L10.845 25.864C10.8506 25.8672 10.8562 25.8707 10.8619 25.8743C11.2465 25.7627 11.6389 25.7058 12.0383 25.704L12.3161 25.7028ZM10.7223 26.0787C10.7214 26.0771 10.72 26.0762 10.7189 26.0745C10.7145 26.0681 10.7086 26.0608 10.7012 26.0533C10.69 26.0421 10.6753 26.0305 10.6561 26.021C10.6492 26.0175 10.6425 26.0147 10.6358 26.0124C10.6298 26.0102 10.6239 26.0085 10.6181 26.0071C10.6103 26.0088 10.6007 26.0118 10.5899 26.0172C10.5792 26.0226 10.5704 26.0288 10.5632 26.035C10.546 26.0499 10.5381 26.065 10.536 26.0702L10.6595 26.1206L10.7172 26.0877L10.7223 26.0787ZM10.6215 26.1424L10.538 26.13L10.5606 26.1771L10.6215 26.1424ZM10.644 26.4994C10.0272 26.7997 9.44147 27.1611 8.88648 27.5838C6.21078 30.1511 5.23491 33.2475 5.95064 36.9028C6.40158 38.8046 7.42301 40.2906 9.02075 41.3724C10.2285 41.9795 11.3883 42.2219 12.505 42.1142C13.6229 42.0065 14.7165 41.5462 15.7877 40.7178C18.6477 38.0439 19.6238 34.811 18.7254 30.9848C18.2983 29.5157 17.5159 28.296 16.3756 27.3205C16.1336 27.7773 15.8159 28.1293 15.4168 28.3621C14.9354 28.6429 14.361 28.7355 13.7107 28.661L13.6925 28.6589L13.6749 28.6542C12.9974 28.4728 12.4773 28.1558 12.1512 27.6828C11.8706 27.276 11.751 26.7791 11.7721 26.209C11.4854 26.2306 11.2027 26.2849 10.9237 26.372C10.8939 26.4062 10.8568 26.4365 10.8112 26.4594C10.755 26.4874 10.6977 26.4984 10.644 26.4994Z" fill="#848D6F"/>
</g>
</g>
</svg>
