<svg width="44" height="44" viewBox="0 0 44 44" fill="none" xmlns="http://www.w3.org/2000/svg">
<g id="sausage">
<g id="Vector">
<path fill-rule="evenodd" clip-rule="evenodd" d="M32.8764 0.247191H33.0463C38.1135 1.22099 41.5265 4.13835 43.2855 8.9993C43.4702 9.684 43.626 10.3638 43.7528 11.0386V13.6728C43.5963 14.7514 43.2564 15.7711 42.7331 16.7317C42.6222 16.7618 42.5372 16.8752 42.4782 17.0716C42.4888 17.1232 42.5171 17.1515 42.5632 17.1566C42.3413 17.5348 42.1006 17.903 41.8409 18.2612L33.2163 26.8859C32.834 27.087 32.5083 27.0162 32.2391 26.6735C32.1711 26.4298 32.1852 26.2032 32.2816 25.9937C33.8223 24.4955 35.3518 22.9802 36.8701 21.4477C36.7917 21.1984 36.6784 21.1843 36.5302 21.4052C31.0719 21.9686 26.894 19.9293 23.9968 15.2872C22.5744 12.7637 22.0929 10.0729 22.5523 7.21489C17.565 12.1739 12.6082 17.1589 7.68223 22.1699C6.70185 23.4651 5.97959 24.8954 5.51545 26.461C4.54558 26.7374 4.19153 26.3834 4.4533 25.3989C5.01308 23.5411 5.96193 21.9266 7.29986 20.5555C13.2408 14.742 19.1464 8.87898 25.0165 2.96629C25.0559 2.91579 25.0701 2.85913 25.059 2.79635C26.4263 1.37642 28.0974 0.597508 30.0723 0.459621C30.4532 0.774432 30.5099 1.14264 30.2423 1.56426C25.4175 2.93635 23.3074 6.1228 23.9119 11.1236C24.9727 15.6116 27.7059 18.5432 32.1117 19.9182C35.4959 20.7756 38.3708 19.9401 40.7363 17.4115C42.3226 15.2312 42.804 12.8236 42.1808 10.1889C41.3224 6.95121 39.4389 4.50119 36.5302 2.83883C35.3006 2.19292 33.9976 1.76806 32.6215 1.56426C32.1487 1.01474 32.2337 0.57572 32.8764 0.247191Z" fill="#848D6F"/>
<path fill-rule="evenodd" clip-rule="evenodd" d="M40.1415 9.76404C38.5702 5.82863 35.667 3.70433 31.4319 3.39115C29.7686 3.46475 28.3383 4.08789 27.1408 5.26053C25.7948 6.93438 25.3416 8.83207 25.7812 10.9537C26.8701 15.045 29.49 17.495 33.6412 18.3037C36.7843 18.6521 38.9795 17.3917 40.2265 14.5225C40.6423 12.9292 40.614 11.3431 40.1415 9.76404ZM32.2816 6.23771C31.6138 5.96403 31.3023 5.46836 31.3469 4.7507C32.2938 4.74464 33.2002 4.92875 34.066 5.30302C33.7207 6.08469 33.1259 6.39625 32.2816 6.23771ZM30.1573 6.02528C30.1525 5.93105 30.1242 5.84608 30.0723 5.77037C30.0073 5.54977 29.9789 5.32318 29.9874 5.09059C28.5703 5.55603 27.6356 6.50488 27.1833 7.93715C28.1974 7.9895 28.948 8.45685 29.435 9.33919C29.9543 10.9407 29.4587 12.1019 27.948 12.823C29.4089 15.3598 31.604 16.7476 34.5334 16.9867C35.8904 17.023 37.0375 16.5557 37.9747 15.5846C36.9837 15.2167 36.3464 14.5227 36.0629 13.5028C35.8798 11.5163 36.772 10.3834 38.7395 10.1039C38.0834 8.29967 36.9363 6.88346 35.2981 5.85534C34.9583 6.75579 34.321 7.33643 33.3862 7.59726C31.9074 7.86323 30.8311 7.33924 30.1573 6.02528ZM27.3957 11.4635C27.1041 10.7904 26.9766 10.0823 27.0133 9.33919C28.1243 9.43707 28.4783 10.0036 28.0755 11.0386C27.8698 11.2166 27.6432 11.3581 27.3957 11.4635ZM37.3799 12.8655C37.4602 12.1202 37.8568 11.6529 38.5695 11.4635C38.7701 11.4783 38.9684 11.5066 39.1643 11.5485C39.2618 12.4436 39.1626 13.3217 38.8669 14.1826C37.9591 14.239 37.4634 13.8 37.3799 12.8655Z" fill="#848D6F"/>
<path fill-rule="evenodd" clip-rule="evenodd" d="M25.059 2.79635C25.0701 2.85913 25.0559 2.91579 25.0165 2.96629C19.1464 8.87898 13.2408 14.742 7.29986 20.5555C13.1912 14.6074 19.111 8.68773 25.059 2.79635Z" fill="#848D6F"/>
<path fill-rule="evenodd" clip-rule="evenodd" d="M30.0723 5.77037C30.2467 5.81733 30.275 5.9023 30.1573 6.02528C30.1525 5.93105 30.1242 5.84608 30.0723 5.77037Z" fill="#848D6F"/>
<path fill-rule="evenodd" clip-rule="evenodd" d="M32.5365 8.82935C34.3766 8.70095 35.2405 9.55068 35.1282 11.3785C34.6527 12.6857 33.7321 13.1814 32.3666 12.8655C31.1223 12.2315 30.74 11.2544 31.2195 9.93399C31.5439 9.42518 31.9828 9.05699 32.5365 8.82935ZM32.7914 10.1889C32.6497 10.3453 32.5222 10.5152 32.4091 10.6987C32.3524 10.8404 32.3524 10.9819 32.4091 11.1236C32.8661 11.7906 33.3193 11.7906 33.7686 11.1236C33.8531 10.401 33.5274 10.0894 32.7914 10.1889Z" fill="#848D6F"/>
<path fill-rule="evenodd" clip-rule="evenodd" d="M42.7331 16.7317C42.6998 16.8833 42.6432 17.0249 42.5632 17.1566C42.5171 17.1515 42.4888 17.1232 42.4782 17.0716C42.5372 16.8752 42.6222 16.7618 42.7331 16.7317Z" fill="#848D6F"/>
<path fill-rule="evenodd" clip-rule="evenodd" d="M32.2816 25.9937C33.7045 24.4431 35.1774 22.9277 36.7001 21.4477C36.6497 21.4083 36.593 21.3941 36.5302 21.4052C36.6784 21.1843 36.7917 21.1984 36.8701 21.4477C35.3518 22.9802 33.8223 24.4955 32.2816 25.9937Z" fill="#848D6F"/>
<path fill-rule="evenodd" clip-rule="evenodd" d="M7.63975 43.7528C7.61143 43.7528 7.5831 43.7528 7.55478 43.7528C7.21688 43.716 6.9478 43.5461 6.74754 43.243C6.51309 42.5055 6.24402 41.7832 5.94031 41.0762C5.25552 40.8951 4.57575 40.6969 3.90098 40.4814C3.74922 40.4147 3.62177 40.3156 3.51861 40.184C3.26024 39.4373 3.01948 38.6867 2.79635 37.9322C2.08825 37.6773 1.38015 37.4224 0.672051 37.1675C0.541408 37.0224 0.399788 36.895 0.247191 36.7851C0.247191 36.5019 0.247191 36.2186 0.247191 35.9354C0.312779 35.8339 0.39775 35.749 0.502107 35.6805C0.496546 35.7177 0.510708 35.7461 0.544593 35.7654C0.813671 35.4963 1.08275 35.2273 1.35183 34.9582C1.33242 34.9243 1.30409 34.9102 1.26685 34.9157C1.59196 34.5342 1.98849 34.251 2.45646 34.066C2.66655 34.0775 2.77984 34.0208 2.79635 33.8961C3.54049 33.6797 4.30524 33.5098 5.09059 33.3862C4.40177 31.9624 4.07604 30.4612 4.11341 28.8827C4.47661 28.3775 4.87315 28.3492 5.30302 28.7978C5.68872 33.1282 7.85551 36.173 11.8034 37.9322C15.8773 39.2855 19.4745 38.5066 22.5948 35.5955C25.0986 33.2197 27.5912 30.7697 30.0723 28.2454C30.053 28.2115 30.0246 28.1974 29.9874 28.2029C30.2856 27.9197 30.6255 27.8773 31.007 28.0755C31.2623 28.345 31.3048 28.6424 31.1345 28.9677C28.6359 31.4672 26.1292 34.0023 23.6145 36.5727C20.3987 39.5932 16.6316 40.5845 12.3132 39.5467C11.6758 39.3722 11.0669 39.1314 10.4863 38.8244C10.4733 41.034 9.52442 42.6768 7.63975 43.7528ZM7.21489 40.5239C7.2182 40.3039 7.13323 40.1339 6.95997 40.014C6.21878 39.7341 5.45403 39.4933 4.66573 39.2918C4.42547 38.5143 4.18472 37.7354 3.94347 36.9551C3.30258 36.6373 2.63697 36.3682 1.94663 36.1478C2.4021 35.6071 2.96857 35.2389 3.64607 35.0432C4.37927 34.902 5.11569 34.817 5.85534 34.7883C6.71737 36.0894 7.79368 37.1798 9.08427 38.0597C9.09175 38.8233 9.02097 39.5881 8.87184 40.3539C8.65161 40.9924 8.2834 41.5306 7.76721 41.9684C7.58904 41.4751 7.40493 40.9937 7.21489 40.5239Z" fill="#848D6F"/>
<path fill-rule="evenodd" clip-rule="evenodd" d="M29.9874 28.2029C30.0246 28.1974 30.053 28.2115 30.0723 28.2454C27.5912 30.7697 25.0986 33.2197 22.5948 35.5955C25.0307 33.103 27.4949 30.6388 29.9874 28.2029Z" fill="#848D6F"/>
<path fill-rule="evenodd" clip-rule="evenodd" d="M2.45646 34.066C2.66655 34.0775 2.77984 34.0208 2.79635 33.8961C2.65589 33.9097 2.5426 33.9663 2.45646 34.066Z" fill="#848D6F"/>
<path fill-rule="evenodd" clip-rule="evenodd" d="M1.26685 34.9157C1.30409 34.9102 1.33242 34.9243 1.35183 34.9582C1.08275 35.2273 0.813671 35.4963 0.544593 35.7654C0.510708 35.7461 0.496546 35.7177 0.502107 35.6805C0.728699 35.3973 0.983615 35.1423 1.26685 34.9157Z" fill="#848D6F"/>
<path fill-rule="evenodd" clip-rule="evenodd" d="M6.95997 40.014C7.13323 40.1339 7.2182 40.3039 7.21489 40.5239C7.11381 40.3663 7.00051 40.2105 6.875 40.0565C6.89441 40.0226 6.92274 40.0085 6.95997 40.014Z" fill="#848D6F"/>
<path d="M33.3013 13.9277C33.9882 14.0893 34.2856 14.5141 34.1935 15.2022C33.6253 15.6893 33.1438 15.6043 32.7489 14.9473C32.6049 14.4131 32.7891 14.0732 33.3013 13.9277Z" fill="#848D6F"/>
<path fill-rule="evenodd" clip-rule="evenodd" d="M32.8169 0H33.0699L33.093 0.00444204C38.2459 0.994717 41.7294 3.9725 43.5179 8.91519L43.5214 8.92492L43.5241 8.93491C43.7105 9.62558 43.8677 10.3116 43.9958 10.993L44 11.0156V13.6906L43.9974 13.7083C43.8383 14.8049 43.4944 15.8426 42.9664 16.8202C42.9266 16.9842 42.863 17.1388 42.7756 17.2831C42.5499 17.6677 42.3051 18.0421 42.0411 18.4063L42.0296 18.4222L33.3646 27.0872L33.3314 27.1047C33.1043 27.2241 32.8675 27.2762 32.6328 27.2252C32.3984 27.1742 32.2038 27.0286 32.0447 26.8262L32.0143 26.7874L32.001 26.74C31.9188 26.4458 31.9338 26.1584 32.057 25.8904L32.0732 25.8551L32.0995 25.8265C33.3906 24.4196 34.7226 23.0416 36.0957 21.6927C33.5159 21.893 31.2129 21.5056 29.1947 20.5204C27.0572 19.4771 25.2559 17.7714 23.7871 15.4181L23.7813 15.4087C22.4527 13.0517 21.9289 10.5473 22.2109 7.90317C17.402 12.6885 12.6216 17.498 7.86975 22.3318C6.91228 23.5998 6.20667 24.9991 5.75245 26.5313L5.71384 26.6615L5.5832 26.6988C5.32646 26.7719 5.09274 26.8088 4.88904 26.7969C4.68305 26.7848 4.49134 26.7212 4.34772 26.5776C4.20447 26.4343 4.14006 26.2425 4.12583 26.036C4.11173 25.8314 4.14522 25.5956 4.21441 25.3354L4.21649 25.3275C4.78759 23.4321 5.75686 21.7828 7.12294 20.3828L7.12423 20.3815C13.0155 14.4336 18.9351 8.51405 24.8829 2.62279C26.2925 1.15988 28.0204 0.355093 30.0551 0.21303L30.1537 0.206149L30.2298 0.269095C30.4514 0.452291 30.6046 0.673009 30.6448 0.934296C30.6849 1.19511 30.6058 1.45277 30.451 1.69671L30.4005 1.77625L30.3099 1.80202C27.9362 2.47705 26.2606 3.58927 25.2472 5.11964C24.2355 6.64731 23.8612 8.62567 24.1556 11.0802C25.198 15.4734 27.8647 18.3318 32.1789 19.6802C33.833 20.0983 35.3502 20.1003 36.737 19.6973C38.1213 19.2949 39.3909 18.4845 40.5454 17.2538C42.0812 15.1362 42.5454 12.8077 41.941 10.249C41.0996 7.07831 39.2595 4.68457 36.4114 3.05563C35.2075 2.42382 33.9325 2.0083 32.5853 1.80878L32.4942 1.79529L32.4341 1.72547C32.1789 1.42879 32.0241 1.10573 32.0879 0.775883C32.1519 0.445547 32.4163 0.204754 32.7639 0.0270869L32.8169 0ZM7.4748 20.7301C6.16701 22.071 5.23949 23.6486 4.69116 25.4663C4.63027 25.6964 4.61013 25.8727 4.61904 26.002C4.62788 26.1303 4.66352 26.1942 4.6973 26.228C4.7307 26.2614 4.793 26.296 4.91799 26.3034C5.02015 26.3093 5.15256 26.296 5.31885 26.2569C5.79249 24.7152 6.51474 23.3027 7.48514 22.0208L7.49477 22.008L7.50595 21.9967C12.4326 16.9849 17.39 11.9993 22.378 7.0396L22.917 6.50367L22.7964 7.25412C22.3461 10.0551 22.8166 12.6876 24.2095 15.161C25.6374 17.4474 27.3726 19.0809 29.4115 20.0762C31.4251 21.059 33.7511 21.4274 36.3987 21.17C36.4241 21.1406 36.4516 21.1133 36.4814 21.0897C36.5422 21.0417 36.6378 20.9899 36.7569 21.0048C36.8777 21.0199 36.9579 21.0952 37.0046 21.1594C37.0509 21.223 37.0825 21.2991 37.1059 21.3735L37.1506 21.5157L37.0457 21.6217C35.538 23.1434 34.0193 24.6483 32.4895 26.1363C32.4399 26.2639 32.4296 26.4025 32.4651 26.559C32.5633 26.6723 32.6552 26.7241 32.7378 26.7421C32.8225 26.7605 32.9299 26.7504 33.0695 26.6831L41.6522 18.1004C41.8668 17.8035 42.0681 17.4997 42.2561 17.189C42.2469 17.1657 42.2405 17.1427 42.236 17.1211L42.2236 17.0602L42.2415 17.0006C42.295 16.8222 42.3874 16.6351 42.556 16.5394C43.0399 15.6313 43.3563 14.6702 43.5056 13.6548V11.0617C43.3815 10.4041 43.2294 9.7414 43.0495 9.07369C41.3218 4.3077 37.988 1.45542 33.0227 0.494382H32.9378C32.6821 0.635206 32.5931 0.767667 32.5733 0.869826C32.5542 0.968774 32.5845 1.11867 32.7523 1.33411C34.1211 1.54723 35.4191 1.97596 36.6451 2.62L36.6529 2.62409C39.619 4.31926 41.5444 6.8239 42.4198 10.1256L42.4215 10.132C43.0612 12.8365 42.5651 15.3181 40.9362 17.5569L40.9272 17.5693L40.9168 17.5804C39.7085 18.872 38.3614 19.74 36.875 20.172C35.3887 20.604 33.7786 20.5955 32.0509 20.1578L32.0379 20.1545C27.5489 18.7535 24.7522 15.7536 23.6713 11.1805L23.6681 11.167L23.6665 11.1533C23.3594 8.61335 23.7384 6.50261 24.835 4.84668C25.9173 3.21225 27.6768 2.05416 30.0789 1.35407C30.1533 1.21337 30.1702 1.10067 30.1561 1.00948C30.1424 0.920108 30.0943 0.821048 29.9859 0.714078C28.1499 0.864608 26.5932 1.59094 25.3058 2.8972C25.2951 2.97684 25.2632 3.05201 25.2114 3.1184L25.2023 3.13L25.1919 3.14045C19.3216 9.0533 13.4159 14.9165 7.4748 20.7301ZM31.4355 3.14356L31.4501 3.14463C33.6054 3.30401 35.4363 3.9257 36.9316 5.01977C38.4268 6.11386 39.5713 7.66938 40.3711 9.67238L40.3752 9.68262L40.3783 9.69318C40.8638 11.3155 40.893 12.9477 40.4657 14.5849L40.4608 14.6034L40.4532 14.621C39.8136 16.0927 38.9216 17.1717 37.768 17.8341C36.6146 18.4963 35.2245 18.7279 33.6139 18.5494L33.6038 18.5483L33.5939 18.5464C31.481 18.1347 29.7435 17.3022 28.394 16.0402C27.0445 14.7782 26.0965 13.0995 25.5424 11.0172L25.5388 11.0039C25.0843 8.81073 25.5555 6.83759 26.9482 5.10563L26.9574 5.09419L26.9679 5.08392C28.2085 3.86899 29.6964 3.22052 31.421 3.1442L31.4355 3.14356ZM27.3242 5.4269C26.0336 7.03801 25.6004 8.85435 26.0219 10.8968C26.5568 12.9027 27.4626 14.4924 28.7317 15.6791C30 16.8652 31.6448 17.6614 33.6785 18.0591C35.2066 18.2269 36.4823 18.0022 37.5218 17.4053C38.5589 16.8098 39.3854 15.8298 39.9921 14.4415C40.3906 12.9019 40.3625 11.3715 39.9078 9.84545C39.1365 7.91808 38.0451 6.44713 36.6396 5.41875C35.235 4.39094 33.5016 3.79427 31.4283 3.63876C29.8374 3.71239 28.4729 4.30658 27.3242 5.4269ZM31.594 5.00076C31.6092 5.2109 31.6657 5.38491 31.7564 5.52915C31.8757 5.71894 32.0675 5.87851 32.3521 5.99931C32.7232 6.06493 33.0155 6.02482 33.2462 5.90398C33.4269 5.80931 33.5877 5.65581 33.7233 5.42983C33.0393 5.16579 32.3299 5.02281 31.594 5.00076ZM31.3453 4.50352C32.3264 4.49724 33.2667 4.6882 34.1641 5.07612L34.3928 5.17499L34.2921 5.40291C34.1031 5.83072 33.8347 6.15381 33.4756 6.34192C33.1167 6.52994 32.6973 6.56728 32.236 6.48066L32.2112 6.476L32.1879 6.46644C31.8175 6.31466 31.5269 6.093 31.3378 5.79224C31.1487 5.4914 31.0754 5.13388 31.1002 4.73537L31.1145 4.50499L31.3453 4.50352ZM30.2472 4.74506L30.2344 5.09952C30.2284 5.26597 30.2436 5.42835 30.2798 5.58722C30.2903 5.59291 30.3005 5.59901 30.3106 5.60555C30.3664 5.64192 30.4288 5.70097 30.4588 5.79117C30.4901 5.8848 30.4754 5.96928 30.4448 6.03887C30.7519 6.58994 31.1317 6.96417 31.5781 7.18149C32.0556 7.41397 32.635 7.47936 33.331 7.35603C34.1845 7.11473 34.7565 6.59056 35.0668 5.76806L35.1735 5.48531L35.4295 5.64597C37.1139 6.7031 38.2968 8.16308 38.9718 10.0195L39.0759 10.3058L38.7742 10.3487C37.8294 10.4829 37.1828 10.816 36.7889 11.3162C36.398 11.8126 36.2238 12.5145 36.307 13.4579C36.5721 14.3898 37.1511 15.0152 38.0608 15.3529L38.415 15.4844L38.1526 15.7563C37.1668 16.7776 35.9526 17.272 34.5267 17.2338L34.5132 17.2334C31.5032 16.9878 29.2354 15.5539 27.7338 12.9464L27.6006 12.715L27.8415 12.6C28.5605 12.2567 29.008 11.8236 29.2254 11.3142C29.4408 10.8096 29.4472 10.1909 29.2072 9.43809C28.7618 8.64468 28.0922 8.23159 27.1705 8.18401L26.8513 8.16753L26.9476 7.86271C27.4236 6.3552 28.4169 5.34622 29.9102 4.85574L30.2472 4.74506ZM30.0352 5.90839L29.9853 5.86064C29.9805 5.88055 29.9778 5.91142 29.9898 5.94747C29.9961 5.96617 30.0044 5.98082 30.0127 5.99192L30.0352 5.90839ZM27.5202 7.72142C28.4587 7.85538 29.176 8.35849 29.6515 9.21973L29.6629 9.24044L29.6702 9.26294C29.942 10.1013 29.9582 10.8566 29.6801 11.5083C29.4309 12.092 28.9592 12.5605 28.2949 12.9234C29.712 15.2451 31.7886 16.5129 34.5467 16.7397C35.708 16.7694 36.7001 16.4126 37.5351 15.6653C36.6685 15.2421 36.0943 14.5389 35.8247 13.569L35.8187 13.5476L35.8167 13.5255C35.7216 12.4937 35.9023 11.6429 36.4005 11.0103C36.8483 10.4417 37.5261 10.0828 38.4008 9.91049C37.7854 8.37909 36.7899 7.15142 35.4101 6.22287C35.0197 7.04024 34.3623 7.58155 33.4527 7.83536L33.4415 7.83849L33.43 7.84055C32.6523 7.98042 31.9578 7.91623 31.3617 7.626C30.7651 7.33555 30.2929 6.83134 29.9373 6.13808L29.9132 6.09091L29.9104 6.03797C29.9079 5.98776 29.8937 5.94699 29.8684 5.91001L29.8463 5.87774L29.8352 5.84024C29.7964 5.70834 29.7692 5.57449 29.7538 5.43885C28.68 5.87253 27.9389 6.62933 27.5202 7.72142ZM32.594 9.07329C32.1133 9.27883 31.731 9.60089 31.4425 10.0441C31.2253 10.6555 31.2163 11.1568 31.3768 11.5671C31.537 11.9764 31.8816 12.3353 32.4518 12.6314C33.0821 12.7722 33.5783 12.7206 33.9639 12.513C34.3481 12.3062 34.6603 11.924 34.8835 11.3275C34.9304 10.4682 34.7458 9.89536 34.3911 9.54658C34.0367 9.1979 33.458 9.01957 32.594 9.07329ZM34.7378 9.19412C35.2422 9.69022 35.4332 10.4451 35.3749 11.3937L35.3727 11.4294L35.3605 11.463C35.1089 12.1545 34.7275 12.6633 34.1983 12.9483C33.6694 13.2331 33.032 13.2731 32.3109 13.1064L32.2813 13.0995L32.2543 13.0858C31.5964 12.7505 31.1361 12.3086 30.9164 11.7472C30.6968 11.1861 30.7339 10.5469 30.9871 9.84961L30.9964 9.82404L31.011 9.80109C31.3626 9.24972 31.8413 8.8479 32.4425 8.60073L32.4795 8.58554L32.5193 8.58276C33.473 8.51621 34.2339 8.69846 34.7378 9.19412ZM26.7791 9.0704L27.035 9.09295C27.6166 9.14419 28.0824 9.32359 28.3217 9.70647C28.5612 10.0898 28.5169 10.5859 28.3059 11.1283L28.2836 11.1854L28.2372 11.2256C28.0123 11.4201 27.7638 11.5754 27.4926 11.6909L27.2666 11.7872L27.1689 11.5618C26.862 10.8534 26.7279 10.1074 26.7665 9.32699L26.7791 9.0704ZM27.2545 9.62085C27.2582 10.1412 27.3488 10.642 27.5261 11.1244C27.6457 11.0573 27.7593 10.9796 27.867 10.8911C28.0351 10.4323 28.0124 10.1444 27.9024 9.96848C27.8085 9.81818 27.6128 9.68853 27.2545 9.62085ZM32.9139 10.4238C32.8115 10.5436 32.7175 10.6718 32.6319 10.8085C32.6083 10.8766 32.6077 10.9406 32.6301 11.0085C32.8392 11.3055 32.9963 11.3767 33.0917 11.3767C33.1836 11.3767 33.3326 11.3105 33.5291 11.0352C33.5537 10.7436 33.4914 10.598 33.4168 10.5266C33.3429 10.4559 33.1959 10.3991 32.9139 10.4238ZM33.7585 10.1693C34.0047 10.4048 34.0598 10.7615 34.0141 11.1523L34.0072 11.2119L33.9736 11.2617C33.7379 11.6116 33.4478 11.8711 33.0917 11.8711C32.7366 11.8711 32.4445 11.6126 32.2051 11.2633L32.1897 11.2408L32.1796 11.2154C32.0993 11.0148 32.0993 10.8075 32.1796 10.6069L32.1875 10.5871L32.1987 10.569C32.3196 10.3728 32.4562 10.1907 32.6083 10.0229L32.6689 9.95603L32.7583 9.94394C33.1533 9.89054 33.5142 9.93558 33.7585 10.1693ZM38.5462 11.2139L38.5877 11.217C38.7995 11.2326 39.0089 11.2625 39.216 11.3067L39.3907 11.3441L39.4101 11.5217C39.5115 12.4533 39.4081 13.368 39.1007 14.2629L39.0471 14.4191L38.8823 14.4293C38.3878 14.46 37.9635 14.358 37.6504 14.0807C37.3387 13.8046 37.1787 13.3914 37.1337 12.8875L37.1315 12.8633L37.1341 12.839C37.1784 12.4283 37.3122 12.0752 37.5491 11.7961C37.7861 11.5167 38.111 11.3296 38.506 11.2246L38.5462 11.2139ZM38.5934 11.7133C38.2961 11.7988 38.0788 11.9359 37.926 12.116C37.7702 12.2997 37.6668 12.5453 37.6284 12.8679C37.6696 13.2845 37.7977 13.5508 37.9782 13.7106C38.1353 13.8498 38.3626 13.9353 38.6864 13.94C38.9105 13.2237 38.9934 12.4963 38.9355 11.7564C38.8224 11.7373 38.7083 11.723 38.5934 11.7133ZM33.2954 13.6724L33.3579 13.687C33.739 13.7767 34.0476 13.948 34.242 14.2258C34.4369 14.5042 34.4899 14.8507 34.4385 15.235L34.426 15.3285L34.3544 15.3899C34.0443 15.6558 33.7086 15.8082 33.3633 15.7472C33.0203 15.6867 32.7506 15.4299 32.5371 15.0747L32.5193 15.045L32.5103 15.0117C32.4289 14.7097 32.4285 14.4198 32.5617 14.174C32.6959 13.9262 32.9383 13.7738 33.2337 13.6899L33.2954 13.6724ZM33.3081 14.1844C33.1318 14.2448 33.0413 14.3265 32.9964 14.4095C32.9478 14.4991 32.927 14.6366 32.9791 14.8498C33.1535 15.1293 33.3154 15.2368 33.4492 15.2604C33.572 15.2821 33.7379 15.2446 33.9585 15.0749C33.9779 14.8214 33.9285 14.64 33.837 14.5093C33.7413 14.3726 33.5762 14.2577 33.3081 14.1844ZM22.422 35.4186C24.8579 32.9262 27.3221 30.462 29.8146 28.0262L29.8171 28.0237C29.9966 27.8532 30.2031 27.7424 30.4353 27.7134C30.6663 27.6845 30.8972 27.7398 31.121 27.8561L31.1579 27.8753L31.1865 27.9055C31.3409 28.0686 31.445 28.2555 31.475 28.4657C31.5051 28.6763 31.4572 28.8842 31.3535 29.0823L31.336 29.1158L31.3093 29.1425C28.8113 31.6413 26.3053 34.1758 23.7912 36.7455L23.7839 36.753C20.5069 39.831 16.6541 40.8442 12.2554 39.787L12.2479 39.7852C11.7202 39.6407 11.2113 39.4518 10.7213 39.2188C10.6016 41.3194 9.61167 42.9116 7.76231 43.9675L7.70534 44H7.54136L7.52802 43.9985C7.11142 43.9532 6.77892 43.7389 6.5413 43.3792L6.52237 43.3506L6.51197 43.3179C6.29213 42.6264 6.04155 41.9484 5.76024 41.2841C5.11094 41.1104 4.46612 40.9214 3.82578 40.7169L3.81341 40.7129L3.80152 40.7077C3.61219 40.6245 3.45215 40.4999 3.32405 40.3365L3.29853 40.3039L3.28501 40.2648C3.03913 39.5542 2.80912 38.8401 2.59499 38.1225L0.529919 37.379L0.488378 37.3329C0.369075 37.2005 0.240524 37.0849 0.102757 36.9857L0 36.9117V35.8624L0.0396001 35.8012C0.117126 35.6813 0.215451 35.5797 0.332572 35.4969C0.559744 35.2171 0.813677 34.9639 1.09417 34.7374C1.43066 34.348 1.83813 34.054 2.31396 33.857C2.43278 33.741 2.58096 33.6737 2.74777 33.6528C3.39333 33.4659 4.05391 33.3135 4.72945 33.1956C4.11853 31.8253 3.83059 30.3848 3.86629 28.8769L3.8681 28.8005L3.9127 28.7384C4.11292 28.4599 4.36097 28.2578 4.66561 28.236C4.97039 28.2142 5.24435 28.3793 5.48149 28.6267L5.54154 28.6894L5.54924 28.7758C5.73884 30.9045 6.36475 32.7047 7.41879 34.1859C8.47075 35.6641 9.95829 36.8374 11.8928 37.7015C13.8905 38.3632 15.7592 38.4993 17.5044 38.1214C19.2513 37.7431 20.8904 36.8464 22.422 35.4186ZM2.50106 34.3146C2.16123 34.4556 1.8643 34.6536 1.60871 34.9094L1.66022 34.9994L0.585853 36.0738L0.494382 36.0215V36.6621C0.606654 36.751 0.712822 36.8488 0.812895 36.9555L2.99788 37.7421L3.03339 37.8621C3.2513 38.5989 3.48609 39.332 3.73779 40.0614C3.80841 40.1431 3.8917 40.2054 3.98936 40.2501C4.65581 40.4627 5.3272 40.6584 6.0035 40.8372L6.11991 40.868L6.16743 40.9786C6.46963 41.6822 6.73787 42.4006 6.97218 43.1338C7.12938 43.3586 7.32526 43.4759 7.56895 43.5056H7.57303C9.34181 42.4742 10.2268 40.9242 10.2391 38.823L10.2415 38.4154L10.6018 38.6059C11.1652 38.9037 11.756 39.1375 12.3747 39.3072C16.6095 40.3239 20.2887 39.3554 23.4415 36.396C25.9461 33.836 28.4427 31.3111 30.9313 28.8213C30.9845 28.7086 30.997 28.6152 30.9856 28.5357C30.9744 28.4569 30.9367 28.3705 30.8552 28.2761C30.7144 28.2095 30.5966 28.1915 30.4966 28.204C30.4507 28.2097 30.4039 28.2224 30.3562 28.2439L30.3798 28.2853L30.2486 28.4187C27.7655 30.945 25.2709 33.397 22.765 35.7748L22.7634 35.7763C21.176 37.2573 19.4577 38.2043 17.609 38.6046C15.7604 39.0049 13.7974 38.8551 11.7254 38.1668L11.7139 38.163L11.7028 38.158C9.69487 37.2633 8.12878 36.0362 7.01599 34.4725C5.91849 32.9303 5.27082 31.0731 5.06512 28.91C4.90286 28.7587 4.78286 28.7233 4.70082 28.7291C4.6175 28.7351 4.50138 28.7887 4.35897 28.9676C4.33507 30.4778 4.65287 31.9138 5.31311 33.2786L5.45826 33.5786L5.129 33.6304C4.39419 33.746 3.67804 33.9027 2.98047 34.1004C2.94008 34.1647 2.88205 34.217 2.80955 34.2532C2.71455 34.3007 2.60632 34.3153 2.50106 34.3146ZM5.98463 34.5359L6.0614 34.6517C6.90574 35.9261 7.95935 36.9936 9.22351 37.8554L9.33018 37.9282L9.33145 38.0573C9.33909 38.8379 9.26672 39.6193 9.11447 40.4012L9.11117 40.4182L9.10552 40.4345C8.87079 41.115 8.47706 41.6905 7.92709 42.1569L7.65563 42.3871L7.53472 42.0524C7.36031 41.5695 7.18022 41.0982 6.99447 40.6382C6.90186 40.4954 6.79823 40.3536 6.6834 40.2127L6.63948 40.1588C5.98004 39.9188 5.30173 39.7095 4.6045 39.5313L4.47042 39.497L3.73879 37.1299C3.13845 36.8379 2.51605 36.589 1.87147 36.3833L1.51964 36.271L1.75758 35.9886C2.24447 35.4106 2.85282 35.015 3.57747 34.8057L3.58827 34.8026L3.59932 34.8005C4.34467 34.6569 5.09351 34.5705 5.84575 34.5413L5.98463 34.5359ZM7.4615 40.4744C7.60121 40.821 7.73769 41.1738 7.87095 41.5328C8.21299 41.1779 8.46638 40.7641 8.63254 40.2895C8.76801 39.5882 8.83627 38.8884 8.83759 38.1899C7.60648 37.3318 6.56939 36.2819 5.72738 35.0413C5.05031 35.0741 4.37589 35.1549 3.70402 35.2838C3.19904 35.4313 2.76214 35.6813 2.39069 36.0354C2.96181 36.2345 3.51603 36.4672 4.05328 36.7336L4.1483 36.7807L4.86118 39.087C5.6108 39.2836 6.33953 39.5155 7.0473 39.7828L7.07568 39.7935L7.10063 39.8108C7.33051 39.9699 7.45152 40.1998 7.4615 40.4744Z" fill="#848D6F"/>
</g>
</g>
</svg>
